<svg id="svg" version="1.1" viewBox="0 0 300 289.7216274089935" width="300" height="289.7216274089935" xmlns="http://www.w3.org/2000/svg"><svg xmlns="http://www.w3.org/2000/svg"><defs><clipPath id="clip-1"><rect x="0" y="0" transform="scale(0.1606,0.1606)" width="1868" height="1804" fill="none"/></clipPath><linearGradient x1="106.35964" y1="31.67281" x2="34.49502" y2="258.16702" gradientUnits="userSpaceOnUse" id="color-1"><stop offset="0" stop-color="#000000"/><stop offset="1" stop-color="#191e1a"/></linearGradient></defs><g clip-path="url(#clip-1)" fill="none" fill-rule="nonzero" stroke="none" stroke-width="1" stroke-linecap="butt" stroke-linejoin="miter" stroke-miterlimit="10" stroke-dasharray="" stroke-dashoffset="0" font-family="none" font-weight="none" font-size="none" text-anchor="none" style="mix-blend-mode: normal"><path d="M171.65685,51.90835l1.15953,0.01445c15.91221,0.20862 32.30782,0.0318 48.25857,0.0583l12.48983,-0.01686c2.39775,-0.00931 4.91916,-0.07982 7.30407,0.11884c0.57816,0.04834 1.64454,0.65846 2.19218,0.96151l-0.64079,1.01451l-0.02409,0.22372c-0.22484,2.24422 -0.10118,6.11547 -0.09315,8.50294l0.02248,14.81916c0.00161,3.32778 0.01767,6.64224 -0.05621,9.97211c-0.03854,1.7939 -0.56852,3.85343 -0.54604,5.57521c0.14454,4.50032 -0.31156,8.79315 -0.67773,13.22537c-0.17024,2.08169 -0.12848,6.59085 0.05782,8.65359c0.39026,4.32125 0.30996,4.80273 -0.50428,8.99663c-0.40792,2.20054 -0.74518,4.41376 -1.01178,6.63597c-0.19593,1.71215 -0.45128,3.45177 -0.49625,5.17323c-0.05621,2.08731 0.13009,4.24176 -0.11724,6.31301c-0.32441,2.72024 -1.31531,8.26478 -0.87527,10.7584c0.95396,5.39502 -3.03373,13.37634 -4.37473,18.76124c-0.70021,2.8137 -0.31317,5.7318 -0.94272,8.59529c-0.90257,4.0969 -2.60814,7.82923 -3.75482,11.82173c-0.31156,1.08244 -0.16221,2.25964 -0.44486,3.37099c-1.00535,3.97163 -2.34797,7.80514 -3.60546,11.69647c-0.61831,1.90792 -1.06799,3.9652 -1.82602,5.81531c-0.92987,2.2757 -2.55353,4.25428 -3.5637,6.53158c-0.97002,2.18897 -1.50803,4.81638 -2.89882,6.76445c-0.8576,1.19968 -1.88704,2.2757 -2.74304,3.47698c-1.34422,1.89026 -2.2773,3.98126 -3.4288,5.97912c-0.56692,0.97966 -1.27195,1.91435 -1.78747,2.91809c-0.4834,0.94111 -0.35493,2.12634 -0.73876,3.11081c-1.05514,2.69968 -2.78801,5.3849 -4.16595,7.93522c-0.68415,1.26713 -1.20289,2.68041 -2.1167,3.803c-2.19861,2.70289 -5.16006,4.79711 -7.81317,7.03426c-1.70557,1.43897 -3.34208,3.01285 -5.09904,4.38276c-2.16006,1.68308 -4.37634,2.31906 -6.00642,4.69433l-0.16381,0.0546c-2.90846,1.00535 -5.68362,2.95021 -8.37045,4.47591c-0.80621,0.47056 -1.66542,1.18201 -2.48126,1.60278c-1.11938,0.57816 -2.72698,0.77088 -3.77088,1.45182c-3.31317,2.16649 -6.15096,4.02623 -10.11842,4.74893c-0.90546,0.16381 -2.44192,1.04711 -3.43233,1.26552c-1.70011,0.44004 -4.19936,1.05996 -5.92612,1.27837c-2.75252,0.25696 -5.64668,0.27944 -8.41734,0.22002c-3.21119,-0.07066 -6.62859,0.15096 -9.81761,-0.0803c-3.23833,-0.23287 -6.53464,-0.75964 -9.80187,-0.91381c-1.02623,-0.04818 -2.26333,-0.4015 -3.29663,-0.55246c-1.44845,-0.25696 -3.04946,-0.83994 -4.50305,-0.95396c-2.57794,-0.20075 -5.09727,-0.13169 -7.65626,-0.65203c-3.14631,-0.63758 -6.53383,-0.59904 -9.52307,-1.85171c-1.15616,-0.48501 -2.83635,-2.19861 -3.64095,-3.11242c-0.45145,-0.13651 -1.49309,-0.29069 -1.86552,-0.4818c-2.07768,-1.07281 -3.59823,-3.40471 -5.69855,-4.49197c-1.02591,-0.53158 -3.29325,-0.28587 -4.37859,-0.63758l-0.1508,-0.37099c0.02505,-0.09315 0.19063,-0.7243 0.18919,-0.78373c-0.01638,-0.63758 -1.12918,-1.26713 -1.73897,-1.76178c-1.34582,-1.15632 -3.42671,-1.85011 -4.73672,-2.99197c-1.84898,-1.61081 -3.4455,-3.60064 -5.36868,-5.18255c-1.04261,-0.85921 -1.73865,-2.72056 -2.63271,-3.78212c-1.13399,-1.34582 -2.42891,-2.56478 -3.45048,-3.99572c-2.12024,-2.9727 -3.78373,-6.19272 -5.29673,-9.5091c-0.63067,-1.46788 -1.03282,-3.106 -1.68854,-4.55621c-1.02463,-2.26767 -2.28726,-4.45343 -3.331,-6.71306c-0.68608,-1.48715 -1.05819,-3.13812 -1.72436,-4.61724c-1.0508,-2.33512 -2.49604,-4.53694 -3.38994,-6.9363c-0.49818,-2.0364 -0.89261,-4.09368 -1.41376,-6.12687c-0.29904,-1.16756 -0.6106,-2.35921 -0.89197,-3.52516c-0.39925,-1.65418 -0.9795,-3.4834 -1.14925,-5.17934c-0.21633,-2.60653 0.10776,-5.07976 -0.43233,-7.66221c-0.49898,-2.65792 -1.13688,-5.31424 -1.48988,-7.99625c-0.43924,-3.33565 -1.82586,-6.29229 -2.41991,-9.63437c-0.50203,-2.82495 -0.84973,-5.59208 -1.2281,-8.43308c-0.35733,-2.68522 -0.98319,-5.35921 -1.38373,-8.03961c-0.32907,-2.19861 -0.16269,-4.86328 -0.24636,-7.12532c-0.06938,-1.87741 -0.36745,-3.4916 -0.51552,-5.33945c-0.12639,-1.57677 0.00915,-3.30948 -0.17361,-4.90407c-0.18694,-1.63137 -0.7614,-3.22885 -0.95605,-4.84673l-2.23651,-20.16569c-0.29101,-2.6454 -0.81777,-5.49475 -0.98399,-8.13758c-0.19979,-3.18035 -0.47537,-6.29679 -0.82725,-9.46478c-0.23913,-2.15444 0.23849,-5.11285 -0.04593,-7.22955c-0.60209,-4.48105 -0.54315,-8.73485 -0.5727,-13.2379c-0.00418,-1.39995 -0.44518,-2.92404 -0.51633,-4.2954c-0.22805,-4.40364 -0.9652,-8.71767 -1.40027,-13.09786c-0.22163,-4.08357 0.14599,-8.4098 0.01204,-12.53046c1.87323,-0.28089 9.1985,-0.11836 11.61777,-0.11708l24.63581,-0.01124l51.17554,-0.02521c9.75064,0.00594 19.522,0.0318 29.27264,-0.01831c1.74973,-0.00899 2.62645,-0.56708 4.45407,-0.58844c5.31167,-0.06231 10.63651,-0.03549 15.94625,-0.05942c1.46627,-0.00675 5.57762,0.13812 6.82066,-0.06954z" fill="#fefefe"/><path d="M172.81638,51.92281c15.91221,0.20862 32.30782,0.0318 48.25857,0.0583l12.48983,-0.01686c2.39775,-0.00931 4.91916,-0.07982 7.30407,0.11884c0.57816,0.04834 1.64454,0.65846 2.19218,0.96151l-0.64079,1.01451l-0.02409,0.22372c-0.22484,2.24422 -0.10118,6.11547 -0.09315,8.50294l0.02248,14.81916c0.00161,3.32778 0.01767,6.64224 -0.05621,9.97211c-0.03854,1.7939 -0.56852,3.85343 -0.54604,5.57521c0.14454,4.50032 -0.31156,8.79315 -0.67773,13.22537c-0.17024,2.08169 -0.12848,6.59085 0.05782,8.65359c0.39026,4.32125 0.30996,4.80273 -0.50428,8.99663c-0.40792,2.20054 -0.74518,4.41376 -1.01178,6.63597c-0.19593,1.71215 -0.45128,3.45177 -0.49625,5.17323c-0.05621,2.08731 0.13009,4.24176 -0.11724,6.31301c-0.32441,2.72024 -1.31531,8.26478 -0.87527,10.7584c0.95396,5.39502 -3.03373,13.37634 -4.37473,18.76124c-0.70021,2.8137 -0.31317,5.7318 -0.94272,8.59529c-0.90257,4.0969 -2.60814,7.82923 -3.75482,11.82173c-0.31156,1.08244 -0.16221,2.25964 -0.44486,3.37099c-1.00535,3.97163 -2.34797,7.80514 -3.60546,11.69647c-0.61831,1.90792 -1.06799,3.9652 -1.82602,5.81531c-0.92987,2.2757 -2.55353,4.25428 -3.5637,6.53158c-0.97002,2.18897 -1.50803,4.81638 -2.89882,6.76445c-0.8576,1.19968 -1.88704,2.2757 -2.74304,3.47698c-1.34422,1.89026 -2.2773,3.98126 -3.4288,5.97912c-0.56692,0.97966 -1.27195,1.91435 -1.78747,2.91809c-0.4834,0.94111 -0.35493,2.12634 -0.73876,3.11081c-1.05514,2.69968 -2.78801,5.3849 -4.16595,7.93522c-0.68415,1.26713 -1.20289,2.68041 -2.1167,3.803c-2.19861,2.70289 -5.16006,4.79711 -7.81317,7.03426c-1.70557,1.43897 -3.34208,3.01285 -5.09904,4.38276c-2.16006,1.68308 -4.37634,2.31906 -6.00642,4.69433l-0.16381,0.0546c-2.90846,1.00535 -5.68362,2.95021 -8.37045,4.47591c-0.80621,0.47056 -1.66542,1.18201 -2.48126,1.60278c-1.11938,0.57816 -2.72698,0.77088 -3.77088,1.45182c-3.31317,2.16649 -6.15096,4.02623 -10.11842,4.74893c-0.90546,0.16381 -2.44192,1.04711 -3.43233,1.26552c-1.70011,0.44004 -4.19936,1.05996 -5.92612,1.27837c-2.75252,0.25696 -5.64668,0.27944 -8.41734,0.22002c-3.21119,-0.07066 -6.62859,0.15096 -9.81761,-0.0803c-3.23833,-0.23287 -6.53464,-0.75964 -9.80187,-0.91381c-1.02623,-0.04818 -2.26333,-0.4015 -3.29663,-0.55246c-1.44845,-0.25696 -3.04946,-0.83994 -4.50305,-0.95396c-2.57794,-0.20075 -5.09727,-0.13169 -7.65626,-0.65203c-3.14631,-0.63758 -6.53383,-0.59904 -9.52307,-1.85171c-1.15616,-0.48501 -2.83635,-2.19861 -3.64095,-3.11242l-0.01172,-0.36617c0.82661,0.01124 1.19855,0.14615 1.78731,-0.26981c0.19416,-0.60385 0.21697,-0.87366 0.30112,-1.50964c0.72125,-0.10278 0.86997,-0.10921 1.59347,-0.03533c-0.21183,0.65525 -0.95284,0.28105 -1.23019,1.16113c0.30915,0.90257 1.15118,1.46146 1.897,1.99304c1.15953,0.82548 7.44074,2.11188 9.29069,2.58887c1.03539,0.2682 2.71445,0.88972 3.66745,0.31638c1.70653,-1.02463 3.37837,1.32173 5.27554,0.94433c2.57971,-0.51392 9.21601,0.52355 12.16654,0.81103c4.36654,0.42719 8.59946,0.47056 12.98175,0.47698c2.2288,0.00161 4.51991,0.09957 6.73908,-0.10118c3.59133,-0.32762 7.63121,-1.09529 11.02291,-2.32548c2.41028,-0.87366 4.39416,-2.20021 6.64738,-3.33726c2.71734,-1.36991 4.53854,-1.84208 7.32655,-3.69058l-0.67773,-0.08833c-0.4031,-0.39186 -0.38062,-2.02195 -0.38062,-2.6242c-0.01606,-16.88704 -0.02891,-33.77891 0.01124,-50.66756c0.00482,-2.53266 0.58298,-5.03319 0.60225,-7.61724l0.01124,-32.83137c0,-8.32709 0.12045,-17.04604 -0.14293,-25.33667c-2.40257,4.32623 -2.99679,11.81258 -4.81317,16.51815c-0.94914,2.46039 -1.89668,5.84904 -2.61456,8.37366c-1.11456,3.92505 -0.73233,6.26981 -3.2666,9.77891c-2.03945,0.25696 -3.84074,0.53961 -5.13148,-1.45985c-3.38704,-5.24839 0.29952,-12.07227 1.71392,-17.38972c0.63501,-2.38651 1.02671,-4.67827 1.83517,-6.99732c0.74518,-2.63994 3.36183,-6.78421 3.77457,-9.30675c1.01178,-6.19914 2.50054,-11.65503 4.67827,-17.57248c0.63919,-1.7356 0.57976,-4.3402 1.13383,-6.15691c1.05353,-3.45 2.46199,-6.49946 3.18951,-10.06847c-0.33084,-2.46617 -0.47216,-7.39657 -0.30675,-9.91285c0.1879,-2.87409 0.60225,-5.18785 0.58619,-8.22045c-0.08191,-15.82853 0.17505,-31.78089 -0.04818,-47.59722c0.39668,-0.15835 0.91221,-0.12671 1.35385,-0.13763c-0.00964,-0.66681 -0.01445,-1.33378 -0.01445,-2.00059z" fill="#03b0fd"/><path d="M178.50803,101.43292c0.52195,0.00931 3.95878,-0.0273 4.29764,0.37468c0.83351,0.99122 1.50161,2.60493 2.08619,3.79336c0.6151,1.2493 1.23822,2.60332 1.77944,3.89213c0.72912,1.73672 1.04872,3.68945 1.69914,5.4599c1.09529,2.68073 2.36884,5.08715 3.44165,7.74315c0.73715,1.82505 1.18201,3.78228 1.91916,5.56108c1.01499,2.44625 2.23073,4.77109 3.16542,7.25252c0.70824,1.87998 1.15471,3.8242 1.89829,5.66354l10.20128,25.77479c2.2227,5.5969 6.20878,11.07495 4.28319,17.29497c-0.33084,0.01606 -1.42131,0.07066 -1.70717,0.1606c-1.9545,0.6167 -5.80407,2.20824 -7.66221,0.74358c-1.26552,-0.99732 -0.81263,-5.00589 -1.56263,-6.98126c-1.03105,-2.71253 -2.61296,-4.57066 -3.856,-7.10332c-0.60546,-1.23019 -0.94593,-3.43362 -1.394,-4.75054c-1.14507,-3.37259 -3.30514,-9.42816 -5.45236,-12.04127c-4.01499,-0.30321 -8.7848,0.02859 -12.87366,-0.07596c-2.03961,-0.05203 -4.1515,0.1349 -6.17505,-0.26515c-0.54764,-0.42222 -0.81745,-0.78453 -1.41488,-0.83399c-0.37901,0.39861 -0.27463,0.36488 -0.43522,0.97661c-2.40257,4.32623 -2.99679,11.81258 -4.81317,16.51815c-0.94914,2.46039 -1.89668,5.84904 -2.61456,8.37366c-1.11456,3.92505 -0.73233,6.26981 -3.2666,9.77891c-2.03945,0.25696 -3.84074,0.53961 -5.13148,-1.45985c-3.38704,-5.24839 0.29952,-12.07227 1.71392,-17.38972c0.63501,-2.38651 1.02671,-4.67827 1.83517,-6.99732c0.74518,-2.63994 3.36183,-6.78421 3.77457,-9.30675c1.01178,-6.19914 2.50054,-11.65503 4.67827,-17.57248c0.63919,-1.7356 0.57976,-4.3402 1.13383,-6.15691c1.05353,-3.45 2.46199,-6.49946 3.18951,-10.06847c1.30567,-2.99069 1.1515,-6.00562 2.33512,-9.03613c0.80621,-2.06708 2.15846,-3.3371 3.31317,-5.12554c0.7227,-1.11954 1.22056,-2.8985 1.61403,-4.19695z" fill="#fde901"/><path d="M181.35225,116.97896c0.58137,0.34529 0.73555,2.05102 1.08244,2.80054c2.20343,4.74636 3.63116,9.7023 4.90792,14.76231c0.31478,1.2469 0.0803,3.05348 0.41916,4.34566c0.85118,2.71269 1.39882,4.04807 1.76017,6.93003c-2.61456,-0.0705 -5.0637,-0.63421 -7.78266,-0.63951c-2.62741,0.00883 -6.51874,0.13908 -9.01927,-0.09925c1.05675,-2.55385 1.70717,-5.40771 2.5969,-7.99786c1.32816,-3.87382 2.25642,-7.46065 3.02088,-11.46713c0.43522,-2.28196 1.95771,-6.55262 3.01445,-8.6348z" fill="#03b0fd"/><path d="M238.79711,53.94138c0.93148,-0.00016 2.7848,-0.05846 3.62313,0.11772l-0.02409,0.22372c-0.22484,2.24422 -0.10118,6.11547 -0.09315,8.50294l0.02248,14.81916c0.00161,3.32778 0.01767,6.64224 -0.05621,9.97211c-0.03854,1.7939 -0.56852,3.85343 -0.54604,5.57521c0.14454,4.50032 -0.31156,8.79315 -0.67773,13.22537c-0.17024,2.08169 -0.12848,6.59085 0.05782,8.65359c0.39026,4.32125 0.30996,4.80273 -0.50428,8.99663c-0.40792,2.20054 -0.74518,4.41376 -1.01178,6.63597c-0.19593,1.71215 -0.45128,3.45177 -0.49625,5.17323c-0.05621,2.08731 0.13009,4.24176 -0.11724,6.31301c-0.32441,2.72024 -1.31531,8.26478 -0.87527,10.7584c0.95396,5.39502 -3.03373,13.37634 -4.37473,18.76124c-0.70021,2.8137 -0.31317,5.7318 -0.94272,8.59529c-0.90257,4.0969 -2.60814,7.82923 -3.75482,11.82173c-0.31156,1.08244 -0.16221,2.25964 -0.44486,3.37099c-1.00535,3.97163 -2.34797,7.80514 -3.60546,11.69647c-0.61831,1.90792 -1.06799,3.9652 -1.82602,5.81531c-0.92987,2.2757 -2.55353,4.25428 -3.5637,6.53158c-0.97002,2.18897 -1.50803,4.81638 -2.89882,6.76445c-0.8576,1.19968 -1.88704,2.2757 -2.74304,3.47698c-1.34422,1.89026 -2.2773,3.98126 -3.4288,5.97912c-0.56692,0.97966 -1.27195,1.91435 -1.78747,2.91809c-0.4834,0.94111 -0.35493,2.12634 -0.73876,3.11081c-1.05514,2.69968 -2.78801,5.3849 -4.16595,7.93522c-0.68415,1.26713 -1.20289,2.68041 -2.1167,3.803c-2.19861,2.70289 -5.16006,4.79711 -7.81317,7.03426c-1.70557,1.43897 -3.34208,3.01285 -5.09904,4.38276c-2.16006,1.68308 -4.37634,2.31906 -6.00642,4.69433l-0.16381,0.0546c-2.90846,1.00535 -5.68362,2.95021 -8.37045,4.47591c-0.80621,0.47056 -1.66542,1.18201 -2.48126,1.60278c-1.11938,0.57816 -2.72698,0.77088 -3.77088,1.45182c-3.31317,2.16649 -6.15096,4.02623 -10.11842,4.74893c-0.90546,0.16381 -2.44192,1.04711 -3.43233,1.26552c-1.70011,0.44004 -4.19936,1.05996 -5.92612,1.27837c-2.75252,0.25696 -5.64668,0.27944 -8.41734,0.22002c-3.21119,-0.07066 -6.62859,0.15096 -9.81761,-0.0803c-3.23833,-0.23287 -6.53464,-0.75964 -9.80187,-0.91381c-1.02623,-0.04818 -2.26333,-0.4015 -3.29663,-0.55246c-1.44845,-0.25696 -3.04946,-0.83994 -4.50305,-0.95396c-2.57794,-0.20075 -5.09727,-0.13169 -7.65626,-0.65203c-3.14631,-0.63758 -6.53383,-0.59904 -9.52307,-1.85171c-1.15616,-0.48501 -2.83635,-2.19861 -3.64095,-3.11242l-0.01172,-0.36617c0.82661,0.01124 1.19855,0.14615 1.78731,-0.26981c0.19416,-0.60385 0.21697,-0.87366 0.30112,-1.50964c0.72125,-0.10278 0.86997,-0.10921 1.59347,-0.03533c-0.21183,0.65525 -0.95284,0.28105 -1.23019,1.16113c0.30915,0.90257 1.15118,1.46146 1.897,1.99304c1.15953,0.82548 7.44074,2.11188 9.29069,2.58887c1.03539,0.2682 2.71445,0.88972 3.66745,0.31638c1.70653,-1.02463 3.37837,1.32173 5.27554,0.94433c2.57971,-0.51392 9.21601,0.52355 12.16654,0.81103c4.36654,0.42719 8.59946,0.47056 12.98175,0.47698c2.2288,0.00161 4.51991,0.09957 6.73908,-0.10118c3.59133,-0.32762 7.63121,-1.09529 11.02291,-2.32548c2.41028,-0.87366 4.39416,-2.20021 6.64738,-3.33726c2.71734,-1.36991 4.53854,-1.84208 7.32655,-3.69058c1.64293,-1.25589 3.39026,-1.72002 5.14561,-2.69486c2.39133,-1.32655 4.69914,-3.06424 6.94433,-4.62527c2.16488,-1.50321 4.36028,-2.98715 6.38544,-4.67827c2.00428,-1.67184 3.6697,-3.68094 5.95664,-4.96734c1.24625,-0.70021 1.96413,-1.65578 2.86028,-2.7318c1.67987,-2.01231 3.14775,-3.96842 4.22859,-6.37741c0.66006,-1.4727 1.18683,-3.06263 1.92077,-4.49358c0.46092,-0.89615 1.21895,-1.65578 1.61884,-2.57441c0.7773,-1.79229 1.16916,-3.73233 2.00107,-5.5166c1.42452,-3.05621 3.84636,-5.46842 5.58084,-8.3303c2.15203,-3.54925 3.69861,-7.36831 5.45396,-11.11028c1.02463,-2.18576 2.24036,-4.30246 3.14293,-6.53961c0.72109,-1.79069 0.9909,-3.67452 1.43897,-5.54069c0.38704,-1.61081 0.89936,-3.19593 1.34743,-4.79069c0.47859,-1.70236 0.92505,-3.42719 1.48073,-5.10707c0.4545,-1.37313 1.02141,-2.70931 1.43094,-4.09529c0.90739,-3.07548 1.58512,-6.3485 2.32709,-9.47859c0.79176,-3.34047 1.29283,-6.75321 1.99304,-10.11617c0.71627,-3.43683 1.62527,-6.72912 2.56317,-10.10717c0.3742,-1.34534 0.90899,-3.10262 0.87366,-4.49984c-0.03694,-1.5106 -0.30675,-2.94443 -0.15899,-4.47238c0.30193,-3.128 1.38919,-6.19256 1.73126,-9.33726c0.22163,-2.04363 0.11242,-4.13351 0.1863,-6.1879c0.07066,-1.9288 0.37901,-3.83367 0.49143,-5.75798c0.10278,-1.74267 -0.01285,-3.50942 0.11724,-5.24711c0.11081,-1.46965 0.92345,-2.98571 0.9379,-4.41617c0.00803,-0.81681 -0.30675,-1.64036 -0.33405,-2.47018c-0.11403,-3.62618 -0.07548,-7.35161 0.00161,-10.98051c0.04497,-2.07511 0.33726,-4.13319 0.4818,-6.20203c0.1606,-2.28148 0.06745,-4.57372 0.19272,-6.85696c0.11242,-2.06965 0.46574,-4.12115 0.56531,-6.1924c0.16542,-3.51376 0.37259,-31.25814 -0.45931,-32.47628c-0.1349,-0.19866 -0.73233,-0.26354 -0.97323,-0.32393z" fill="#191818"/><path d="M172.81638,51.92281c15.91221,0.20862 32.30782,0.0318 48.25857,0.0583l12.48983,-0.01686c2.39775,-0.00931 4.91916,-0.07982 7.30407,0.11884c0.57816,0.04834 1.64454,0.65846 2.19218,0.96151l-0.64079,1.01451c-0.83833,-0.17618 -2.69165,-0.11788 -3.62313,-0.11772c-1.22056,0.13763 -5.55193,0.03999 -6.97966,0.03903l-14.51178,-0.00658c-14.77195,-0.00353 -29.71895,0.13378 -44.47484,-0.05043c-0.00964,-0.66681 -0.01445,-1.33378 -0.01445,-2.00059z" fill="#191818"/><path d="M171.65685,51.90835l1.15953,0.01445c0,0.66681 0.00482,1.33378 0.01445,2.00059c-0.44165,0.01092 -0.95717,-0.02072 -1.35385,0.13763l-0.09315,-0.04465c-3.17987,-0.17987 -6.92827,-0.14663 -10.13865,-0.0599c-3.34224,0.09026 -7.52345,-0.2719 -10.74588,0.04706c-9.17666,0.90803 -18.26065,0.60594 -27.48646,0.6045l-29.89127,-0.01237l0.02891,28.00551c0.0008,4.01049 0.20846,10.67216 -0.03517,14.54486c0.13828,0.38351 4.14925,3.15739 4.83469,3.77232c6.15,5.5174 7.79117,13.15616 6.3697,21.08223c-0.1704,0.93806 -0.19224,3.32682 -0.41081,3.95685c-1.61531,4.65498 -6.81456,13.04711 -10.77463,15.78581l0.00803,9.2401c3.97548,0.86804 4.37554,3.86772 8.02709,4.84111c1.33988,4.09979 3.08207,5.28903 5.175,8.59416c0.67548,1.06799 0.2886,6.81263 0.24716,8.30621c-0.09652,0.82388 -0.41515,1.50803 -0.7614,2.23073c-1.9439,4.06638 -4.07698,8.34957 -7.73833,11.13437c-1.02928,0.78373 -4.15664,1.66542 -4.33892,2.59208c0.06215,7.93683 0.0795,15.87366 0.05203,23.81049l0.00193,41.05407l-0.01654,13.94325c-0.00193,1.32173 -0.0909,5.95503 0.15434,6.94593c-0.08415,0.63597 -0.10696,0.90578 -0.30112,1.50964c-0.58876,0.41595 -0.96071,0.28105 -1.78731,0.26981l0.01172,0.36617c-0.45145,-0.13651 -1.49309,-0.29069 -1.86552,-0.4818c-2.07768,-1.07281 -3.59823,-3.40471 -5.69855,-4.49197c-1.02591,-0.53158 -3.29325,-0.28587 -4.37859,-0.63758l-0.1508,-0.37099c0.02505,-0.09315 0.19063,-0.7243 0.18919,-0.78373c-0.01638,-0.63758 -1.12918,-1.26713 -1.73897,-1.76178c-1.34582,-1.15632 -3.42671,-1.85011 -4.73672,-2.99197c-1.84898,-1.61081 -3.4455,-3.60064 -5.36868,-5.18255c-1.04261,-0.85921 -1.73865,-2.72056 -2.63271,-3.78212c-1.13399,-1.34582 -2.42891,-2.56478 -3.45048,-3.99572c-2.12024,-2.9727 -3.78373,-6.19272 -5.29673,-9.5091c-0.63067,-1.46788 -1.03282,-3.106 -1.68854,-4.55621c-1.02463,-2.26767 -2.28726,-4.45343 -3.331,-6.71306c-0.68608,-1.48715 -1.05819,-3.13812 -1.72436,-4.61724c-1.0508,-2.33512 -2.49604,-4.53694 -3.38994,-6.9363c-0.49818,-2.0364 -0.89261,-4.09368 -1.41376,-6.12687c-0.29904,-1.16756 -0.6106,-2.35921 -0.89197,-3.52516c-0.39925,-1.65418 -0.9795,-3.4834 -1.14925,-5.17934c-0.21633,-2.60653 0.10776,-5.07976 -0.43233,-7.66221c-0.49898,-2.65792 -1.13688,-5.31424 -1.48988,-7.99625c-0.43924,-3.33565 -1.82586,-6.29229 -2.41991,-9.63437c-0.50203,-2.82495 -0.84973,-5.59208 -1.2281,-8.43308c-0.35733,-2.68522 -0.98319,-5.35921 -1.38373,-8.03961c-0.32907,-2.19861 -0.16269,-4.86328 -0.24636,-7.12532c-0.06938,-1.87741 -0.36745,-3.4916 -0.51552,-5.33945c-0.12639,-1.57677 0.00915,-3.30948 -0.17361,-4.90407c-0.18694,-1.63137 -0.7614,-3.22885 -0.95605,-4.84673l-2.23651,-20.16569c-0.29101,-2.6454 -0.81777,-5.49475 -0.98399,-8.13758c-0.19979,-3.18035 -0.47537,-6.29679 -0.82725,-9.46478c-0.23913,-2.15444 0.23849,-5.11285 -0.04593,-7.22955c-0.60209,-4.48105 -0.54315,-8.73485 -0.5727,-13.2379c-0.00418,-1.39995 -0.44518,-2.92404 -0.51633,-4.2954c-0.22805,-4.40364 -0.9652,-8.71767 -1.40027,-13.09786c-0.22163,-4.08357 0.14599,-8.4098 0.01204,-12.53046c1.87323,-0.28089 9.1985,-0.11836 11.61777,-0.11708l24.63581,-0.01124l51.17554,-0.02521c9.75064,0.00594 19.522,0.0318 29.27264,-0.01831c1.74973,-0.00899 2.62645,-0.56708 4.45407,-0.58844c5.31167,-0.06231 10.63651,-0.03549 15.94625,-0.05942c1.46627,-0.00675 5.57762,0.13812 6.82066,-0.06954z" fill="#01cd00"/><path d="M68.28501,93.88555c2.1962,-0.21569 4.55444,-0.05476 6.60851,-0.13779c8.03688,-0.32521 11.03688,0.65155 18.22179,3.39829c0.13828,0.38351 4.14925,3.15739 4.83469,3.77232c6.15,5.5174 7.79117,13.15616 6.3697,21.08223c-0.1704,0.93806 -0.19224,3.32682 -0.41081,3.95685c-1.61531,4.65498 -6.81456,13.04711 -10.77463,15.78581l0.00803,9.2401c3.97548,0.86804 4.37554,3.86772 8.02709,4.84111c1.33988,4.09979 3.08207,5.28903 5.175,8.59416c0.67548,1.06799 0.2886,6.81263 0.24716,8.30621c-0.09652,0.82388 -0.41515,1.50803 -0.7614,2.23073c-1.9439,4.06638 -4.07698,8.34957 -7.73833,11.13437c-1.02928,0.78373 -4.15664,1.66542 -4.33892,2.59208c-0.66552,0.41916 -0.94641,0.85439 -1.44042,1.46467c-3.75016,0.0803 -7.74106,0.01927 -11.50182,-0.00964c-1.96253,-0.01606 -4.49888,-0.52837 -6.5568,-0.57173c-2.66001,-0.05621 -5.30926,0.02891 -7.96397,-0.07869c-1.10011,-2.28212 -0.78389,-6.51552 -0.78421,-9.12366l0.0008,-11.00589c0.00177,-8.31585 -0.0151,-16.67714 0.03292,-24.99379c0.0114,-1.98581 0.6167,-4.32864 0.61445,-6.45594c-0.01301,-12.00835 -0.03132,-24.02329 -0.02425,-36.03116c0.00177,-2.88951 0.0334,-5.91745 2.15541,-7.99063z" fill="#fde901"/><path d="M93.14229,150.98335c-1.06301,-0.11676 -3.95284,-2.52784 -5.28276,-2.85128c-0.34143,-0.08303 -1.4902,-0.56146 -1.73945,-0.80669l0.08175,-0.27446c1.13865,-0.63164 2.67414,-0.46815 3.67789,-1.14829c1.36815,-0.92714 1.88126,-3.51745 3.25455,-4.15937z" fill="#01cd00"/><path d="M71.96627,100.13287c1.74395,0.21601 2.95343,0.52901 4.59925,1.04133c8.35937,2.60219 13.94052,3.69283 16.51975,12.97179c1.22939,1.20498 2.83282,5.00573 1.65,6.52243c-0.74438,0.18935 -0.70455,0.04497 -1.04582,0.52195c-0.0758,1.2204 0.22677,2.81419 -0.70905,3.61542c-2.07703,5.53587 -9.42511,12.59406 -14.94797,14.81467c-1.90455,0.76574 -3.00707,0.11868 -6.0493,1.66188c-0.16204,-13.49309 -0.10648,-27.64481 -0.01686,-41.14946z" fill="#01cd00"/><path d="M93.08528,114.14599c1.22939,1.20498 2.83282,5.00573 1.65,6.52243c-0.74438,0.18935 -0.70455,0.04497 -1.04582,0.52195c-0.0758,1.2204 0.22677,2.81419 -0.70905,3.61542c0.33453,-3.32136 0.18887,-7.29299 0.10487,-10.6598z" fill="#fefefe"/><path d="M71.37479,154.7462c5.26702,0.84684 6.96296,2.19299 11.17612,5.02372c3.23801,2.17548 4.21188,3.20332 7.06092,5.86445l2.17966,0.31959c1.1091,0.91863 1.75439,1.53051 2.08683,2.93897c2.97077,2.05246 2.53282,4.82762 2.46039,7.9834c-0.60064,0.6424 -1.73945,2.04604 -2.49379,2.2243c-0.17843,1.36349 -2.4053,2.12955 -3.54989,2.42024c-0.28763,0.72591 -0.57334,1.34101 -0.90369,2.04443c-3.2629,0.52837 -7.14941,-0.22163 -10.3765,-0.40632c-2.43228,-0.13972 -5.21162,-0.09315 -7.67184,-0.11403c-0.14085,-3.51552 -0.04577,-7.66863 -0.04481,-11.22109c-0.02762,-5.69165 -0.00209,-11.38539 0.07661,-17.07768z" fill="#01cd00"/><path d="M93.87832,168.89293c2.97077,2.05246 2.53282,4.82762 2.46039,7.9834c-0.60064,0.6424 -1.73945,2.04604 -2.49379,2.2243c-0.10712,-2.45396 -0.15675,-7.7939 0.0334,-10.20771z" fill="#fefefe"/><path d="M171.65685,51.90835l1.15953,0.01445c0,0.66681 0.00482,1.33378 0.01445,2.00059c-0.44165,0.01092 -0.95717,-0.02072 -1.35385,0.13763l-0.09315,-0.04465c-3.17987,-0.17987 -6.92827,-0.14663 -10.13865,-0.0599c-3.34224,0.09026 -7.52345,-0.2719 -10.74588,0.04706c-9.17666,0.90803 -18.26065,0.60594 -27.48646,0.6045l-29.89127,-0.01237c-0.13988,-0.76172 -0.01429,-0.77586 -0.45257,-1.2469c-0.7439,0.19127 -0.52757,1.12034 -1.35546,1.20787c-1.43303,0.15145 -3.09604,0.04143 -4.53469,0.04143l-11.51579,0.02473l-45.16204,-0.02634c-1.69079,6.42254 0.40037,13.64807 0.65043,20.0833c0.07211,4.00037 -0.00225,8.01087 -0.01654,12.01445c-0.0098,2.71831 0.4227,5.13903 0.59181,7.81943c0.16783,2.87762 -0.05926,5.92468 0.19111,8.78431c0.12703,1.44941 0.30514,3.85921 0.63565,5.23201c1.54898,6.43073 1.9023,12.91172 2.57987,19.46788c0.27302,2.64283 0.719,5.32372 0.99989,7.96991c0.58635,7.32173 0.94015,14.75653 1.76146,22.05369c0.29181,2.59256 1.03137,5.59898 1.41825,8.23603c0.46751,3.1879 0.90112,6.38865 1.43785,9.5637c0.40567,2.32709 0.53528,4.7666 0.94914,7.08405c0.31397,1.75696 1.21188,3.60707 1.70685,5.32227c1.40476,4.86938 1.91868,9.7243 2.07832,14.76874c0.05444,1.72002 0.72206,3.79336 0.89663,5.52463c0.48613,5.26767 1.39079,9.27623 4.32125,13.73448c0.38544,0.58779 0.47007,2.20824 0.85407,2.88919c1.23116,2.47805 2.56285,4.88383 3.76783,7.37794c0.85439,1.76981 1.3182,3.95075 2.18207,5.69325c1.70396,3.43844 3.24716,6.96842 4.84465,10.44379c0.70953,1.54336 2.65824,2.97912 3.6281,4.38758c4.29411,6.20236 8.78785,10.43897 15.27173,14.23073c1.78587,1.0455 3.47441,2.29015 5.43951,3.1863c1.86103,0.84797 3.76863,1.39079 5.64299,2.17773c-0.02762,0.74358 -0.15546,2.94379 -0.07773,3.57334l0.01172,0.36617c-0.45145,-0.13651 -1.49309,-0.29069 -1.86552,-0.4818c-2.07768,-1.07281 -3.59823,-3.40471 -5.69855,-4.49197c-1.02591,-0.53158 -3.29325,-0.28587 -4.37859,-0.63758l-0.1508,-0.37099c0.02505,-0.09315 0.19063,-0.7243 0.18919,-0.78373c-0.01638,-0.63758 -1.12918,-1.26713 -1.73897,-1.76178c-1.34582,-1.15632 -3.42671,-1.85011 -4.73672,-2.99197c-1.84898,-1.61081 -3.4455,-3.60064 -5.36868,-5.18255c-1.04261,-0.85921 -1.73865,-2.72056 -2.63271,-3.78212c-1.13399,-1.34582 -2.42891,-2.56478 -3.45048,-3.99572c-2.12024,-2.9727 -3.78373,-6.19272 -5.29673,-9.5091c-0.63067,-1.46788 -1.03282,-3.106 -1.68854,-4.55621c-1.02463,-2.26767 -2.28726,-4.45343 -3.331,-6.71306c-0.68608,-1.48715 -1.05819,-3.13812 -1.72436,-4.61724c-1.0508,-2.33512 -2.49604,-4.53694 -3.38994,-6.9363c-0.49818,-2.0364 -0.89261,-4.09368 -1.41376,-6.12687c-0.29904,-1.16756 -0.6106,-2.35921 -0.89197,-3.52516c-0.39925,-1.65418 -0.9795,-3.4834 -1.14925,-5.17934c-0.21633,-2.60653 0.10776,-5.07976 -0.43233,-7.66221c-0.49898,-2.65792 -1.13688,-5.31424 -1.48988,-7.99625c-0.43924,-3.33565 -1.82586,-6.29229 -2.41991,-9.63437c-0.50203,-2.82495 -0.84973,-5.59208 -1.2281,-8.43308c-0.35733,-2.68522 -0.98319,-5.35921 -1.38373,-8.03961c-0.32907,-2.19861 -0.16269,-4.86328 -0.24636,-7.12532c-0.06938,-1.87741 -0.36745,-3.4916 -0.51552,-5.33945c-0.12639,-1.57677 0.00915,-3.30948 -0.17361,-4.90407c-0.18694,-1.63137 -0.7614,-3.22885 -0.95605,-4.84673l-2.23651,-20.16569c-0.29101,-2.6454 -0.81777,-5.49475 -0.98399,-8.13758c-0.19979,-3.18035 -0.47537,-6.29679 -0.82725,-9.46478c-0.23913,-2.15444 0.23849,-5.11285 -0.04593,-7.22955c-0.60209,-4.48105 -0.54315,-8.73485 -0.5727,-13.2379c-0.00418,-1.39995 -0.44518,-2.92404 -0.51633,-4.2954c-0.22805,-4.40364 -0.9652,-8.71767 -1.40027,-13.09786c-0.22163,-4.08357 0.14599,-8.4098 0.01204,-12.53046c1.87323,-0.28089 9.1985,-0.11836 11.61777,-0.11708l24.63581,-0.01124l51.17554,-0.02521c9.75064,0.00594 19.522,0.0318 29.27264,-0.01831c1.74973,-0.00899 2.62645,-0.56708 4.45407,-0.58844c5.31167,-0.06231 10.63651,-0.03549 15.94625,-0.05942c1.46627,-0.00675 5.57762,0.13812 6.82066,-0.06954z" fill="url(#color-1)"/><path d="M171.65685,51.90835l1.15953,0.01445c0,0.66681 0.00482,1.33378 0.01445,2.00059c-0.44165,0.01092 -0.95717,-0.02072 -1.35385,0.13763l-0.09315,-0.04465c0.04176,-0.62136 0.04979,-1.56247 0.27302,-2.10803z" fill="#2e8bc6"/><path d="M148.09031,73.91981c4.02366,-0.31221 8.48688,0.0795 12.55262,-0.05942c3.4015,-0.11627 4.09208,1.19582 3.82227,4.24352c-0.2136,2.39229 -3.0546,2.02195 -3.36456,2.46488c-2.356,3.35043 -3.08929,1.9879 -6.55471,2.44288c-0.86916,0.11884 -2.23956,4.15327 -2.97848,5.10707c-1.60278,2.06852 -3.64577,4.21285 -5.43822,6.16269c-1.65161,1.38678 -7.50996,2.62323 -9.71403,4.44379c-0.54829,1.03908 -0.11274,11.21097 -0.25182,13.18153c-0.19963,2.82848 -0.72976,5.82543 -1.06044,8.66081c-0.34529,2.96113 -0.24026,6.78597 -0.14036,9.77007c6.05316,1.06799 9.34641,0.62152 15.36424,0.7561c-0.01381,-2.86397 -0.11949,-7.19679 0.10889,-9.97082c2.41895,-1.09946 4.08373,-1.27018 6.71403,-0.69475c0.60931,4.0553 0.25375,8.54117 0.25198,12.63774c-0.00161,3.41676 0.29358,7.1523 -0.15209,10.53806c-0.14663,1.11408 -1.23935,6.75225 -2.01103,7.34952c-1.08999,0.22709 -4.05016,0.10423 -5.08683,-0.31622c-0.82693,-0.95075 -0.49224,-10.5045 -0.48292,-12.51263c-2.69261,-0.00851 -5.37816,0.27559 -8.00942,0.84716c-1.85862,0.4121 -3.62987,0.97163 -5.51547,1.21301c0.08126,3.44663 0.14117,7.54593 -0.06938,10.96044c-0.1023,2.31408 -0.99861,5.06001 -1.03394,7.32495c-0.13956,8.97414 -1.59042,17.86012 -1.36879,26.82479c4.24802,2.01874 2.21997,4.90792 4.56215,7.84529c2.95278,3.71949 7.02623,1.19486 10.83067,1.5546c2.45219,0.16221 2.8439,1.79711 2.56172,3.95396c-0.26483,2.02516 -2.81724,2.71574 -4.33603,3.81906c-3.17554,1.73287 -11.21017,-0.14293 -13.62543,-2.88919c-0.91494,-1.03908 -1.63362,-2.92612 -2.87907,-3.66167c-4.08613,-0.59422 -8.32677,2.91488 -11.46456,5.15043c-4.21221,0.12687 -8.42521,-0.04176 -12.63597,0.15899c-0.06087,-1.83565 -0.05139,-3.67131 0.02843,-5.50375c4.62238,-1.26071 7.21285,-3.38704 10.87725,-6.16542c1.73544,-1.31531 6.19786,-2.71413 8.32227,-3.09154c-0.02409,-2.24036 -0.06408,-5.04283 0.08704,-7.23501c0.53785,-5.14561 1.03651,-10.07762 1.21911,-15.24893c0.1879,-5.32516 -1.00359,-9.85905 -1.2909,-15.06039c-0.21328,-3.85873 0.08849,-8.01103 0.022,-11.88951c-0.03469,-2.02018 0.5189,-4.29716 0.42848,-6.35509c-0.06585,-2.81595 -1.00455,-5.56156 -1.08726,-8.40787c-0.18132,-6.23897 0.18646,-12.44711 -0.51761,-18.66922c-0.18597,-1.64309 -0.15048,-3.37339 -0.25664,-5.03624c-3.19914,-1.82345 -4.05434,-1.17446 -6.77586,-2.40964c-4.44572,-2.01745 -6.20942,-7.86922 -9.16012,-11.57393c-0.0591,-2.16633 -0.2136,-4.51783 -0.06745,-6.66809c0.1879,-2.7636 2.35519,-2.94363 4.48442,-2.72827c3.31349,2.07382 3.54909,5.18576 5.55546,8.01825c3.27896,4.62912 10.90343,8.87602 16.61547,7.0561c2.84358,-0.90594 3.12864,-8.86783 5.02147,-10.98662c2.02259,-1.36317 5.69872,-4.44251 7.6818,-5.26253z" fill="#fde901"/><path d="M180.47537,2.81899c2.3576,0.25135 2.77677,4.54789 3.3469,6.2096c0.9106,2.39011 2.33351,4.51725 3.24893,6.90454c0.41916,1.09347 1.33137,6.79829 2.88276,6.85386c2.5712,0.09234 5.47484,-0.42125 8.12152,-0.3363c0.92024,0.02955 2.02837,-0.08978 2.96146,-0.12318c1.64775,-0.07484 6.1863,-1.73223 7.30086,-0.08255c0.14936,0.62393 -0.07227,1.03683 -0.27944,1.66269c-1.11296,0.94625 -2.36242,1.25364 -3.44968,2.07752c-0.91542,0.65782 -1.7955,1.82682 -2.69165,2.45573c-2.93576,2.06113 -5.84904,4.77382 -8.91488,6.58763c1.26713,2.33126 5.89561,6.56772 5.40257,9.53785c-0.20717,0.28892 -0.38223,0.58426 -0.80942,0.63067c-2.03158,0.22131 -6.45771,-1.59764 -8.17612,-2.48785c-6.32602,-2.87216 -6.06906,-2.89979 -12.74839,-0.803c-1.49197,0.46863 -9.17827,2.74465 -10.13223,2.21724c-0.62313,-1.99176 0.61991,-4.77206 1.00696,-6.781c0.14775,-0.77666 0.17666,-1.61692 0.20878,-2.40835c-2.77195,-0.29743 -5.69968,-1.32334 -8.39052,-2.05857c-0.79127,-0.21617 -1.85717,-0.53094 -2.0886,-1.37184c0.59229,-2.70915 7.10332,-6.10021 9.19593,-8.1053c4.34261,-4.1576 6.90418,-10.54895 10.42291,-15.4589c1.24304,-1.73465 1.8758,-3.78731 3.58137,-5.12051z" fill="#03b0fd"/><path d="M80.55691,1.71793c0.19979,0.04919 0.41178,0.13198 0.55423,0.29359c0.40327,0.45718 4.36317,9.19174 4.92254,10.60945c0.4031,1.02156 1.22345,4.22785 1.88078,4.85354c0.48597,0.46285 10.55171,-1.42887 12.09379,-1.42779c0.71194,0.0005 1.20626,0.03989 1.70894,0.55108c0.10021,1.48009 -3.04433,3.47875 -3.76975,4.54673c-1.59491,2.34764 -4.19534,4.51574 -5.88453,6.53978c-1.07554,1.28865 2.65102,5.61408 3.27398,6.93838c0.72286,1.5371 1.82248,3.55423 2.29754,5.25915c0.15032,0.52789 -0.01975,0.77762 -0.27414,1.12468c-2.0894,0.43394 -10.45054,-3.96119 -12.61124,-5.00444c-5.38587,-2.20551 -9.34738,1.65851 -14.23025,3.23319c-1.2363,0.39861 -3.30385,1.33924 -4.33153,0.21424c-0.79802,-1.93089 2.05262,-7.0985 2.70707,-9.26579l0.06424,-0.21777c-1.41488,-0.21472 -10.66253,-2.31986 -10.50418,-3.99058c1.82152,-2.33656 7.98903,-5.85578 10.10701,-7.95578c1.28528,-1.27452 2.9295,-4.74593 4.13512,-6.3996c0.68929,-0.94531 2.48785,-2.74274 2.9258,-3.52327c1.09256,-1.94698 2.6091,-5.48857 4.93458,-6.37879z" fill="#01cd00"/></g></svg></svg>