<svg id="svg" version="1.1" viewBox="0 0 300 279.0291262135922" width="300" height="279.0291262135922" xmlns="http://www.w3.org/2000/svg"><svg xmlns="http://www.w3.org/2000/svg"><defs><clipPath id="clip-1"><rect x="0" y="0" transform="scale(0.14648,0.14647)" width="2048" height="1905" fill="none"/></clipPath></defs><g clip-path="url(#clip-1)" fill="none" fill-rule="nonzero" stroke="none" stroke-width="1" stroke-linecap="butt" stroke-linejoin="miter" stroke-miterlimit="10" stroke-dasharray="" stroke-dashoffset="0" font-family="none" font-weight="none" font-size="none" text-anchor="none" style="mix-blend-mode: normal"><path d="M130.0749,23.3428c8.13633,-0.20711 16.37974,0.07866 24.52617,-0.03676c0.63721,-0.00893 1.71094,-0.02051 2.31152,0.07836c7.00781,1.15332 13.98193,2.5139 21.01025,3.57377c3.38672,0.51353 6.52295,2.24131 9.67822,3.50112c4.51611,1.80263 9.03076,3.61288 13.49268,5.54528c2.84473,0.97404 4.73145,3.10228 7.13232,4.7328c4.77832,3.24509 9.57861,6.48798 14.24268,9.90385c0.97998,0.75887 1.8208,1.72324 2.78027,2.49808c5.24707,4.2389 9.81299,9.36571 14.6001,14.11126c1.48096,1.46897 2.4624,3.5039 3.60059,5.23154c1.08398,1.64664 2.17969,3.28302 3.20654,4.9632c0.52295,0.87707 0.70459,1.9264 1.24072,2.79747c1.87354,2.85459 3.73535,5.71285 5.37891,8.70908c3.32959,6.34297 5.61035,13.08669 8.47412,19.63721c1.19678,2.85078 1.64502,5.91805 2.18262,8.93142c1.0415,5.82607 2.37451,11.60219 3.35742,17.43632c0.2124,1.25175 -0.06152,2.91303 0.12012,4.21004c0.10107,1.09078 0.51123,2.17277 0.55225,3.26735c0.22266,5.80864 -0.95947,11.57085 -1.27441,17.35796c-0.04687,1.00773 -0.41748,2.23663 -0.43359,3.22238c-0.14648,8.80004 -4.30225,16.94241 -6.52002,25.3045c-1.73437,6.53558 -5.33057,11.79539 -8.35986,17.76412c-0.49365,0.97257 -1.68896,2.00081 -2.146,3.05541c-0.76318,1.56579 -1.32568,3.00853 -1.91895,4.63877c-0.54492,1.24794 -2.79199,3.75115 -3.74561,4.87166l-7.13379,8.31961c-1.82812,2.17071 -3.58008,4.64316 -5.5708,6.65276c-1.32275,1.33436 -14.20605,11.87448 -14.97656,12.14985c-1.77979,0.63422 -3.375,2.5574 -4.98193,3.61346c-1.89697,1.24501 -4.4165,2.49442 -6.44238,3.63397c-2.53125,1.42224 -5.19434,2.66725 -7.7915,3.96646c-2.36426,1.18496 -4.75488,2.49881 -7.22021,3.46113c-3.19775,1.24648 -6.83496,1.85287 -10.16748,2.70387c-4.30078,1.1 -8.54004,2.5325 -12.91113,3.36739c-1.14258,0.21824 -2.31738,0.28123 -3.47021,0.43356c-1.1499,0.15087 -2.25,0.37497 -3.41895,0.39108c-2.87842,0.00439 -4.69189,0.1538 -7.54541,0.52437c-1.33154,0.18163 -3.31934,-0.08788 -4.56738,0.16698c-5.18936,1.06192 -9.55254,0.13036 -14.69663,-0.48336c-5.53901,-0.65912 -11.3521,-1.14395 -16.8356,-2.28496c-2.8103,-0.70014 -5.61079,-2.04621 -8.31943,-2.9353c-7.29741,-2.39482 -14.36968,-4.56846 -20.79741,-8.92014c-1.65308,-1.11905 -3.70254,-2.04328 -5.37686,-3.1887c-1.40244,-0.95939 -2.84561,-1.9847 -4.26899,-2.92358c-2.79038,-1.38709 -4.08076,-1.60973 -6.41572,-3.84196c-1.82065,-1.74009 -4.04956,-3.32052 -5.79375,-5.25688c-0.76025,-0.79241 -2.19478,-1.63023 -2.8853,-2.41972c-2.10483,-2.408 -5.23784,-4.34436 -7.29478,-6.6718c-2.79111,-3.15794 -5.29746,-6.85049 -7.86899,-10.21935c-2.5021,-3.27658 -5.08198,-6.63225 -7.3103,-10.09192c-0.72026,-1.18349 -1.09146,-2.67311 -1.7127,-3.87858c-1.37314,-2.66725 -2.50283,-5.37259 -3.72437,-8.09697c-1.36743,-3.04955 -3.25591,-6.02879 -4.47451,-9.14425c-0.61538,-1.57457 -1.0626,-3.75408 -1.47832,-5.42386l-2.02046,-8.09258c-0.78779,-3.13743 -1.8126,-6.60296 -2.53154,-9.64225c-0.62139,-2.62478 -0.01479,-8.20536 -0.21958,-11.08646c-0.07441,-1.04727 -0.51475,-2.72438 -0.53335,-3.60175c-0.03955,-1.84848 -0.09346,-4.07602 -0.04072,-5.9267c0.05039,-1.76601 -0.08745,-4.56861 0.07427,-6.22872c0.42466,-4.35959 1.25889,-8.79945 1.87192,-13.16227c0.46377,-3.30001 0.96709,-7.99693 1.74668,-11.12338c0.55005,-2.20616 2.2708,-6.19796 3.11396,-8.49069c1.46133,-3.97335 3.00513,-8.16435 4.62451,-12.05875c0.61582,-1.48098 2.51587,-4.22044 3.37471,-5.80498c0.67529,-1.24574 1.45093,-3.18708 2.09795,-4.24476c1.5873,-2.58435 3.19863,-5.17398 4.8731,-7.69886c1.18096,-1.78066 1.90723,-3.65301 3.53525,-5.15508c0.60322,-0.70585 1.4127,-1.38885 1.98677,-2.10436c2.30918,-2.87759 4.89346,-5.528 7.56724,-8.07119c1.55625,-1.48025 2.53081,-3.06844 3.98276,-4.5459c0.65581,-0.66733 2.22905,-1.74038 3.03047,-2.34604c2.82876,-2.10627 5.69033,-4.16815 8.58369,-6.18478c1.71929,-1.22114 3.45088,-2.44916 5.15171,-3.70384c1.58203,-1.1066 3.24111,-2.94731 4.93916,-3.85163c4.87427,-2.59607 10.16836,-4.61094 15.20537,-6.86617c2.5752,-1.15303 5.1624,-2.4493 7.80322,-3.4106c1.72793,-0.62895 4.04165,-1.06456 5.84238,-1.45154l8.76885,-1.87118c2.95796,-0.65986 6.12393,-1.65543 9.13403,-2.18492z" fill="#000000"/><path d="M131.82363,25.74113c66.28477,-7.27512 125.89805,40.60555 133.0875,106.89393c7.18799,66.28853 -40.77393,125.83379 -107.07715,132.93621c-66.18135,7.08778 -125.59775,-40.76315 -132.77344,-106.92894c-7.17583,-66.1655 40.60107,-125.63942 106.76309,-132.90121z" fill="#fe68b2"/><path d="M81.13228,63.48682l0.19438,0.08554c0.29634,0.4857 0.16084,0.74686 0.28799,1.43337c0.80068,0.51294 8.49199,0.16932 9.76099,0.06899c12.62432,-1.05035 25.5123,-0.02622 38.17061,-0.4441c5.46123,-0.18031 11.35693,-0.94987 16.83501,-1.11026c2.89512,-0.08481 6.6041,0.95104 9.57041,1.03146c4.49414,0.12157 8.87256,0.16405 13.34766,0.66381c8.82275,0.28738 17.86816,-0.26306 26.68652,0.02534c5.77148,0.58955 11.39063,0.67055 17.19141,0.56831c2.03174,-0.03574 5.01563,-0.2222 6.82471,0.6997c0.08057,0.2326 0.1582,0.46607 0.23291,0.70043c0.83203,2.60544 0.42627,4.76561 0.52441,7.32785c0.271,7.00429 -0.12158,13.14103 -2.25,19.85896c-0.66797,2.10802 -0.86426,5.30595 -1.41504,7.56088c-0.5874,2.3976 -0.23291,5.37186 -0.50098,7.8323c-0.81738,4.17592 -1.604,7.7825 -1.85596,12.08599c-0.479,3.56703 -1.05762,7.12161 -2.03027,10.58978c-1.27588,4.55088 -2.56934,9.35077 -3.95947,13.84849c-1.7168,4.28445 -2.69678,8.3593 -3.61523,12.86185c-0.46436,2.28203 -1.40918,5.56008 -2.10645,7.81867c-0.95068,3.08763 -2.3833,5.97459 -3.08936,9.20137c-0.31641,1.43982 -1.27002,3.15647 -1.59082,4.65341c-0.96387,2.95873 -1.20996,7.5272 -2.50781,10.27501c-1.32861,2.80933 -3.40283,6.01414 -4.86768,8.86009c-1.49854,2.66433 -3.72217,5.6172 -5.4082,8.28446c-2.49463,3.94742 -5.15771,8.93186 -8.46973,12.24945c-0.80273,0.80267 -3.01025,2.13849 -4.05762,2.9353c-1.39893,1.06339 -3.26514,2.6863 -4.8501,3.27804c-2.32178,0.86565 -5.28223,1.53356 -7.73145,1.97298c-1.34912,0.24168 -3.12158,0.19041 -4.50293,0.34567c-4.69775,0.45406 -10.03374,0.79095 -14.73955,0.34567c-4.37944,-0.41452 -8.98462,-1.90414 -13.46382,-2.29522c-3.18896,-0.2783 -7.0002,-1.15127 -9.99229,-2.27617c-2.91738,-1.09561 -5.62866,-4.13344 -7.87119,-6.24117c-3.83437,-3.82145 -6.84009,-8.5027 -9.44897,-13.21617c-0.84023,-1.76645 -1.31484,-3.84635 -1.99614,-5.65089c-1.76675,-4.67832 -2.70322,-8.9553 -3.65684,-13.7962c-0.49775,-2.50321 -1.12954,-4.97858 -1.89272,-7.41295c-0.51812,-1.63609 -2.07319,-3.72478 -2.82246,-5.71094c-2.63159,-6.97793 -4.81128,-14.08035 -5.92793,-21.47279c-0.28638,-1.89535 -0.20098,-3.93863 -0.39507,-5.85361c-0.21387,-2.39277 -0.55327,-4.73471 -0.79629,-7.10067c-0.47212,-4.59644 -2.04932,-8.62837 -2.37788,-13.32456c-0.27349,-3.90729 -0.20479,-8.00557 -0.19131,-11.93161c0.01772,-5.1835 -0.06138,-10.46469 0.02095,-15.63149c0.07134,-4.48512 1.94839,-7.97642 1.77598,-12.90814c-0.1418,-4.05522 -0.80596,-6.4537 -1.53662,-10.37798c-0.29268,-1.57238 -0.28491,-3.93336 -0.28901,-5.5589c-0.00571,-2.17262 -0.08672,-3.13919 0.78325,-5.14937z" fill="#000000"/><path d="M143.51997,91.4719c3.95171,-0.05625 12.43608,0.48629 16.22417,1.54836c5.85645,2.12648 12.73682,6.26431 17.04346,10.70578c5.17822,5.34183 7.67725,10.81168 9.74268,17.78243c1.93506,6.52943 2.03906,7.35538 0.06006,13.99364c-1.60107,5.36849 -2.5459,10.54496 -5.88281,15.26736c-4.18359,6.12839 -9.04395,8.94065 -15.11279,12.60391c-7.125,4.30042 -10.49414,3.53876 -18.19482,4.75155c-4.29214,0.65912 -15.15161,-1.80307 -19.52856,-3.3088c-1.28804,-0.4482 -2.5377,-1.00187 -3.73623,-1.6522c-2.56304,-1.36365 -5.73706,-3.90494 -7.92363,-5.95555c-7.81509,-7.33092 -12.34438,-17.88701 -12.98862,-28.52703c-0.10474,-1.72939 0.78149,-7.52471 1.45723,-9.17281c1.95293,-4.7621 5.10981,-10.59417 8.53403,-14.48666c0.86206,-0.97975 3.31538,-2.92505 4.42632,-3.89205c4.46074,-3.88283 8.74819,-6.74621 14.54546,-8.22982c1.17715,-0.30115 2.89995,-0.28152 4.10962,-0.50753c2.60068,-0.48599 4.56665,-0.84558 7.22446,-0.92058z" fill="#fe7200"/><path d="M144.57729,98.48571c5.46079,-0.50547 11.71714,0.11396 16.29917,3.28683c1.98486,1.37537 2.59277,2.59168 4.06055,4.42009c1.01221,1.26288 2.58105,2.46952 3.62109,3.74705c3.11865,3.50376 5.1416,9.45872 5.06982,14.05853c-0.14795,9.48772 -1.25684,18.48271 -7.17041,26.26741c-1.30957,1.72544 -2.58545,3.74382 -4.46924,4.95661c-1.02979,0.66205 -2.16797,1.13516 -3.18311,1.81625c-4.69043,3.49482 -6.27979,4.39562 -12.01465,5.40189c-1.47012,0.1787 -5.03848,0.23436 -6.62344,-0.07031c-4.85596,-0.93596 -10.30664,-3.14622 -14.72988,-5.39896c-0.92388,-0.47018 -2.68198,-2.3538 -3.21401,-3.16965c-1.39863,-2.14728 -3.65522,-6.40961 -4.09175,-8.87635c-0.88359,-4.99206 -0.35405,-10.96006 -0.47139,-16.1043c-0.06929,-3.04164 -0.11675,-6.81519 0.15161,-9.78477c0.17886,-1.97898 1.43013,-4.91663 1.95308,-6.90498c0.19321,-0.73441 0.20845,-1.61002 0.34028,-2.41239c1.98647,-0.55777 2.32852,-1.10689 3.84272,-2.42118c5.97407,-5.18525 12.80962,-7.89557 20.62954,-8.81175z" fill="#000000"/><path d="M145.96289,100.24499c4.25537,-0.53243 10.14697,0.68578 13.604,3.26178c2.08008,1.55011 3.12744,3.0081 4.75342,5.00568c0.94775,1.22099 2.39648,2.38793 3.29004,3.60995c3.78223,5.17559 4.90137,11.36139 3.82178,17.61575c-0.42334,2.45004 -0.42773,4.71098 -1.00635,7.21462c-1.18359,5.11641 -3.76611,9.34359 -6.67529,13.63508c-1.43262,2.49295 -3.97705,3.14915 -5.97656,4.62119c-4.27734,3.14915 -6.94336,4.67392 -12.39932,5.50442c-6.25386,0.40866 -12.22852,-2.51053 -17.81367,-4.99323c-3.8313,-1.702 -5.25674,-5.06354 -6.60718,-8.57154c-2.11538,-5.49504 -1.40757,-9.89653 -1.52534,-15.5461c-0.19307,-9.27256 -0.7522,-19.26121 8.46182,-24.63322c1.37051,-0.93273 2.77661,-2.09792 4.2646,-2.82266c3.89312,-1.89608 9.49146,-3.54506 13.80806,-3.90172z" fill="#fead89"/><path d="M128.97231,143.25839c0.22236,-0.01758 0.92344,-0.06005 1.08706,0.05771c0.98892,0.71215 2.30684,2.50848 3.2187,3.1925c3.1374,2.35088 6.92695,4.85408 11.03789,4.29016c3.97896,-0.54634 7.00093,-2.59695 9.43696,-5.60036c0.0498,-0.99542 -0.18018,-1.50324 0.79395,-2.01267c1.25977,0.13007 1.04883,1.13779 1.02979,2.11608l-0.03662,1.61397c-1.99658,1.81918 -3.65332,3.58563 -6.18164,4.58164c-2.53857,0.99894 -4.98867,1.36512 -7.70508,1.10586c-1.21685,-0.11718 -2.78862,-0.28562 -3.8729,-0.80706c-2.17061,-1.04435 -10.30093,-5.476 -8.80811,-8.53785z" fill="#000000"/><path d="M131.13384,127.00073c2.11846,-0.15673 3.67266,0.93889 5.07715,2.49061c0.85605,0.94577 0.80786,1.57326 0.64585,2.77271c-0.51152,0.03779 -0.87231,0.12289 -1.33125,-0.08715c-1.27559,-2.188 -2.87842,-2.02205 -4.3894,-3.72039c-0.21899,-0.50225 -0.08892,-0.88821 -0.00234,-1.45579z" fill="#000000"/><path d="M157.78711,115.33057c1.2832,-0.10063 2.33496,-0.16625 2.99707,1.13838c0.57275,1.13252 0.06738,2.40053 -1.04297,2.93764c-1.29785,0.12553 -2.53125,0.15936 -3.07324,-1.24501c-0.41162,-1.06441 0.04248,-2.38369 1.11914,-2.83101z" fill="#000000"/><path d="M128.24209,114.15206c0.39639,-0.02607 1.37271,-0.09594 1.71768,0.06723c1.7332,0.81951 1.76689,3.35597 -0.08525,4.0747c-0.45059,0.02563 -1.5,0.08364 -1.87617,-0.13534c-1.61748,-0.94123 -1.65718,-3.36153 0.24375,-4.00659z" fill="#000000"/><path d="M151.28906,128.7562c0.69434,-0.0438 1.67285,-0.11718 2.32617,0.06064c0.3252,0.42081 0.30469,0.40221 0.41895,0.92893c-0.2666,0.82801 -1.32422,0.82024 -2.08301,0.82566c-1.50879,0.01055 -1.39893,0.39474 -2.53711,1.20722c-0.65332,0.37101 -1.52051,0.85671 -2.0918,0.16346c-0.07031,-1.62408 2.62646,-2.84434 3.9668,-3.18591z" fill="#000000"/><path d="M87.10972,111.68371c1.56958,0.32927 1.45107,4.63335 1.48301,5.95247c0.66196,0.02256 1.34517,0.0706 2.00845,0.1081c0.32578,-0.75243 1.24849,-2.14347 1.73877,-2.86836l0.23511,-0.00981c1.1644,1.39104 0.08232,2.10451 1.00942,3.24816c0.50566,0.20477 0.50083,0.17972 1.02085,0.14574c0.49673,-0.87239 0.96489,-2.83921 1.19092,-3.85587c0.92725,2.12282 1.60415,3.84753 1.88687,6.19401c0.55503,2.98276 -0.17388,6.67414 0.1897,9.59318c0.65552,5.26259 0.58711,10.26446 0.62739,15.54595c0.01465,1.90355 0.46948,3.96295 0.47842,5.84804c0.01992,4.1598 0.1563,8.41335 0.00659,12.5673c1.60107,0.18163 3.10986,0.88616 4.35981,1.0048c4.85977,0.46432 8.92559,1.53796 13.5126,3.32052c0.67222,0.27683 2.85176,0.75287 3.08145,1.3285c-0.74751,0.41159 -4.33052,0.17577 -5.49946,0.28709c-1.22695,-0.04541 -3.45337,0.63276 -4.58452,0.47603c-5.2771,-0.73822 -10.67139,-0.48629 -15.98774,-0.52144c-1.53647,-3.2385 -2.6061,-7.63119 -3.35859,-11.17581c-0.83101,-3.91373 -1.45049,-8.09697 -2.4769,-11.97555c-1.11211,-4.20272 -0.48501,-8.10532 -0.68789,-12.36971c-0.23643,-3.72361 -0.68027,-7.44327 -0.68657,-11.20247c-0.11689,-3.53964 -1.2542,-8.33323 0.45234,-11.64086z" fill="#01cd00"/><path d="M178.82227,167.70895c2.63232,-1.14395 9.6665,-5.40335 11.46387,-7.82893c1.05322,-1.42224 1.35352,-6.39057 1.58057,-8.47194c0.82324,-6.97177 1.5,-13.9601 2.0332,-20.96029c0.22119,-3.09407 0.20654,-6.03333 0.55811,-9.18438c0.43213,-3.88737 -0.0498,-7.0453 2.91211,-10.19928c0.46582,0.36706 0.94922,0.78319 1.40918,1.16431c-0.50537,0.85012 -1.12939,2.72599 -0.5376,3.61434c2.3584,0.89114 1.61719,-2.90117 3.61377,-3.44766c0.92578,0.17811 1.35205,0.75843 1.97607,1.44084c0.09814,1.20385 -0.01758,3.41221 0.21387,4.37732c1.16455,1.42195 1.30518,0.31609 1.48535,2.48827c-0.1582,0.95661 -2.13428,7.78777 -2.50049,8.56861c-3.80859,8.0939 -5.19141,16.55148 -7.32568,25.12595c-1.12207,4.50694 -3.08057,8.63745 -4.20117,13.37875c-4.13232,-0.1245 -8.48291,0.01611 -12.68115,-0.06591z" fill="#01cd00"/><path d="M109.5542,68.82865c0.77388,-0.04526 2.11069,0.25442 2.98608,0.34699c1.4064,0.14867 2.53872,0.15511 3.95303,0.15394c0.00396,1.15464 0.00088,2.30928 -0.00894,3.46392c-1.16807,0.61591 -1.6002,0.7807 -2.62324,1.62935c2.39956,1.83837 3.94585,4.34231 2.89849,7.41324c-1.08926,1.7581 -5.94902,2.08459 -7.79458,2.06174c-0.14575,-4.1308 -0.12305,-10.02996 0.07456,-14.27033c0.01069,-0.23143 0.3479,-0.61577 0.5146,-0.79886z" fill="#fe68b2"/><path d="M110.84209,74.92628c1.79253,0.57915 3.90659,3.4938 4.67227,5.20283c-0.5373,0.40148 -0.95801,0.61577 -1.54087,0.93552c-0.9665,0.42037 -2.21016,0.86126 -3.22031,1.26772c-0.06167,-2.17101 -0.24727,-5.37435 0.08892,-7.40606z" fill="#000000"/><path d="M110.71509,71.06865c1.31865,-0.04013 2.60186,0.01406 3.91831,0.05698c-0.39932,0.31872 -0.85752,0.63393 -1.27485,0.93405c-0.83818,0.42243 -1.80747,1.12461 -2.59233,0.40001c-0.17593,-0.54136 -0.10283,-0.80735 -0.05112,-1.39104z" fill="#000000"/><path d="M172.7168,75.14818c1.44727,-0.197 3.41309,0.47633 5.03174,0.74422c1.37109,2.26372 1.16309,3.90157 1.09277,6.5117c-0.54492,0.60581 -1.02393,1.19814 -1.76514,1.5113c-0.54346,0.01333 -1.08838,0.01626 -1.63184,0.00879c-1.94385,-0.03589 -2.78027,-0.63891 -4.05176,-1.95013c-0.34717,-1.63961 -0.75,-3.02728 -0.76318,-4.70014c0.68408,-0.77161 1.34766,-1.40789 2.0874,-2.12575z" fill="#fe68b2"/><path d="M173.03613,77.49379l2.51367,-0.01963c0.74561,0.60068 0.9082,0.74598 1.50879,1.49621c0.05127,0.70116 0.39551,2.43627 -0.45996,2.53719l-1.3374,0.78187c-0.82471,-0.80179 -1.19678,-1.09927 -2.17676,-1.65806c-0.11426,-1.0048 -0.06592,-2.11755 -0.04834,-3.13758z" fill="#000000"/><path d="M178.69189,90.38947c0.84814,-0.09521 3.6958,1.92977 4.68457,2.45765l0.13623,0.07148c0.00146,3.03197 -0.18457,5.42254 -1.49561,8.25619c-0.82764,1.79018 -1.06934,1.47175 -1.54102,3.48896l-0.17139,0.08451l-0.74561,-1.34549l0.10107,-0.23538c0.78369,-0.0769 0.80127,0.01157 0.91553,-0.74701c0.04102,-1.58761 0.04688,-3.17595 0.01611,-4.76371c-0.77197,-0.9364 -1.13965,-1.31166 -2.04346,-2.10671c-1.78125,-0.15248 -4.91455,-0.04599 -6.85547,-0.07324c2.63232,-2.9498 3.47314,-3.43653 6.99902,-5.08726z" fill="#fe7200"/><path d="M145.04355,183.52061c3.11367,-0.03076 6.22793,-0.03222 9.34072,-0.00586l-0.00586,1.74595l-7.58057,-0.00586c-0.02637,1.54089 -0.00439,3.08616 -0.00146,4.62705c2.72168,0.08202 5.45947,0.02929 8.18408,0.06591c0.00439,0.60786 0.06738,1.08829 -0.24609,1.61559c-0.57568,0.30027 -1.47363,0.13036 -2.11377,0.09521c-1.93652,0.01758 -3.87158,0.01172 -5.80811,-0.02051c-0.03369,1.71958 -1.25742,5.39456 -0.79014,6.5971c0.04644,0.12011 0.10254,0.23582 0.14077,0.35739c0.10869,0.3486 0.03882,0.60493 -0.11997,0.92277c-0.22852,0.15965 -0.29648,0.24607 -0.58286,0.27976c-0.41235,0.0498 -0.78179,-0.09521 -1.08354,-0.37643c-0.44546,-0.41452 -0.58784,-1.01212 -0.57114,-1.6024c0.04966,-1.76499 0.85869,-3.49922 1.06787,-5.25688c0.352,-2.95727 0.14575,-6.05808 0.17007,-9.03879z" fill="#fe68b2"/><path d="M164.57959,71.64706c0.74707,-0.08217 1.77832,0.07895 1.61865,1.06441c-1.75781,2.22169 -3.71484,-0.10605 -5.34668,5.32763c0.7002,1.91571 1.35938,4.62031 3.62256,5.3184c1.04297,-0.13988 1.03711,-1.13662 1.04297,-2.10275c0.00439,-0.67333 0.05566,-2.52327 -0.33838,-3.13538c-0.05127,-0.08012 -0.43213,0.12099 -0.82178,-0.27141c-0.03076,-0.43693 -0.14795,-1.11084 0.05713,-1.44582c0.57861,-0.14691 2.19287,-0.22044 2.69531,0.05317l0.06445,0.55235l0.0249,8.0416c-3.79834,0.09535 -6.07471,0.45201 -7.4751,-3.69695c-1.6582,-4.91326 -0.12012,-8.18544 4.85596,-9.70523z" fill="#fe68b2"/><path d="M130.58628,72.67588c2.02896,0.16346 2.73794,0.62192 4.50615,1.586c0.05625,1.24164 0.36533,1.43264 1.17202,2.38647c0.13008,2.65261 0.77739,4.40031 -2.48203,4.347c-1.10889,-0.14515 -2.10937,-0.42199 -3.17036,-0.75843c-0.86733,-1.10938 -1.45151,-1.99744 -2.41714,-3.14695c-0.05464,-0.7016 -0.05039,-1.41902 -0.05918,-2.12414c0.73491,-0.86477 1.4373,-1.75312 2.45054,-2.28994z" fill="#fe68b2"/><path d="M131.72813,75.22332c0.42363,0.14457 1.03564,0.469 1.45679,0.67362c0.70811,1.20898 1.61104,2.07771 0.7437,3.28244c-1.87427,-0.69691 -3.79248,-1.85185 -2.20049,-3.95606z" fill="#000000"/><path d="M130.57925,183.41954c0.34102,-0.00586 0.54272,-0.02197 0.85356,0.14061c0.24829,0.32077 0.36167,0.46871 0.41074,0.88616c-0.58213,1.25966 -3.34087,1.52038 -4.53413,2.14289c-1.5126,0.78948 -2.1145,2.33769 -2.58779,3.86686c0.88652,2.84888 1.33125,4.84676 3.64482,6.9208c1.40508,0.15673 3.03164,-0.19334 4.37168,0.13622c0.4043,0.0996 0.51445,0.18455 0.72949,0.53316c-0.03091,0.51265 0.06299,0.81438 -0.31318,1.18056c-1.52095,-0.02051 -3.04497,0.04248 -4.57061,0.01172c-3.54404,-0.07177 -4.98647,-4.43078 -5.49756,-7.34118c-0.91802,-5.22905 2.83945,-7.78352 7.49297,-8.4778z" fill="#fe68b2"/><path d="M124.81641,84.56369c2.22891,-0.18441 3.47461,-0.12933 5.52861,0.80765c2.02354,0.92307 2.73281,2.44725 4.03169,4.10663c-3.86118,-2.46527 -6.71455,-3.20905 -10.70918,-0.42418c-3.33032,2.75865 -1.17144,4.57227 -2.27622,6.53543l-0.23291,0.0104c-0.7084,-0.64667 -1.35571,-2.41737 -1.60005,-3.34293c-0.62695,-2.37563 0.69771,-5.12051 2.56597,-6.59226c0.95361,-0.75111 1.56021,-0.85349 2.69209,-1.10074z" fill="#fe7200"/><path d="M149.3584,71.67343c4.05469,-0.28196 6.00439,0.41759 6.22412,5.21382c0.03223,0.70512 0.08936,3.41997 -0.14795,3.89703c-0.39258,0.30071 -0.70459,0.22527 -1.21143,0.21312c-0.7998,-0.4816 -0.30762,-3.41646 -0.70459,-4.52408c-0.43799,-1.22641 -0.76318,-1.75591 -1.4458,-2.84698c-0.26953,-0.21165 -0.1875,-0.14471 -0.53467,-0.25603c-0.63281,0.0933 -1.08838,0.4548 -1.64502,0.79944c-0.22852,1.51393 -0.74854,2.68703 -1.06641,4.09565c-0.14062,0.62705 0.66504,1.36937 0.24463,2.58391c-1.32861,0.93859 -2.58853,-0.84134 -2.27637,-2.2794c0.46582,-2.14992 0.84375,-5.4199 2.56348,-6.89649z" fill="#fe68b2"/><path d="M127.979,89.23542c1.31294,-0.46959 3.57407,1.21235 4.51978,1.9992c-2.26772,0.38332 -2.76123,1.27606 -5.70483,1.45813c-1.43145,0.27771 -1.81055,0.86506 -3.01348,1.12461l-0.2335,-0.16097c-0.30176,-2.3746 2.5355,-3.82922 4.43203,-4.42096z" fill="#fe68b2"/><path d="M172.98633,97.30412c1.22754,-0.04995 2.63086,-0.02314 3.87158,-0.02885c1.58789,1.57179 2.49609,2.01545 1.65967,4.38493c-0.19336,0.08569 -0.43799,0.16669 -0.62402,0.04013c-1.20264,-0.82215 -4.42383,-3.26047 -4.90723,-4.39621z" fill="#fe68b2"/><path d="M204.04541,118.21329l0.3208,-0.12494c0.22705,-1.20473 0.63135,-2.45648 1.66113,-3.23146c0.52295,-0.09345 0.27979,-0.12933 0.75732,0.12113c0.56689,1.071 -0.25488,2.06218 -0.93311,2.80757l-0.16699,0.18075c-0.01465,0.793 0.00293,1.99597 -0.15381,2.73522c-0.18018,-2.17218 -0.3208,-1.06632 -1.48535,-2.48827z" fill="#10bd0a"/><path d="M83.31826,212.56014c0.62241,0.05859 0.98599,0.19334 1.43584,0.63276c2.2311,2.1839 2.67861,7.0204 2.71128,9.99964c1.51714,-0.08935 3.05493,-0.06298 4.57529,-0.08056c0.0397,0.7514 0.00044,1.47497 -0.0542,2.22491c-3.35054,3.09935 -2.12666,2.63357 -3.47256,6.25435c-0.57539,1.54821 -1.91177,2.39921 -3.32856,3.08031c-0.37705,0.11425 -0.71221,0.1787 -1.10391,0.2241c-0.68467,-0.23582 -3.75923,-5.5176 -4.81216,-6.622c-0.82998,-0.86858 -2.47339,-1.806 -2.98682,-2.85181c-0.17695,-0.36179 -0.19966,-0.62104 -0.07661,-1.0048c0.44854,-1.39734 3.03501,-2.71706 4.24863,-3.39669c-0.02886,-0.56831 -0.09331,-1.20107 -0.00703,-1.76352c0.08042,-0.5229 1.42617,-6.14157 1.5356,-6.30708c0.4144,-0.31199 0.8313,-0.32663 1.33521,-0.38962z" fill="#fce901"/><path d="M194.53857,219.91743c0.28418,0.04394 0.54053,0.10253 0.78516,0.26365c1.84717,1.2289 4.97168,5.56008 5.38184,7.68099c1.61865,-0.09521 3.25635,-0.06152 4.87939,-0.07177c0.03955,0.82903 0.0293,1.65953 0.03076,2.48856c-0.04102,0.04687 -0.08203,0.09228 -0.12305,0.13915c-1.0459,1.19668 -2.50195,1.90707 -3.6123,3.0349c-1.32715,1.34901 -1.82959,4.32092 -2.7334,6.09909c-0.20215,0.31345 -0.44092,0.67524 -0.74854,0.89201c-0.36035,0.25486 -0.74854,0.35739 -1.18359,0.2534c-1.29492,-0.31199 -2.83301,-5.07379 -3.58887,-6.3686c-0.96387,-1.6522 -3.60937,-2.07551 -4.41797,-3.78777c0.11572,-1.21425 1.71826,-1.94661 2.29688,-3.00707c1.29932,-2.37724 1.70068,-5.25102 3.03369,-7.61654z" fill="#fce901"/><path d="M96.5499,40.17726c1.7814,-0.08334 1.92964,0.16961 3.04219,1.50061c0.04438,0.89509 0.01875,2.00418 0.02153,2.91684c1.61924,0.63056 2.28896,0.97638 3.45352,2.24834c0.05889,1.92201 1.05396,5.83647 0.48091,6.97661c-0.854,0.79402 -4.19971,0.94416 -5.49507,1.02545l-0.26396,-1.27724c-1.47393,-3.69505 -3.30527,-5.14292 -4.44346,-9.25176c-0.11265,1.1416 0.12539,2.73478 -0.50156,3.52016c-2.26113,0.72606 -2.84326,-6.0449 3.70591,-7.65902z" fill="#000000"/><path d="M96.6958,47.20689c1.19531,-0.03471 2.23022,-0.01933 3.42715,0.01699c0.57451,0.8696 1.31221,2.66711 1.23369,3.73635c-0.06167,0.83797 -0.27524,0.96144 -0.8855,1.5217c-0.28521,0.30217 -0.26455,0.30906 -0.63398,0.48482c-0.23027,-0.25838 -0.52573,-1.33202 -0.69023,-1.77744c-0.53159,-1.43865 -1.8334,-2.71076 -2.45112,-3.98243z" fill="#fe68b2"/><path d="M96.67881,42.46662c0.47798,0.16844 1.02949,0.76605 1.42412,1.13501c-0.58696,0.70058 -1.37212,1.70786 -2.23228,2.0178c-0.41865,-1.17075 -0.50347,-0.88689 -1.25171,-1.81435c0.24316,-0.45216 1.51436,-1.04127 2.05986,-1.33846z" fill="#fe68b2"/><path d="M122.03159,235.80085c0.39639,-0.00879 0.69946,-0.00439 1.08267,0.12597c1.36685,1.53356 2.15815,7.46275 2.15215,9.57634c2.39546,-3.67645 3.32021,-3.98697 4.19678,-8.49098c0.12173,0.00146 0.2436,0.00293 0.36548,0.00586c0.67734,0.01611 1.48857,-0.04101 1.96465,0.53316c0.49658,0.59907 0.67998,1.90121 0.86118,2.65114c1.11636,4.6168 1.34209,6.87539 1.36611,11.59619c0.00571,1.10293 0.11338,2.34648 -0.07837,3.43037c-0.06606,0.37204 -0.09082,0.40573 -0.38394,0.61665c-0.33018,0.03515 -0.58857,-0.01025 -0.87026,-0.20506c-0.23423,-0.16258 -0.43521,-0.46871 -0.48926,-0.74994c-0.16831,-0.87444 0.02842,-2.06086 0.03501,-2.97485c0.02007,-2.79615 -0.08101,-5.29789 -0.75674,-8.02813c-0.28887,-0.9755 -0.46289,-1.91146 -0.57422,-2.92212c-1.09307,2.51785 -2.82686,4.14809 -4.76733,6.02146c-0.86455,0.03662 -1.73965,0.00879 -2.60522,0.00439c-0.02812,-2.304 -0.48047,-4.32678 -1.1584,-6.52386c-1.20879,3.30734 -2.89116,6.35103 -4.23311,9.59391c-0.31509,0.76165 -0.65845,1.42517 -1.45137,1.74009c-0.34497,-0.04248 -0.43726,-0.04394 -0.64907,-0.35886c-0.34629,-0.51265 -0.16084,-1.557 0.00366,-2.10041c0.44268,-1.46179 1.33975,-2.76393 2.04873,-4.10561c0.94131,-1.78256 1.89932,-3.67645 2.70044,-5.52346c0.53496,-1.23476 0.82793,-2.62771 1.24043,-3.91227z" fill="#000000"/><path d="M101.38887,232.41002c0.61655,0.0249 1.59038,0.03222 2.00449,0.57417c0.83774,1.1 0.89092,6.45795 0.89253,7.96954c1.2873,-2.18243 3.01904,-4.73397 4.89932,-6.45502c0.52749,-0.48189 1.39512,-0.3237 2.071,-0.30027c0.05142,3.42451 0.00601,6.85196 0.01641,10.27647c0.00703,2.29229 0.15864,4.67539 -0.08979,6.94863c-0.10913,0.08202 -0.27612,0.21824 -0.40239,0.26365c-0.37734,0.13475 -0.56997,0.02197 -0.89751,-0.13475c-0.23745,-0.31052 -0.3457,-0.56245 -0.39595,-0.95353c-0.14019,-1.09122 -0.00132,-2.34795 0.00542,-3.4582c0.03091,-2.39335 0.02183,-4.78817 -0.02754,-7.18299c-0.0041,-0.5229 -0.01963,-1.01798 -0.09844,-1.53503l-0.21606,-0.03076c-1.67139,1.24062 -2.42651,3.3337 -3.85679,4.83358l-0.17842,0.18455c-0.86294,0.10107 -1.70112,0.10839 -2.5689,0.0996c-0.07529,-1.92757 0.44253,-5.15435 -0.51753,-6.83292l-0.22207,-0.04687c-1.82212,2.00667 -3.25093,4.01773 -4.70771,6.29244c-0.45059,0.70307 -0.95537,1.6815 -1.82183,1.87338c-0.39097,-0.09374 -0.45601,-0.13329 -0.75059,-0.40866c-0.10049,-0.249 -0.17871,-0.44088 -0.16729,-0.71625c0.03501,-0.83489 3.13198,-5.7666 3.8814,-6.67326c0.63311,-0.76605 1.43833,-1.41053 2.14189,-2.11213c0.84492,-0.84368 1.02114,-1.29921 1.00635,-2.47538z" fill="#000000"/><path d="M148.81934,236.39992c0.26807,0.05566 0.47461,0.14208 0.71924,0.26365c0.32666,0.53609 0.21094,1.23476 0.19482,1.84408c-0.84961,0.88762 -3.84756,3.5373 -3.93105,4.57725c2.10439,1.46033 5.21572,4.12319 6.87246,6.0654c-0.00293,0.4526 0.02051,0.94328 -0.06445,1.38855c-0.07764,0.40426 -0.13623,0.40719 -0.46582,0.61811c-1.74902,0.11278 -3.31201,-3.04515 -4.47363,-4.12758c-0.87891,-0.82024 -2.07744,-1.47351 -3.11045,-2.08283c-0.80874,0.64887 -1.39907,1.42371 -2.01255,2.24834c-0.7853,1.0048 -1.59712,2.91333 -2.55645,3.64129c-0.34819,0.26365 -0.57847,0.24607 -0.99727,0.21971c-0.30498,-0.21824 -0.40342,-0.25779 -0.46802,-0.65327c-0.28872,-1.77231 3.34131,-5.44436 4.3377,-7.06141l0.12568,-0.20653c-0.89253,-1.17763 -2.42314,-2.22784 -3.08511,-3.508c-0.22148,-0.4277 -0.13726,-0.7514 -0.00659,-1.1791c0.21123,-0.21092 0.28682,-0.3486 0.61509,-0.31491c1.23999,0.12597 2.873,2.24102 3.70796,3.15061c1.2353,-1.53503 2.64873,-4.21253 4.59844,-4.88338z" fill="#000000"/><path d="M166.22461,237.57023c0.12305,0.02051 0.37207,0.05712 0.48193,0.09814c0.27832,0.104 0.35742,0.27976 0.44678,0.54634c0.44092,1.32557 -1.37988,3.76726 -1.93945,4.91267c-0.26514,0.54488 -0.60059,0.89494 -1.02393,1.31532l0.99463,0.7265c1.44141,1.06632 5.43604,4.12319 5.62354,5.95409c0.03955,0.39108 -0.07031,0.63422 -0.30176,0.94328c-0.1875,0.09374 -0.33105,0.13622 -0.54199,0.13329c-0.21387,-0.00146 -0.56543,-0.00586 -0.75439,-0.11425c-0.55518,-0.31931 -1.31836,-1.56432 -1.76367,-2.09308c-1.08838,-1.29042 -2.32178,-2.46659 -3.5127,-3.65887l-0.84814,0.96818c-0.86279,1.35194 -1.17041,3.60175 -2.37158,4.54649c-0.27686,0.05859 -0.33252,0.11278 -0.60645,0.00732c-0.4248,-0.43795 -0.52148,-0.85979 -0.5127,-1.46618c0.03369,-2.20587 1.60693,-4.20082 3.12012,-5.65235c-0.94189,-1.40027 -2.06982,-3.00707 -2.47852,-4.66513c-0.09961,-0.40426 -0.1333,-0.74701 0.09814,-1.11465c0.23145,-0.10107 0.41455,-0.17284 0.67529,-0.16405c1.28027,0.03662 1.52637,2.00667 2.3335,2.72584c0.38379,-0.15673 1.01514,-1.84262 1.27588,-2.31279c0.42773,-0.77337 0.70459,-1.37977 1.60547,-1.63609z" fill="#000000"/><path d="M190.00049,48.33766c2.37012,-0.15438 3.86133,0.99337 6.0249,1.83925c0.89063,0.34772 1.70215,0.82185 1.53809,1.92303c-0.89062,0.98722 -2.625,-0.19115 -3.49951,0.05258c-0.7749,1.00861 -2.44043,5.54514 0.05127,5.47615c1.06934,-0.02959 1.31982,0.96071 0.87451,1.70215c-0.44092,0.25398 -1.00781,0.14325 -1.53809,0.11103c-1.43408,-0.2739 -2.91357,-0.93244 -4.32129,-1.37025c-1.08252,-0.33718 -3.56396,-0.89494 -2.51367,-2.52283c1.04736,-0.35446 3.26221,0.50709 4.3916,0.85657c0.00439,-2.8647 0.84814,-3.3545 1.05322,-5.43118c-0.61084,-1.37054 -1.26123,-0.36559 -2.07715,-1.14307c-0.24316,-0.48219 -0.08203,-0.94738 0.01611,-1.49343z" fill="#000000"/><path d="M71.11304,54.80322c0.74297,-0.09858 1.69907,-0.29456 1.86211,0.63129c-0.39639,1.41228 -3.3999,2.76759 -4.10317,4.14633c-1.05146,2.6447 2.09165,3.36739 4.05396,3.26808c1.93652,-0.09799 4.16543,-3.47798 5.51338,-2.76451c0.31421,0.46432 0.2417,1.03233 0.24932,1.61222c-0.06987,0.21854 -1.76558,2.01033 -2.02075,2.27105c-2.61079,0.55205 -6.68467,1.4533 -9.00806,-0.61504c-0.99346,-0.8844 -0.70693,-3.30763 -0.66357,-4.60127c1.19004,-2.02981 2.05869,-2.89077 4.1168,-3.94815z" fill="#000000"/><path d="M215.15039,54.76836c0.63428,-0.02168 2.69385,-0.21063 3.25781,0.2512c1.19092,0.9758 0.98438,3.86129 -0.98877,3.84181c-0.82471,-0.00806 -1.90723,0.04277 -2.8418,0.1018c0.32227,0.48936 0.67383,0.95851 1.05322,1.40467c0.98145,1.16914 1.64063,1.9368 3.17871,2.07023c0.32227,0.30964 0.20801,0.47018 0.24902,0.92878c0.10254,1.14746 -2.51807,0.71771 -3.21973,0.67201c-0.93896,-0.83548 -1.7666,-1.6916 -2.64404,-2.5864c-0.12598,-1.95892 -0.2124,-3.21682 0.96387,-4.91091c0.36914,-0.53125 0.7749,-1.16548 0.9917,-1.77319z" fill="#000000"/><path d="M89.75728,47.77242c3.62593,-0.16317 2.82861,4.20287 2.88765,6.70109c0.075,3.17244 -0.22852,3.32301 -3.23203,3.20774c-1.62627,-1.57223 -2.17881,-2.16266 -3.40767,-4.06474c-0.48149,-0.77645 -0.96167,-1.52902 -1.00723,-2.45223c0.21299,-0.50474 0.03809,-0.33483 0.52705,-0.54224c1.67476,0.05932 2.48247,2.66169 3.60059,3.80944c0.67793,0.69589 0.80303,0.79476 1.58965,1.34227c0.16274,-1.20004 0.22412,-2.39423 0.01084,-3.59003c-0.34614,-1.94061 -1.32437,-2.4433 -0.96885,-4.4113z" fill="#000000"/><path d="M80.99707,51.05178c0.07368,0.03896 0.29209,0.22234 0.36709,0.28211c0.71836,3.40635 3.88755,3.89366 3.70693,8.06314c1.01396,-0.00527 1.91396,-0.23289 2.36147,0.81702c-0.1147,0.95383 -0.64951,1.33143 -1.33315,1.99597c-0.99565,0.38903 -1.68076,-0.13812 -2.5812,-0.57358c-0.51475,-2.45194 -1.63726,-4.17284 -2.83931,-6.30035c-0.98643,-1.7458 -1.37534,-3.00561 0.31816,-4.28431z" fill="#000000"/><path d="M173.60596,235.33653c0.54492,-0.01025 1.0415,-0.02344 1.57617,0.09814c0.30908,0.62104 0.18896,1.99788 0.2373,2.72291c0.11279,1.64927 0.36621,3.2883 0.45703,4.93757c0.14648,2.64089 0.05859,5.32719 0.06006,7.97247c-0.55078,0.01318 -1.18359,0.10839 -1.68164,-0.15526c-0.25049,-2.02424 -0.04102,-4.19642 -0.14355,-6.2441c-0.15674,-3.14768 -0.5874,-6.16208 -0.50537,-9.33173z" fill="#000000"/><path d="M199.90723,54.13868c1.35791,0.07485 3.15967,0.03384 4.55273,0.03735l0.03369,7.55708l-1.76074,0.01406l-0.0498,-4.65957c-0.00879,-0.77791 0.06885,-1.372 -0.44678,-1.91937c-1.08984,0.61987 -0.95361,3.95797 -2.40527,4.86902c-0.49805,0.03779 -0.46729,0.05654 -0.89062,-0.20345c-0.81299,-1.28588 0.76904,-4.04468 0.9668,-5.69512z" fill="#000000"/><path d="M223.70508,58.84805c1.36523,-0.05742 1.875,-0.03032 1.76367,1.57882c-0.03809,0.56157 -0.01318,1.291 -0.00879,1.86752c0.71338,0.01523 1.38867,-0.04599 2.01123,0.25838c0.71338,0.96276 -0.98584,2.1319 -1.29199,3.18928c-0.15088,0.5232 -0.2168,1.34461 -0.27539,1.89623c-0.15381,0.47047 -0.31787,1.08272 -0.58301,1.49314c-0.2417,0.37306 -1.22314,0.2055 -1.54834,-0.04746c-0.23145,-1.84906 -0.12598,-8.16684 -0.06738,-10.2359z" fill="#000000"/><path d="M184.22168,235.98248c0.54053,-0.04834 1.04443,-0.13475 1.51904,0.15233c0.26807,0.94328 -0.45264,1.93343 -0.41455,2.89282c0.1377,3.43477 1.11621,6.78165 1.10889,10.26329c-0.54492,0.02783 -1.06641,0.06884 -1.60547,-0.03955c-0.35889,-0.68256 -1.33008,-9.85171 -1.3125,-11.05278c0.01318,-0.92424 0.00879,-1.54089 0.70459,-2.21612z" fill="#000000"/><path d="M178.87354,236.56836c0.53467,-0.04541 1.05029,-0.12743 1.57178,0.03222c0.31055,0.59907 0.08643,1.64488 0.19629,2.33037c0.18457,1.16299 0.72803,2.26299 0.92578,3.43037c0.40723,2.40507 0.20654,5.07818 0.19189,7.52134c-0.57129,0.01758 -1.16602,0.10107 -1.6626,-0.1992c-0.30762,-1.33582 0.00293,-2.79029 -0.13037,-4.15541c-0.30322,-3.09349 -1.27148,-5.77832 -1.09277,-8.95969z" fill="#000000"/><path d="M209.92236,53.54415c3.26221,-0.05288 0.94189,2.89648 0.56543,4.5377c0.8335,0.13431 1.55566,0.20887 1.78418,1.09927c-0.12451,0.41979 -0.09082,0.43253 -0.39551,0.73309c-0.62402,0.14838 -1.43701,0.04629 -2.09766,0.00703c-0.01611,0.77894 -0.06885,1.50573 -0.12598,2.28174c-0.46436,0.48599 -0.95068,0.92409 -1.66992,0.81658c-1.10156,-0.84866 -0.31201,-2.48519 0.1377,-3.47842c-0.06885,-0.11103 -0.13623,-0.22249 -0.20361,-0.33425c-0.36328,-0.60493 -0.70605,-1.01285 -0.53906,-1.68267c1.79883,-0.93991 1.7666,-1.95482 2.54443,-3.98008z" fill="#000000"/></g></svg></svg>