<svg id="svg" version="1.1" viewBox="0 0 225.97402597402595 300" width="225.97402597402595" height="300" xmlns="http://www.w3.org/2000/svg"><svg xmlns="http://www.w3.org/2000/svg"><defs><clipPath id="clip-1"><rect x="0" y="0" transform="scale(0.14645,0.14648)" width="1543" height="2048" fill="none"/></clipPath></defs><g clip-path="url(#clip-1)" fill="none" fill-rule="nonzero" stroke="none" stroke-width="1" stroke-linecap="butt" stroke-linejoin="miter" stroke-miterlimit="10" stroke-dasharray="" stroke-dashoffset="0" font-family="none" font-weight="none" font-size="none" text-anchor="none" style="mix-blend-mode: normal"><path d="M22.28444,31.39482c-0.03442,-0.85166 -0.25775,-3.06108 0.35221,-3.65435c2.93532,-2.85557 8.12188,-4.00649 11.77891,-5.91226c0.97829,-0.50991 2.84496,-0.61538 3.73318,-1.05864c4.87902,-2.43516 9.90991,-3.5833 15.02368,-5.31724c0.50057,-0.16919 1.06587,-0.37778 1.57699,-0.50215c6.52864,-1.58884 13.02521,-3.51123 19.66633,-4.56583c5.04583,-0.6919 10.49615,-1.08617 15.5903,-1.54759c1.19328,-0.10809 2.80644,-0.43096 3.94715,-0.43062c4.1286,0.00127 8.07414,-0.53659 12.14255,-1.15499c1.23239,-0.17941 2.67727,-0.00469 3.88418,-0.16317c3.41143,-0.44793 6.68212,-0.37367 10.11362,-0.37228l11.51852,0.00895c3.58029,0.00302 5.9093,0.29691 9.37214,-0.95388c2.20863,-0.79781 5.92673,-0.71153 8.2348,-0.90183c3.73011,-0.30768 7.37381,-0.55594 11.10246,-0.92298c3.88681,-0.38265 8.13829,0.16887 11.99874,0.56585c2.01224,0.1881 4.40086,-0.33876 6.4336,0.14498c2.53067,0.68659 5.20634,2.26772 7.36795,3.76225c2.68738,2.24511 5.82143,6.67337 7.29473,9.935c1.65636,3.66548 3.19703,9.02578 4.00837,13.02202c0.35002,1.5498 -0.14059,4.08369 0.25336,5.52773c1.99906,7.33828 2.9876,14.4709 2.7152,22.09263c-0.09226,2.57944 0.37491,5.27842 -1.43083,7.5564c-2.35493,2.97056 -7.41042,1.49502 -10.70704,1.85552c-1.48501,0.08291 -4.24708,-0.0627 -5.61054,0.42451c-5.06867,1.81157 -11.0761,1.17671 -16.04811,2.51997c-6.55954,1.77158 -11.39243,4.72148 -18.26831,5.64814c0.89628,3.77344 -0.0205,9.00498 -0.2519,12.87173c-0.21089,3.55708 0.29583,6.9356 0.52722,10.45488c0.10544,1.59829 -0.3383,3.53936 -0.41153,5.14702c-0.16988,2.65576 -0.16988,3.79336 -1.12914,6.38672c-0.14352,0.32241 -0.19185,0.50742 -0.46425,0.73389c-1.17498,-0.46494 -0.59474,-2.65269 -4.12143,-3.0394c0.14616,-2.88149 -0.68803,-4.79443 -2.38188,-7.15591c-0.52107,-0.0145 -2.90764,-0.09243 -3.09715,0.06841c-1.59324,1.3519 -4.13739,4.32114 -5.13955,6.00527c-1.88131,-0.83643 -4.37127,-2.03628 -6.31687,-2.69722c-0.99308,-0.3375 -1.39583,1.54702 -2.25608,2.14775c-1.59661,0.13491 -0.90023,-1.6374 -2.04841,-2.56992c-1.00348,-0.81504 -1.298,-2.33306 -2.67566,-2.96558c-1.09633,-0.10649 -6.01885,4.19531 -7.21242,5.14702c-0.72259,-1.76865 -0.79376,-2.80869 -2.07448,-4.1915c-2.8949,0.88271 -6.64214,2.95181 -9.41827,4.2334c-0.58727,-1.47129 -0.66503,-2.25015 -1.08725,-3.72393c-0.25365,-0.88564 -1.53539,-2.81602 -2.07331,-3.63911l-1.87413,-0.05405c-0.41372,1.02114 -0.85235,2.23052 -1.42702,3.15674c-1.13675,1.83223 -2.16411,2.70249 -2.89168,4.75679c-2.60302,-2.64229 -3.62935,-6.03428 -6.98601,-7.73877c-2.45276,-1.24541 -3.01616,4.08633 -4.12143,5.44834c-0.21982,0.27085 -0.94388,1.77144 -1.11332,2.15889c-3.82296,-3.60483 -6.32361,-7.65439 -7.49112,-12.83071c-0.50189,-2.22583 -2.41307,-7.66802 -2.06306,-9.57217c-1.19621,0.58799 -6.57697,2.25601 -7.8697,2.22012c-4.02887,-0.11191 -5.31368,1.18198 -8.98521,2.24165c-3.01733,0.871 -6.78391,1.29009 -9.88076,2.16255c-4.53676,1.27808 -9.16916,2.25762 -13.78705,3.20449c-3.72088,0.8209 -7.29224,1.76206 -11.09147,2.26582c-2.66238,0.35303 -5.20991,1.04619 -7.93198,0.84272c-0.9039,-0.72246 -1.35164,-1.4439 -1.93437,-2.4293c-3.91708,-2.04067 -1.70844,-4.01206 -1.69264,-7.61177c0.00757,-1.72544 0.0272,-3.58638 -0.03106,-5.30581c-0.09761,-2.88018 0.6044,-5.42651 1.06574,-8.2311c1.28446,-10.0355 4.56683,-19.5123 7.04327,-29.22026c1.98358,-7.77598 3.22153,-8.79185 8.6512,-14.28384z" fill="#01cd00"/><path d="M89.17392,41.11714c0.4395,-2.35693 1.02955,-4.98486 1.56322,-7.29111c1.74775,-7.55449 12.95814,-6.12656 18.7144,-5.57944c1.79022,0.17021 3.53094,0.121 5.29172,0.57788c0.821,0.93398 2.99185,0.89722 4.00822,0.42246c1.86842,0.20552 3.55876,0.08555 4.95664,1.66772c0.96584,1.09321 1.58328,5.25864 1.4052,6.56265c-0.02578,0.18486 -0.05668,0.36899 -0.093,0.55225c0.68129,1.6522 2.43739,5.18628 0.2412,6.34497c-0.04218,0.58989 -0.16359,1.25039 0.28822,1.68765c1.36976,1.32612 4.67721,1.74902 6.14274,2.79858c1.15286,0.82544 3.25312,2.89175 4.27022,3.95654c1.69312,1.90312 4.2503,3.8896 5.67205,5.97173c2.25403,3.30132 4.07486,8.35107 4.4281,12.34131c0.09754,1.10273 -0.32366,2.62119 -0.19112,4.14185c0.68481,0.92666 1.20617,1.64238 2.45686,1.72881c0.89628,3.77344 -0.0205,9.00498 -0.2519,12.87173c-0.21089,3.55708 0.29583,6.9356 0.52722,10.45488c0.10544,1.59829 -0.3383,3.53936 -0.41153,5.14702c-0.16988,2.65576 -0.16988,3.79336 -1.12914,6.38672c-0.14352,0.32241 -0.19185,0.50742 -0.46425,0.73389c-1.17498,-0.46494 -0.59474,-2.65269 -4.12143,-3.0394c0.14616,-2.88149 -0.68803,-4.79443 -2.38188,-7.15591c-0.52107,-0.0145 -2.90764,-0.09243 -3.09715,0.06841c-1.59324,1.3519 -4.13739,4.32114 -5.13955,6.00527c-1.88131,-0.83643 -4.37127,-2.03628 -6.31687,-2.69722c-0.99308,-0.3375 -1.39583,1.54702 -2.25608,2.14775c-1.59661,0.13491 -0.90023,-1.6374 -2.04841,-2.56992c-1.00348,-0.81504 -1.298,-2.33306 -2.67566,-2.96558c-1.09633,-0.10649 -6.01885,4.19531 -7.21242,5.14702c-0.72259,-1.76865 -0.79376,-2.80869 -2.07448,-4.1915c-2.8949,0.88271 -6.64214,2.95181 -9.41827,4.2334c-0.58727,-1.47129 -0.66503,-2.25015 -1.08725,-3.72393c-0.25365,-0.88564 -1.53539,-2.81602 -2.07331,-3.63911l-1.87413,-0.05405c-0.41372,1.02114 -0.85235,2.23052 -1.42702,3.15674c-1.13675,1.83223 -2.16411,2.70249 -2.89168,4.75679c-2.60302,-2.64229 -3.62935,-6.03428 -6.98601,-7.73877c-2.45276,-1.24541 -3.01616,4.08633 -4.12143,5.44834c-0.21982,0.27085 -0.94388,1.77144 -1.11332,2.15889c-3.82296,-3.60483 -6.32361,-7.65439 -7.49112,-12.83071c-0.50189,-2.22583 -2.41307,-7.66802 -2.06306,-9.57217c0.63003,-0.55459 0.3197,-3.10708 0.25453,-3.95098c-0.54948,-0.727 -0.69594,-0.84404 -1.41779,-1.41138c-0.79435,-0.09155 -1.79534,-0.12334 -2.60829,-0.17124c0.58785,-3.45967 1.27866,-7.14316 1.97826,-10.59961c0.36291,-1.79253 1.0111,-7.6938 1.7126,-9.04585c1.83664,-3.53936 8.03811,-10.71665 11.55455,-12.4686c1.81482,-0.9041 5.82685,-1.73027 8.10739,-2.64902c0.12668,-0.93237 0.19815,-1.55552 0.46059,-2.45435z" fill="#817d80"/><path d="M89.17392,41.11714c0.4395,-2.35693 1.02955,-4.98486 1.56322,-7.29111c1.74775,-7.55449 12.95814,-6.12656 18.7144,-5.57944c1.79022,0.17021 3.53094,0.121 5.29172,0.57788c0.821,0.93398 2.99185,0.89722 4.00822,0.42246c1.86842,0.20552 3.55876,0.08555 4.95664,1.66772c0.96584,1.09321 1.58328,5.25864 1.4052,6.56265c-0.02578,0.18486 -0.05668,0.36899 -0.093,0.55225c-2.59438,-3.7292 -4.59769,0.84639 -6.15065,2.82891c-0.28807,-1.19883 -2.83749,-7.84966 -4.5763,-6.93882c-2.04226,1.06978 -3.21284,4.54175 -4.95385,6.33018c-1.60569,-1.9188 -1.5143,-3.1043 -2.72707,-5.09912c-1.44035,-0.71895 -1.70074,-0.69961 -3.34172,-0.67178c-1.33446,1.24702 -1.83415,2.0272 -2.80849,3.53657c-3.08953,-8.74438 -7.53315,1.68325 -11.2883,3.10166z" fill="#817d80"/><path d="M109.3395,40.2498c1.74101,-1.78843 2.91159,-5.2604 4.95385,-6.33018c1.73881,-0.91084 4.28823,5.73999 4.5763,6.93882c1.55297,-1.98252 3.55627,-6.55811 6.15065,-2.82891c0.68129,1.6522 2.43739,5.18628 0.2412,6.34497c-0.52825,-0.72349 -1.79783,-4.22915 -2.00535,-5.20605c-1.75375,1.39438 -2.59804,2.61401 -4.075,4.25259c-0.65581,0.72773 -1.16883,0.55122 -2.26311,0.57847c-0.01465,-1.17729 0.05814,-2.64639 -0.30008,-3.74004c-0.24091,-0.7355 -1.64201,-3.13652 -2.21478,-3.41997c-1.08271,0.84932 -3.10784,4.68472 -3.93529,6.07148c-0.78835,-0.0189 -1.57669,-0.04409 -2.36475,-0.07544c-1.29155,-2.04199 -2.61108,-4.05791 -3.76907,-6.17871c-1.45631,1.58101 -2.09747,2.62705 -3.29559,4.4064c-0.56091,0.2332 -1.17791,0.14912 -1.80413,0.13096c-0.2929,-1.59023 -0.86831,-2.99121 -1.46158,-4.48066c-2.37998,1.57061 -3.40089,2.78159 -5.42792,4.69775c-1.22111,1.1543 -1.97065,1.44917 -3.57458,1.37725l0.40362,-1.67139c3.75515,-1.41841 8.19877,-11.84604 11.2883,-3.10166c0.97434,-1.50938 1.47403,-2.28955 2.80849,-3.53657c1.64098,-0.02783 1.90137,-0.04717 3.34172,0.67178c1.21276,1.99482 1.12138,3.18032 2.72707,5.09912z" fill="#525053"/><path d="M96.93407,82.31909c1.48516,-0.13989 1.37488,0.17139 2.02659,1.48813c3.09905,6.26147 7.7827,8.08198 12.70961,2.25396c0.70721,-0.83657 0.34138,-2.31885 1.39597,-3.09785c0.56969,-0.10518 0.3982,-0.15337 0.88002,0.03003c0.27591,0.49556 0.1797,1.08252 0.16124,1.67871c0.00454,0.479 -0.02797,1.38765 -0.19214,1.80015c-0.49808,1.25098 -2.35581,3.36812 -3.48905,3.96035c-2.11622,1.10596 -8.55479,1.65747 -10.04069,-0.58579c-1.20324,-1.81626 -4.139,-5.30229 -3.45156,-7.52769z" fill="#525053"/><path d="M117.24933,59.04111c0.3093,-0.03574 0.64995,-0.06328 0.93773,-0.05215c4.54174,0.17681 4.08452,2.09956 2.79121,5.53755c-0.08597,0.22852 -0.19917,1.60723 -0.24399,2.03379c-0.3115,0.32021 -0.28939,0.21035 -0.90067,0.23804l-3.83526,0.00176c-0.31765,-0.75806 -0.79406,-1.32261 -1.28789,-1.97856c-0.11379,-1.48843 -0.07733,-2.49067 -0.00234,-3.96709c0.88515,-1.03887 1.31528,-1.21143 2.54122,-1.81333z" fill="#525053"/><path d="M98.70056,57.31787c3.90761,-0.32124 3.19249,3.16626 3.25912,5.96851c-0.94314,0.23745 -1.88834,0.46685 -2.83544,0.68804c-0.7015,0.10356 -1.33036,0.10518 -2.03728,0.12261c-2.12501,-2.4876 -1.89434,-5.71538 1.6136,-6.77915z" fill="#525053"/><path d="M115.20619,72.79731c0.94095,0.04321 2.19706,-0.13989 2.27395,1.04033c-0.3427,0.8729 -2.66658,2.4917 -3.66377,3.4519c-1.60569,0.58345 -2.35977,-1.07402 -1.52251,-1.99263c0.74602,-0.81841 2.02015,-1.74302 2.91233,-2.49961z" fill="#525053"/><path d="M96.96439,71.14951c1.80896,-0.01362 2.79165,1.53809 3.83014,2.84473c0.0164,0.95874 0.01157,1.41768 -0.11086,2.36177l-1.19109,-0.07778c-0.52898,-0.38628 -0.44126,-1.07725 -0.83096,-1.45283c-1.40007,-1.34956 -2.18783,-1.44873 -1.69722,-3.67588z" fill="#525053"/><path d="M121.80644,11.13265c1.45411,-0.03444 2.81582,-0.01548 4.27037,0.01436c2.30324,2.05126 3.17945,3.91759 4.74531,6.52047c1.63835,0.18472 2.56656,0.4103 3.93426,1.40522l0.01084,3.96709c-1.87003,1.76074 -4.23346,2.89351 -6.29081,4.41621c-1.35658,1.00415 -4.43879,2.4019 -5.86419,0.89619c-0.48138,-0.51211 -0.80123,-1.42456 -0.95486,-2.11641c-1.27398,0.87905 -2.50754,1.48198 -2.90588,3.01113c-1.01637,0.47476 -3.18721,0.51152 -4.00822,-0.42246c-0.15246,-2.48862 -1.30576,-2.24458 -3.31946,-2.47529c-2.84452,-0.32607 -2.40107,-3.88096 -2.32564,-5.9937c1.02823,-1.16938 3.58102,-3.13198 4.884,-4.20454l1.95073,-0.08379c1.99159,-1.75025 3.88462,-3.24825 5.87357,-4.93449z" fill="#fde901"/><path d="M44.58513,31.70537c0.60953,-0.00688 1.28189,0.01831 1.89713,0.02827c1.04346,0.96987 1.7911,2.16958 2.48073,3.40562c2.05588,3.68481 3.8067,6.22002 4.60779,10.48975c2.2593,-0.01904 4.4858,0.54214 6.46625,1.63008c0.13151,0.90791 0.12492,2.49565 0.14923,3.4582c-1.05313,1.28145 -2.22591,2.05415 -3.45463,3.13989c-1.49351,1.31968 -3.20435,2.93423 -4.41491,4.50732c-0.01743,3.14575 -0.26742,4.94751 -0.59972,8.05518c-1.31498,1.75356 -1.6423,1.63491 -3.7799,1.56123c-1.48809,-0.93076 -3.83189,-3.51343 -5.15435,-3.51357c-2.30617,1.7877 -3.08162,3.88096 -6.20132,4.07915c-3.77448,0.23979 -2.64198,-3.02578 -2.15561,-5.38887c0.47772,-2.32075 1.19621,-4.49429 1.95073,-6.69814c-2.13365,-0.61362 -4.64382,-2.35371 -6.34104,-3.80508c-0.06166,-0.94541 -0.01831,-1.86401 0.01011,-2.80942c2.0594,-2.27329 5.24353,-3.02944 6.52044,-4.40186c0.24399,-0.82412 0.64629,-2.23213 0.93861,-3.0167c0.25146,-0.67456 1.54184,-1.87925 1.9519,-2.69707c1.20236,-2.39854 2.17524,-5.12446 3.57341,-7.39453c0.33567,-0.54492 0.97141,-0.57305 1.55516,-0.62944z" fill="#fde901"/><path d="M157.61652,29.50532c1.29902,-0.04336 2.26853,-0.09141 3.56755,0.02871c1.72373,2.24956 2.17773,3.42026 3.5075,5.89277c1.20969,2.25161 2.44573,4.48916 3.70814,6.71221c3.3508,1.02144 3.15602,2.19551 3.06815,5.32632c-0.81427,0.80903 -1.8819,1.34883 -2.48235,2.36968c-1.29609,2.20078 2.36079,7.46265 1.13939,11.4186c-0.19771,0.64189 -0.52722,1.19766 -1.15257,1.49429c-1.83796,0.86968 -5.35279,-1.45356 -7.32548,-2.1501c-2.75914,-0.82749 -2.42084,-0.82236 -4.85046,0.82046c-1.55531,1.05088 -5.75846,2.27212 -6.01328,-0.75454c-0.28265,-3.36724 2.02395,-5.68374 3.97615,-8.11553c-1.69444,-1.63198 -2.07668,-2.2522 -4.39353,-2.81323c-0.2724,-4.37959 -0.87431,-3.72715 3.0828,-5.3231c-0.0908,-0.24507 -0.16695,-0.49497 -0.22993,-0.74854c-0.89775,-3.63325 1.45719,-8.0644 3.02861,-11.21279c0.4745,-0.94951 0.86553,-2.09414 1.36932,-2.94521z" fill="#fde901"/><path d="M78.28265,107.94243c0.16944,-0.38745 0.8935,-1.88804 1.11332,-2.15889c1.10527,-1.36201 1.66866,-6.69375 4.12143,-5.44834c3.35666,1.70449 4.38299,5.09648 6.98601,7.73877c0.72757,-2.0543 1.75492,-2.92456 2.89168,-4.75679c0.57467,-0.92622 1.0133,-2.1356 1.42702,-3.15674l1.87413,0.05405c0.53791,0.8231 1.81965,2.75347 2.07331,3.63911c0.42222,1.47378 0.49998,2.25264 1.08725,3.72393c2.77613,-1.28159 6.52337,-3.35068 9.41827,-4.2334c1.28071,1.38281 1.35189,2.42285 2.07448,4.1915c1.19358,-0.95171 6.11609,-5.25352 7.21242,-5.14702c1.37767,0.63252 1.67218,2.15054 2.67566,2.96558c1.14818,0.93252 0.4518,2.70483 2.04841,2.56992c0.86025,-0.60073 1.26299,-2.48525 2.25608,-2.14775c1.9456,0.66094 4.43556,1.86079 6.31687,2.69722c1.00216,-1.68413 3.54631,-4.65337 5.13955,-6.00527c0.18951,-0.16084 2.57607,-0.08291 3.09715,-0.06841c1.69385,2.36147 2.52804,4.27441 2.38188,7.15591c3.52669,0.38672 2.94645,2.57446 4.12143,3.0394c0.2724,-0.22646 0.32073,-0.41147 0.46425,-0.73389c-0.22846,1.74946 0.09226,1.99614 -0.93655,3.44707c-2.4532,3.91377 -5.67967,8.52979 -10.36259,9.36196c-4.21252,0.74854 -7.93194,1.18857 -12.19645,1.1313c0.04467,7.47612 -0.13635,14.57827 0.90316,22.004c0.16359,1.16895 0.32336,2.46973 -0.00293,3.6167c5.54918,-0.05566 8.44042,-0.08643 13.93599,1.08984c2.69587,0.57715 7.78519,2.05078 10.15609,2.1665c10.18567,0.49951 20.74773,-0.70605 30.02394,-5.16504c3.12966,-1.50439 5.72624,-2.64404 8.30524,-5.17749c1.54652,-1.50996 2.99932,-3.12495 4.27784,-4.87031c0.8128,-1.10947 1.43083,-3.23188 2.48235,-4.06216c1.37518,0.55532 5.75406,0.40239 7.45143,0.3873c1.01198,-2.70718 1.48208,-5.04756 1.47037,-7.9229c-0.00293,-0.84272 -0.1567,-3.56528 0.19478,-4.11284c1.34881,-1.37637 2.76646,-1.81816 4.7128,-1.84937c2.52335,-0.05962 4.9603,0.92417 6.73675,2.71948c1.89508,1.88174 2.32125,3.33472 2.36226,5.9625c0.07762,5.10059 -1.31952,11.28354 -4.57953,15.32051c-1.43961,1.78154 -3.40059,3.45146 -4.75087,5.4041c-1.176,1.69775 -1.92437,4.00195 -3.05497,5.61182c-1.5143,2.15771 -3.15456,4.81934 -4.75527,6.86719c-1.05884,1.35352 -3.26586,3.46143 -4.51948,4.72412l-6.49218,6.5127c-2.19823,2.16357 -5.04963,4.35645 -7.32255,6.4585c-2.17041,2.0083 -6.93153,2.15039 -9.65406,2.6748c-2.63466,0.44385 -4.89147,1.13379 -7.57884,1.18359c-2.16601,0.04102 -6.59762,0.03955 -8.57618,0.82617c-3.40059,1.35352 -6.12898,3.85254 -8.87581,6.15234c-1.04888,0.87891 -2.38583,1.63037 -3.48231,2.56494c-0.92967,0.79248 -2.59013,2.7041 -3.50399,3.28857c-4.86994,3.11133 -12.73246,3.07764 -18.3408,4.24658c-1.96493,0.40869 -3.46869,1.57031 -5.91501,1.94531c-3.30364,0.5083 -5.43744,0.40283 -8.68572,0.43359c-2.96959,0.02637 -5.16196,-0.48926 -7.93575,-0.5874c-3.69804,-0.13037 -7.14139,0.16846 -10.89274,-0.17578c-3.43457,-0.31494 -5.56031,-1.26709 -8.7815,-1.76074c-2.1871,-0.33545 -5.79434,-0.29883 -8.00414,-0.09814c-1.06616,0.09521 -3.84742,1.20557 -5.11026,1.53809c-3.28446,0.86279 -6.19503,1.33154 -9.37785,2.59424c-0.26727,2.89893 -0.2746,3.15234 -3.25473,2.90332c-0.42983,-0.3252 -0.98342,-0.76758 -1.50156,-0.90381c-1.08242,-0.28271 -2.79502,0.27832 -3.05775,-1.25684c-0.06956,-0.40723 -0.08523,-1.14258 -0.10339,-1.57031c-1.79827,-2.55762 -3.51234,-2.94873 -6.23764,-3.80713l-8.05818,-2.47119c-1.71055,-0.53174 -3.41802,-1.45312 -5.1315,-1.7168c-2.50915,-0.38672 -5.07043,-0.81152 -7.58997,-1.10303c-1.51533,-1.2041 -3.54851,-2.76562 -4.95107,-4.06055c-2.82482,-2.60742 -5.99729,-7.88818 -6.59636,-11.70557c-0.42676,-2.71875 -0.67817,-6.35449 0.98026,-8.74951c8.83276,-8.08154 18.39938,-2.59131 21.00211,7.02246c2.75431,-3.89062 4.2339,0.67676 5.75128,0.27979c3.95066,-1.01074 10.10205,-1.21143 12.73026,-4.69775c1.39172,-1.84717 3.73963,-6.46289 4.44538,-8.50049c2.27072,-6.55664 3.09246,-5.56787 9.01304,-7.56885c3.82735,-1.29346 7.95874,-2.41553 12.08192,-3.07031c5.36597,-1.09717 10.87019,-2.57227 16.35624,-2.84619c0.51229,-0.02637 1.10336,0.05127 1.59515,-0.03076c-0.88339,-3.99902 -0.85513,-6.96445 -1.07656,-10.96099c-0.16944,-3.05903 -0.87182,-6.30132 -1.31952,-9.33149c-0.0763,-0.51577 0.14601,-1.12441 0.13693,-1.64604c-0.28631,-2.84561 -0.24311,-5.74365 -0.94768,-8.53096c-0.53132,-2.129 -1.44386,-5.35635 -3.13786,-6.79585c-1.07173,-0.91582 -2.50343,-1.62026 -3.56345,-2.5292c-1.55604,-1.33418 -2.66717,-2.48936 -4.43366,-3.58008c-0.44887,-0.21475 -0.88061,-0.75923 -1.23693,-1.14243z" fill="#04b0fd"/><path d="M78.28265,107.94243c0.16944,-0.38745 0.8935,-1.88804 1.11332,-2.15889c1.10527,-1.36201 1.66866,-6.69375 4.12143,-5.44834c3.35666,1.70449 4.38299,5.09648 6.98601,7.73877c0.72757,-2.0543 1.75492,-2.92456 2.89168,-4.75679c0.57467,-0.92622 1.0133,-2.1356 1.42702,-3.15674l1.87413,0.05405c0.53791,0.8231 1.81965,2.75347 2.07331,3.63911c0.42222,1.47378 0.49998,2.25264 1.08725,3.72393c2.77613,-1.28159 6.52337,-3.35068 9.41827,-4.2334c1.28071,1.38281 1.35189,2.42285 2.07448,4.1915c1.19358,-0.95171 6.11609,-5.25352 7.21242,-5.14702c1.37767,0.63252 1.67218,2.15054 2.67566,2.96558c1.14818,0.93252 0.4518,2.70483 2.04841,2.56992c0.86025,-0.60073 1.26299,-2.48525 2.25608,-2.14775c1.9456,0.66094 4.43556,1.86079 6.31687,2.69722c1.00216,-1.68413 3.54631,-4.65337 5.13955,-6.00527c0.18951,-0.16084 2.57607,-0.08291 3.09715,-0.06841c1.69385,2.36147 2.52804,4.27441 2.38188,7.15591c3.52669,0.38672 2.94645,2.57446 4.12143,3.0394c0.2724,-0.22646 0.32073,-0.41147 0.46425,-0.73389c-0.22846,1.74946 0.09226,1.99614 -0.93655,3.44707c-2.4532,3.91377 -5.67967,8.52979 -10.36259,9.36196c-4.21252,0.74854 -7.93194,1.18857 -12.19645,1.1313c0.04467,7.47612 -0.13635,14.57827 0.90316,22.004c0.16359,1.16895 0.32336,2.46973 -0.00293,3.6167c-2.79077,0.54639 -0.02665,3.54785 0.03559,4.72852c0.35485,6.72949 -0.06341,13.72412 0.18365,20.44922c2.41512,-0.04248 5.9178,-0.27246 8.26877,0.2124c0.40874,0.0835 1.22213,0.84082 1.71685,0.9873c0.71395,0.21094 2.3933,0.68408 2.81406,1.26563c1.0442,1.44287 0.22495,4.3125 0.62579,6.25488c0.66694,0.13477 0.52195,0.00586 0.94109,0.41602c0.13386,0.48633 0.15568,0.5127 0.00864,0.97559c-0.57555,0.47168 -1.24396,0.26221 -2.05661,0.36914c-1.25684,1.96582 -2.64154,4.35938 -4.65451,5.63232c-3.47001,2.19434 -16.68576,1.93066 -21.19264,2.08154c-1.87399,0.06299 -3.73143,0.37061 -5.60249,0.47314c-2.72487,0.14941 -5.49748,0.0542 -8.22674,0.05566c-3.99284,0 -8.01087,0.2168 -11.93532,-0.64746c-3.52068,-0.7749 -7.94878,-2.81689 -9.93861,-6.00293c-1.36126,-2.18115 -1.49541,-4.8457 -0.90961,-7.28027c0.32336,-1.34326 0.6684,-2.72461 1.51211,-3.84961c2.50959,-3.34424 8.71443,-4.33154 12.63756,-4.38428c1.29931,-0.01758 4.02682,0.24609 5.10821,-0.41895c0.85981,-1.8252 -0.0123,-11.85352 0.31985,-14.52539c0.21265,-1.71094 0.97932,-4.40039 -0.26215,-5.75537c-0.88339,-3.99902 -0.85513,-6.96445 -1.07656,-10.96099c-0.16944,-3.05903 -0.87182,-6.30132 -1.31952,-9.33149c-0.0763,-0.51577 0.14601,-1.12441 0.13693,-1.64604c-0.28631,-2.84561 -0.24311,-5.74365 -0.94768,-8.53096c-0.53132,-2.129 -1.44386,-5.35635 -3.13786,-6.79585c-1.07173,-0.91582 -2.50343,-1.62026 -3.56345,-2.5292c-1.55604,-1.33418 -2.66717,-2.48936 -4.43366,-3.58008c-0.44887,-0.21475 -0.88061,-0.75923 -1.23693,-1.14243z" fill="#817d80"/><path d="M78.28265,107.94243c0.16944,-0.38745 0.8935,-1.88804 1.11332,-2.15889c1.10527,-1.36201 1.66866,-6.69375 4.12143,-5.44834c3.35666,1.70449 4.38299,5.09648 6.98601,7.73877c0.72757,-2.0543 1.75492,-2.92456 2.89168,-4.75679c0.57467,-0.92622 1.0133,-2.1356 1.42702,-3.15674l1.87413,0.05405c0.53791,0.8231 1.81965,2.75347 2.07331,3.63911c0.42222,1.47378 0.49998,2.25264 1.08725,3.72393c2.77613,-1.28159 6.52337,-3.35068 9.41827,-4.2334c1.28071,1.38281 1.35189,2.42285 2.07448,4.1915c1.19358,-0.95171 6.11609,-5.25352 7.21242,-5.14702c1.37767,0.63252 1.67218,2.15054 2.67566,2.96558c1.14818,0.93252 0.4518,2.70483 2.04841,2.56992c0.86025,-0.60073 1.26299,-2.48525 2.25608,-2.14775c1.9456,0.66094 4.43556,1.86079 6.31687,2.69722c1.00216,-1.68413 3.54631,-4.65337 5.13955,-6.00527c0.18951,-0.16084 2.57607,-0.08291 3.09715,-0.06841c1.69385,2.36147 2.52804,4.27441 2.38188,7.15591c3.52669,0.38672 2.94645,2.57446 4.12143,3.0394c0.2724,-0.22646 0.32073,-0.41147 0.46425,-0.73389c-0.22846,1.74946 0.09226,1.99614 -0.93655,3.44707c-0.27225,-0.86045 -3.30804,-3.14912 -4.18118,-3.79775c-0.1797,-0.13359 -0.9118,-0.31216 -1.17,-0.37017c0.26537,-3.42231 -0.46557,-4.2353 -2.00433,-7.35117c-1.077,0.99038 -2.09366,1.91865 -3.11121,2.96997c-1.38059,1.42646 -2.75636,3.74106 -4.51172,4.62524c-1.15037,0.02183 -0.71439,-1.10317 -0.9739,-1.2561c-1.38645,-0.81694 -2.69514,-1.2 -4.17195,-2.15405c-1.15096,1.1187 -1.72314,2.03569 -2.63026,3.3479l-2.0159,0.00249l-0.04599,-1.97798c-1.17527,-1.19663 -1.90152,-3.70605 -3.09539,-4.51069c-1.81804,0.38306 -4.3619,4.50059 -8.34054,5.59746c-0.34416,-1.89038 -0.61217,-2.97363 -1.28672,-4.72207c-0.6539,0.41118 -1.95073,0.92871 -2.72135,1.22681c-2.39682,0.9271 -3.5983,1.61616 -5.5174,3.27686c-0.20635,0.01216 -1.33109,0.09521 -1.40549,-0.01406c-1.40051,-2.05913 -1.69048,-4.92715 -2.85536,-7.23501c-1.27295,2.33745 -3.72176,5.22363 -5.11861,7.63813c-0.1857,0.15762 -1.52031,0.12715 -1.6136,0.01304c-1.07656,-1.31763 -4.45768,-7.60796 -5.83725,-7.76235c-0.5902,0.27188 -3.14811,4.99966 -3.99899,6.22998c-0.44887,-0.21475 -0.88061,-0.75923 -1.23693,-1.14243z" fill="#525053"/><path d="M102.29037,178.67871c0.98942,-0.06445 1.52968,-0.03662 2.52628,0.03369c0.71263,0.52588 2.4469,1.21729 2.71022,1.7915c0.78498,1.70947 1.98324,0.59619 3.34304,0.42627c1.78802,-0.22412 2.88963,0.56396 4.22951,1.57617c1.42424,0.09961 3.33235,0.06006 4.79949,0.07324c0.82232,0.76758 1.77059,1.26709 2.74083,1.81494c1.23239,-0.38525 2.64915,-0.85547 3.90102,-1.11914c0.65844,-0.13916 3.76614,-0.36328 4.21999,-0.04395l0.0164,0.67383c0.13503,0.04834 2.98013,-0.25488 3.49886,-0.2373c1.20251,1.00635 2.23104,1.72705 3.83658,1.65234c0.66694,0.13477 0.52195,0.00586 0.94109,0.41602c0.13386,0.48633 0.15568,0.5127 0.00864,0.97559c-0.57555,0.47168 -1.24396,0.26221 -2.05661,0.36914c-2.66219,0.04248 -1.80926,-0.75732 -3.75134,-1.03857c-2.62982,-0.38086 -2.96066,-0.09961 -5.39423,-1.3623c-2.46111,1.07813 -4.03883,1.51465 -6.72035,1.88818c-3.19849,-3.30322 -2.90676,-2.24707 -7.17449,-1.65381c-0.9017,-0.87451 -1.6032,-1.59229 -2.44544,-2.52393c-1.66925,1.02393 -2.18622,1.29346 -4.1103,1.37109c-1.14378,-0.65186 -2.52892,-1.9248 -3.54587,-2.81104c-4.0728,2.12402 -3.80524,4.37402 -8.39838,1.06641c-1.93755,1.0957 -4.72495,4.06787 -6.8772,4.45166c-0.59547,0.10693 -1.51958,-1.63184 -2.12208,-2.34814c-2.56729,1.18506 -3.27245,2.53418 -6.18741,2.32764c-0.29349,-0.83496 -0.77106,-2.37012 -1.22506,-3.05859c-0.91854,-0.27246 -2.43651,2.72314 -3.92269,1.09717c-0.30696,-1.19971 1.17454,-2.40674 2.07214,-3.00732c1.02984,-0.10986 1.60481,-0.10254 2.64827,-0.07324c0.50247,0.39404 0.91737,0.87598 1.34969,1.34619l0.34606,1.76074c2.37661,-1.96143 5.68318,-3.98584 7.75283,-0.44238c0.5281,-0.14648 4.75951,-3.7002 5.2677,-4.31396c2.83002,-0.09082 1.89317,0.74707 4.3061,1.93359c1.60247,-1.05176 2.05588,-1.97021 3.4167,-3.01172z" fill="#525053"/><path d="M101.27854,163.6582c1.41047,-0.09082 3.0248,0.06299 3.88051,1.36816c0.14704,1.36816 -0.94842,5.15625 -1.44342,6.57422c-0.61993,0.58301 -2.12237,0.40576 -3.04384,0.39844l-4.39309,0.01904c-0.04232,-2.37598 -0.04965,-4.75195 -0.02241,-7.12646c1.71538,-0.68408 3.22002,-0.91113 5.02225,-1.2334z" fill="#000000"/><path d="M115.01785,165.43066c1.57699,-0.41016 4.24928,0.56982 5.81923,1.05908c0.02812,2.1958 0.20884,5.16064 -1.33695,6.99609c-0.23915,0.28418 -0.40552,0.19482 -0.83814,0.20215l-5.66912,-0.01025c-0.09124,-3.6167 -0.05155,-4.21436 -0.68378,-7.78711c0.75832,-0.02051 2.02849,-0.13623 2.70876,-0.45996z" fill="#000000"/><path d="M180.5654,101.93848c-2.59072,-4.38267 -2.40619,-7.58013 -2.47942,-12.49175c-0.05712,-3.84478 0.13181,-6.00835 4.50776,-6.98452c2.29928,-0.51328 5.80093,-1.22593 7.96401,-0.19219c0.91239,0.43564 1.09253,2.57549 1.22287,3.50068c1.03394,1.11387 2.55411,2.9666 3.06669,4.40156c1.12328,3.14604 0.8128,7.22886 -1.49527,9.82954c-0.62535,0.70444 -2.08107,1.54805 -2.47356,2.34346c-0.12155,0.24609 -0.17867,1.86299 0.10398,2.09912c0.02929,0.03032 0.06004,0.06064 0.08934,0.09111c3.62174,-2.2166 6.75725,-5.11333 11.38657,-4.90796c1.55678,0.06914 2.58047,0.90059 3.44746,1.92334c0.32659,3.31509 0.30901,2.80488 -2.25242,4.64751c-3.45625,2.4873 -8.49563,4.10229 -12.78225,4.16968c0.0659,2.74087 0.05126,3.83716 -0.55944,6.50874c5.20927,-0.08408 11.2328,0.82764 12.4542,6.87847c-0.35148,0.54756 -0.19771,3.27012 -0.19478,4.11284c0.01172,2.87534 -0.45839,5.21572 -1.47037,7.9229c-1.69737,0.01509 -6.07626,0.16802 -7.45143,-0.3873c0.1113,-0.46626 -0.79669,-2.54473 -0.50965,-3.41895c0.90946,-2.78042 1.35614,-3.05493 1.10131,-6.12686c-0.66342,-0.37793 -1.34149,-0.60264 -2.04885,-0.87144c-2.10304,-0.79805 -4.29248,-0.84683 -6.50682,-0.91699c0,0 -0.48622,-0.37061 -0.53308,-0.40591l-0.28412,0.10474c-0.43203,1.52739 -1.82771,2.14937 -2.52921,3.721c-0.89042,1.99131 -0.41006,5.40952 -1.68272,6.98101c-0.87871,1.08516 -4.97201,1.39995 -6.41163,1.42368c-0.50086,0.00835 -1.54506,0.05156 -1.86432,-0.38833c-1.42058,-1.95615 -1.47037,-6.07236 -1.5187,-8.42856c-0.04833,-2.24736 0.41592,-3.2269 1.60217,-4.8082c2.66248,-3.55093 7.23761,-2.66514 10.43318,-4.30811c0.43203,-0.22222 0.2973,-5.95693 0.30169,-7.08311c-3.65835,-0.08643 -9.83273,-4.29346 -12.62848,-6.89678c-1.21847,-1.13481 -2.58486,-5.94565 -0.19917,-6.51533c4.20754,-1.00459 6.75579,2.90142 10.19446,4.4729z" fill="#ed9e05"/><path d="M13.75844,136.91543c0.88525,-0.85723 2.21689,-2.08726 3.16941,-2.87813c0.23183,-0.19248 1.28174,-0.3813 1.75317,-0.72847c0.45898,-4.49473 -8.53239,-0.11514 -9.81452,-5.78086c-1.01414,-4.4814 -0.71222,-9.03252 0.33676,-13.52534c0.24898,-1.06641 6.84149,0.33633 7.66616,0.59751c0.93524,0.29546 1.82976,0.70708 2.66263,1.22505c2.65076,1.64458 4.58289,3.97339 3.72498,7.37183c-0.2702,0.89517 -1.14495,2.22231 -0.92616,3.17124c0.56545,2.45303 1.92202,4.7291 2.503,7.22065c1.3513,0.29487 2.80527,0.42129 4.07778,0.69038c1.9951,0.42173 5.4121,2.00698 6.94295,3.34746c1.07217,0.93882 1.84689,1.921 3.08192,2.95239c0.27255,3.65859 -0.20357,3.94365 -3.91493,3.43359c-2.31744,-3.47549 -5.0801,-5.5686 -9.47978,-5.42959c1.12182,1.45342 2.3769,5.97964 2.45086,7.90562c3.44116,-0.29502 4.88956,0.44971 8.23011,1.13379c1.9125,0.39258 3.48861,0.54785 5.39248,1.18066c0.04965,1.57324 -0.02519,2.65137 0.76784,4.04883c-2.13672,0.92578 -8.18896,-1.69043 -10.98588,-1.72559c-1.048,-0.01172 -1.65636,0.26367 -2.74508,0.29297l-0.17955,0.00439c1.32011,3.26807 1.89888,7.30664 1.52573,10.80322c-0.12492,1.17188 -2.4822,1.01221 -3.26659,0.80127c-0.56706,-0.50244 -2.46843,-10.81201 -3.29368,-12.26514c-0.16857,-0.29736 0.30081,-1.93799 0.01904,-2.76855c-1.15989,-3.41909 -2.25212,-6.85884 -3.55246,-10.22432c-5.31761,5.09692 1.50435,6.68262 1.27823,11.73164c-0.05155,1.15137 -1.36932,1.69482 -2.37675,1.38867c-2.01517,-0.60937 -3.17623,-2.99414 -4.31596,-4.5876c-1.63438,-2.28442 -1.36692,-6.82515 -0.73168,-9.3876z" fill="#ed9e05"/><path d="M165.81485,266.50635c2.60976,0.08643 2.11915,0.7793 2.42816,3.09375c0.24311,0.24756 0.53015,0.46875 0.78351,0.69141c5.61201,4.92187 6.49803,14.51221 1.39714,20.12256c-1.76327,1.93945 -3.55144,2.77441 -6.1363,2.92676c-7.94497,-0.29297 -8.71091,-11.20459 -6.93592,-16.76514c0.28851,-1.26855 0.35441,-5.33057 1.23605,-6.22705c1.1101,-1.12646 5.68962,-3.74268 7.22736,-3.84229zM162.51677,273.66504c-1.1804,2.47119 -2.23631,8.7041 -1.25069,11.36572c0.80841,2.18262 2.14551,5.03613 4.8241,3.12744c1.63732,-1.32861 3.18678,-4.45459 3.70375,-6.57422c0.47743,-1.96289 -4.22511,-8.80078 -5.73795,-8.83594z" fill="#04b0fd"/><path d="M87.97024,228.85986c2.32198,-0.19629 5.19726,-0.3457 7.19236,0.8877c1.98646,1.25684 3.89589,4.07813 4.30962,6.38525c1.04698,5.83887 -0.84898,9.97852 -6.94705,11.25293c-2.0528,0.39844 -6.87588,0.62842 -8.69436,-0.43066c-0.95559,-0.55664 -1.30092,-1.87207 -1.59119,-2.93994c-0.89848,-3.30322 -1.71875,-9.46582 -0.01494,-12.57129c0.87417,-1.59521 4.07793,-2.27637 5.74557,-2.58398zM87.60601,243.95654c1.42219,-0.19922 2.33326,-0.38965 3.73026,-0.73096c8.64091,-2.74365 2.14492,-10.73291 -1.68843,-10.59375c-1.53891,0.47314 -2.57827,0.74561 -3.44863,2.30566c-1.04976,1.88086 -0.12126,4.61426 0.53806,6.5376c0.28514,0.8291 0.57467,1.65527 0.86875,2.48145z" fill="#201fd0"/><path d="M54.25808,261.0542c1.74335,-0.11865 2.06042,-0.0293 3.41802,0.97119c1.89376,0.11133 3.00357,-0.00146 4.72905,0.94629c2.68225,1.47363 2.87366,3.45996 2.74889,6.24609c-0.09754,2.17822 0.07615,1.97168 -0.8708,3.89502c1.7435,0.40576 2.57915,1.31543 3.60519,2.83008c0.03046,0.41748 0.05126,0.83496 0.06253,1.25391c0.08274,3.05127 -0.47846,4.52344 -2.59936,6.75c-2.22986,1.97168 -5.07453,2.07275 -7.89371,2.52979c-0.92367,0.14795 -2.45218,0.41895 -3.15558,-0.31055c-0.74339,-1.66553 -0.00425,-10.0415 -0.28148,-12.50391c-0.42354,-3.76172 -0.81939,-7.89111 -0.5325,-11.6748c0.03251,-0.4292 0.4455,-0.68555 0.76975,-0.93311zM57.9671,282.31641c1.4257,-0.60205 2.93532,-0.77051 3.94334,-1.68018c0.31795,-0.28857 1.22623,-1.07959 1.35863,-1.42383c0.94549,-2.46533 -3.87905,-2.85937 -5.40829,-3.70752c0.02343,1.99365 -0.05067,4.8999 0.10632,6.81152zM58.14958,270.84668l1.64391,-1.44141c0.45722,-0.29004 0.74573,-0.4585 1.15652,-0.82178c-0.25424,-0.92871 -2.68796,-2.54443 -3.67709,-2.65576c0.02343,1.40039 0.61158,3.41895 0.87666,4.91895z" fill="#01cd00"/><path d="M94.39417,264.89795c4.26715,0.04541 2.54722,1.11182 4.04996,3.43945c0.94886,1.46777 2.97252,11.24121 3.23701,11.57666l0.22715,-0.04102c0.75466,-1.02393 0.76989,-9.90967 1.39714,-11.72607c0.24077,-0.69727 3.12175,-0.56689 3.78825,0.01611c0.77458,2.22217 0.06664,10.18799 -0.4953,12.75c-0.658,2.99854 -1.38103,3.5127 -1.4421,7.27148c0.09373,3.4043 -0.84048,2.96045 -3.81212,2.89307c-1.59749,-1.95557 -3.36061,-7.4458 -3.88256,-10.05908c-0.09739,-0.48633 -0.13459,-1.96143 -0.15216,-2.49316c-0.21572,0.71631 -0.85557,2.79492 -0.97566,3.4248c-0.27987,1.4707 0.2888,5.23535 -0.39469,6.49658c-0.81471,0.55957 -2.49728,0.69434 -3.29354,0.03516c-0.79962,-3.44531 0.08626,-9.46729 0.34606,-13.10889c0.12844,-1.79883 -0.26229,-8.94727 0.1734,-10.08252c0.36803,-0.36328 0.69916,-0.33252 1.22916,-0.39258z" fill="#01cd00"/><path d="M132.98564,224.33936c2.46609,-0.07764 5.29494,0.12012 7.13627,1.97021c2.71066,2.72461 3.83658,6.48193 2.30851,10.11328c-0.45488,1.08105 -1.03673,1.60254 -1.84016,2.42139c0.8276,0.76465 1.20178,1.12354 1.89508,1.99805c0.03778,1.60547 0.04232,3.2124 0.01362,4.81787c-0.51844,0.66357 -1.87355,1.85742 -2.54224,2.48291c-1.64816,1.59814 -5.25261,4.21729 -7.6818,2.58105c-0.40464,-0.27246 -0.24267,-6.85693 -0.34489,-7.65088c-0.29144,-2.26611 -1.12387,-17.08447 -0.35544,-18.37793c0.50599,-0.32959 0.80738,-0.30029 1.41106,-0.35596zM135.30425,236.1958c0.9925,-0.42041 1.62341,-0.74707 2.5071,-1.38428c0.64687,-0.68262 0.8273,-1.01367 1.3144,-1.83105c-0.70428,-1.32568 -2.16806,-3.64014 -3.81315,-3.85547c-0.14045,2.33936 -0.08743,4.72852 -0.00835,7.0708zM135.80658,245.85498c0.28558,-0.31494 1.06704,-1.22461 1.33768,-1.4707l1.42599,-1.43994c-0.53733,-0.56104 -2.10055,-2.28223 -2.67581,-2.59277c-0.17296,1.31689 -0.09783,4.09424 -0.08787,5.50342z" fill="#201fd0"/><path d="M147.42938,227.08447c0.86406,-0.0498 2.3974,-0.20947 2.76793,0.75146c1.17014,3.38232 2.25535,7.30518 2.992,10.81055c0.97683,4.65234 -0.29144,6.45117 1.98002,11.04053c1.24337,-1.09277 2.80454,-1.92187 4.09624,-2.98975c2.40766,-1.98633 2.70642,-4.5249 3.26,-7.40625c0.16842,-1.05615 0.50379,-2.17529 0.46279,-3.25049c-0.06444,-1.71387 -1.73837,-5.72021 1.62561,-5.1123c1.31074,0.2373 1.63,0.53174 2.34322,1.5835l0.02929,2.80225c0.0205,4.05029 -1.07934,12.13184 -4.00544,15.00586c-3.43721,3.37354 -6.98572,2.96777 -11.26941,2.95605c-3.42256,-3.98437 -2.34468,-5.85791 -2.67566,-10.80029c-0.21675,-3.22119 -3.01308,-11.81543 -2.56143,-14.62793c0.36613,-0.5625 0.24604,-0.38086 0.95486,-0.76318z" fill="#201fd0"/><path d="M44.45801,260.48438c4.37303,-0.22559 3.28592,0.69727 3.4107,4.57324c0.18424,5.73047 0.00366,14.93848 -5.98765,17.8418c-1.27398,0.61816 -7.96108,0.50684 -9.13899,-0.16699c-3.47792,-1.99219 -3.61397,-12.03662 -4.74326,-15.43652c-0.22524,-1.59961 -0.43188,-3.75 -0.0287,-5.35107c0.30447,-1.2085 2.22122,-1.11182 3.10784,-0.74121c0.85732,0.35742 0.52195,2.4624 0.7368,3.26074c0.2516,0.9375 0.6706,1.93066 0.8563,2.8916c0.47758,3.2124 0.67719,6.74561 1.65285,9.84082c0.20049,0.62109 1.03599,2.00098 1.68316,2.13574c4.9108,1.01807 6.63526,-2.98975 7.30688,-7.0459c0.37081,-2.23975 0.74148,-3.83643 0.70633,-6.05127c-0.02329,-1.46484 -0.88749,-3.75146 -0.52664,-4.98486c0.31956,-0.47607 0.44741,-0.51562 0.96438,-0.76611z" fill="#01cd00"/><path d="M110.86904,223.74609c1.79139,-0.04248 9.91547,0.66064 11.16367,1.7124c0.70004,0.58887 1.06748,1.41211 1.11977,2.32471c0.03339,0.58301 -0.00937,1.21143 -0.43686,1.65527c-1.06821,1.10889 -8.25003,-0.89062 -10.11098,-0.89795c-0.1775,0.84814 -0.16022,2.61475 -0.2021,3.55664c-0.0703,1.57471 -0.2393,2.37744 -0.62915,3.90674c2.02381,-0.03516 4.04776,-0.04395 6.07172,-0.0249c1.7375,0.02197 4.56517,0.3252 5.87957,1.64502c0.64175,0.64453 0.41358,2.11377 0.35778,3.03223c-0.06664,0.14209 -0.28719,0.59473 -0.38839,0.63428c-2.51398,0.97998 -9.32498,-1.37549 -11.73425,-1.57471c-0.27035,1.96875 -0.59078,7.22754 -2.57358,7.57764c-3.34406,0.41016 -2.51061,-2.72461 -2.13291,-4.77393c0.79992,-4.3374 0.70179,-8.68652 1.33095,-13.02393c0.34973,-2.41113 -1.22916,-5.28076 2.28478,-5.74951z" fill="#201fd0"/><path d="M140.14959,265.50732c1.85554,-0.06445 4.33583,-0.30176 6.03086,0.41602c2.70319,1.14697 3.12937,4.28467 3.02832,6.87158c-0.05419,1.38721 0.06883,2.74219 -0.30462,4.125c-0.55359,2.04932 -1.99759,3.68555 -3.03608,5.49902c-0.72361,1.24805 -1.24117,2.34814 -1.83371,3.65918c1.12416,-0.00586 9.5738,0.05713 9.93261,1.09717c0.9988,2.90479 -0.39542,3.69141 -3.25268,3.37646c-0.7264,-0.08057 -2.36958,-0.13623 -3.49286,-0.38086c-1.00788,-0.04102 -2.54825,0.20947 -3.6292,0.28418c-1.95454,0.12158 -3.91434,0.12744 -5.86947,0.01904c-0.23974,-1.38281 -0.21045,-2.63525 -0.18614,-4.02393c0.58976,-0.8584 1.9046,-2.01855 2.3747,-2.93994c1.61331,-3.15967 4.03487,-6.15088 5.20311,-9.47461c0.25775,-0.73389 0.12068,-1.27441 -0.03837,-1.94238c-1.10146,-4.62891 -5.52531,-1.12354 -7.75019,-2.34814c-0.17867,-0.20215 -0.33991,-0.36914 -0.37272,-0.65479c-0.33669,-2.92969 0.43555,-3.35303 3.19644,-3.58301z" fill="#04b0fd"/><path d="M67.16496,221.54297c1.87941,-0.06299 4.20886,-0.33545 5.9506,0.60205c1.03541,0.55664 1.23898,2.73779 0.60089,3.43359c-1.21027,1.31689 -3.84112,-0.39404 -5.54478,-0.07471c-2.25256,0.42334 -4.74179,1.30664 -6.29037,3.10254c-0.77224,1.03711 -0.69872,2.77441 -0.64395,4.00342c0.13005,2.9165 0.27386,7.10303 2.78799,9.03369c2.08107,1.58936 4.39734,0.81299 6.71962,0.47314c0.94183,-0.1377 1.84265,-0.09375 2.58618,0.5376c0.67031,3.39404 -0.52107,3.49805 -3.52801,3.81592c-10.7665,0.92725 -12.92299,-3.31787 -13.02419,-13.17041c-0.09065,-8.82422 0.83375,-10.86768 10.38602,-11.75684z" fill="#201fd0"/><path d="M116.99626,268.25537c0.41695,-0.02637 1.48604,-0.09961 1.77352,0.09229c1.66295,1.10742 2.3337,5.22217 2.82856,6.87012c1.34691,4.49414 2.24817,8.83887 2.02498,13.56006c-0.08201,1.73438 0.51287,3.48486 -1.54916,4.01953c-3.8833,1.00488 -1.75317,-4.92334 -2.55089,-6.8877c-0.18248,-0.44824 -0.58112,-0.53027 -0.98737,-0.72363c-0.58536,-0.24902 -1.42643,-0.4043 -2.03113,-0.15967c-2.04841,1.66406 1.52104,8.60889 -3.95228,7.08984c-1.40886,-0.39111 -0.36305,-9.9668 0.01479,-11.32324c0.87753,-3.15088 2.09923,-6.21973 2.56231,-9.42627c0.2516,-1.7417 -0.02358,-2.3877 1.86667,-3.11133z" fill="#01cd00"/><path d="M78.59239,265.02686c1.00304,-0.11865 3.30013,-0.49365 3.68398,0.83203c0.70545,2.4375 -0.34767,2.68066 -2.31466,3.36182c-0.87548,0.30322 -1.84689,0.6416 -2.736,0.94629c0.30652,7.14551 6.64947,5.41846 7.74624,7.99512c3.6065,8.47412 -3.60401,11.71875 -11.23075,10.5249c-0.87051,-0.37793 -2.14946,-0.83936 -2.77071,-1.54687c-0.62608,-0.52588 -0.31882,-2.86523 0.35924,-3.13477c2.87527,-1.13965 5.39423,2.35986 8.29821,0.10693c0.70297,-0.54639 1.5414,-1.20557 1.72402,-2.13867c-0.08201,-0.5625 -0.28778,-0.73535 -0.64116,-1.18506c-2.07712,-0.90527 -3.8915,-1.58057 -5.38691,-3.33838c-2.53653,-2.98096 -2.57417,-6.11426 -2.29884,-9.79395c1.51709,-1.37109 3.6314,-2.07129 5.56734,-2.62939z" fill="#01cd00"/><path d="M199.11929,268.85596c0.87285,-0.07178 2.41644,-0.24463 3.11501,0.2666c0.24311,0.62842 1.22726,6.41309 1.19211,7.06201l2.84262,-0.13916c1.56263,-2.27051 1.24776,-3.66064 1.57874,-6.41016c0.68393,-0.39111 2.83676,-0.43799 3.37277,0.104c0.40567,0.41016 0.32366,2.66748 0.39981,3.31055c0.66049,5.52686 0.47011,11.10059 0.46718,16.65967c-0.02197,1.54102 0.39249,4.55713 -0.3427,5.84766c-0.39835,0.70166 -2.64491,0.82471 -3.29222,0.22559c-0.43203,-1.125 -0.27679,-13.76807 -0.21089,-15.81299c-1.90094,0.18018 -6.68696,0.00879 -8.73874,-0.00586c-0.28265,-1.69922 -1.31806,-9.95361 -0.3837,-11.10791z" fill="#04b0fd"/><path d="M186.19205,266.61914c2.70056,-0.2373 4.27784,-0.31201 5.04231,2.77002c0.31194,1.26123 0.43496,5.02148 0.13327,6.2373c-0.68393,2.75391 -1.80281,7.6333 -3.23657,10.00488c1.86725,-0.12158 5.54024,-0.27686 7.39139,0.18018c0.63999,0.1582 0.45986,2.61328 0.12155,3.22852c-1.03834,0.78223 -6.08797,0.3999 -7.63742,0.39404c-0.76887,-0.00732 -1.80574,-0.02783 -2.55704,0.04102c-3.39913,0.31494 -3.50604,-0.30615 -3.38888,-3.3999c0.70004,-1.08838 1.49819,-1.94824 2.2202,-3.04687c1.38982,-2.11084 1.63732,-4.72412 2.33297,-7.12354c0.2475,-0.85693 0.57409,-1.43555 0.85235,-2.24854c0.13181,-0.38818 0.07908,-0.41162 -0.08201,-0.67236c-1.87018,-0.36768 -5.69548,5.68945 -5.30592,-2.86963c1.1101,-1.24072 2.77378,-2.45068 4.11381,-3.49512z" fill="#04b0fd"/><path d="M168.54909,85.14932c0.57262,-0.05171 1.14671,-0.07456 1.72226,-0.06841c1.67247,0.02227 2.91731,0.72891 4.10795,1.87646c1.94341,1.875 1.54799,4.40933 1.52309,7.0103c-1.70908,0.83657 -3.39767,2.07554 -4.79334,2.70439c-0.8626,0.37148 -1.9273,0.23496 -2.82651,0.22734c-5.56075,-0.04673 -3.89999,-5.58018 -3.38888,-9.38481c0.80109,-0.93384 2.46038,-1.9998 3.65542,-2.36528z" fill="#f90f0e"/><path d="M41.82921,147.2124c2.86268,-3.38643 4.8922,-2.75728 8.85165,-1.50835c3.10476,0.97954 5.69841,2.5396 2.50036,5.71392c-0.11042,0.83789 -0.23886,1.67285 -0.38546,2.50488c-1.88395,2.21631 -3.80143,2.19141 -6.57712,1.91455c-1.01945,-0.71484 -2.91072,-2.04492 -3.66567,-2.97803l-0.16988,-0.00732c-0.79303,-1.39746 -0.7182,-2.47559 -0.76784,-4.04883c0.06195,-0.49072 0.12185,-1.11768 0.21397,-1.59082z" fill="#f90f0e"/><path d="M171.87646,239.37012c3.08426,-0.15527 6.32376,0.0293 9.4212,-0.05566c1.35028,-0.02051 5.56514,-0.15088 5.71599,1.86035c0.09666,1.30225 0.37638,2.96924 -1.27705,3.14795c-1.46598,0.00732 -2.82504,-0.07031 -4.2793,-0.27393c-3.38009,-0.47607 -6.80412,-0.09814 -10.19739,-0.32959c-1.09985,-0.07471 -1.03687,-2.00537 -0.87431,-2.7627c0.17867,-0.81152 0.83624,-1.20264 1.49087,-1.58643z" fill="#201fd0"/><path d="M30.82795,231.03223c1.84572,-0.09229 3.1323,0.29883 4.93965,0.43213l7.57606,0.52002c0.79933,0.05566 3.1897,0.06299 3.6254,0.55225c0.72332,0.81152 0.42603,2.71436 -0.31633,3.43945c-1.5083,0.02197 -3.39503,0.12598 -4.88414,-0.03076c-2.72414,-0.28564 -5.31061,-0.58154 -8.06726,-0.54199c-0.76784,-0.06152 -2.87029,-0.21094 -3.29676,-0.96387c-0.62754,-1.10889 -0.64819,-2.64697 0.42339,-3.40723z" fill="#201fd0"/></g></svg></svg>