<?xml version="1.0" encoding="UTF-8"?>
<svg xmlns="http://www.w3.org/2000/svg" xmlns:xlink="http://www.w3.org/1999/xlink" width="7000px" height="4900px" viewBox="0 0 7000 4900" version="1.1">
<defs>
<clipPath id="clip1">
  <path d="M 0 0 L 6999.789062 0 L 6999.789062 4900 L 0 4900 Z M 0 0 "/>
</clipPath>
</defs>
<g id="surface1">
<g clip-path="url(#clip1)" clip-rule="nonzero">
<rect x="0" y="0" width="7000" height="4900" style="fill:rgb(100%,100%,100%);fill-opacity:1;stroke:none;"/>
</g>
<path style=" stroke:none;fill-rule:nonzero;fill:rgb(63.921571%,0%,73.725492%);fill-opacity:1;" d="M 2298.976562 1174.1875 C 2312.421875 1174.109375 2338.210938 1172.566406 2349.019531 1178.140625 C 2387.699219 1258.773438 2373.164062 1316.332031 2377.085938 1398.65625 L 2390.621094 1717.851562 C 2417.546875 1741.121094 2396.289062 1829.890625 2404.574219 1875.140625 C 2410.9375 1879.164062 2411.347656 1879.144531 2416.359375 1884.640625 C 2416.730469 1914.597656 2419.082031 1978.230469 2414.816406 2005.035156 L 2405.28125 2011.710938 C 2400.535156 2022.542969 2403.1875 2058.515625 2403.554688 2072.464844 C 2441.703125 2095.152344 2539.675781 2154.289062 2560.292969 2188.191406 C 2557.597656 2244.304688 2606.257812 2250.78125 2599.023438 2305.847656 C 2599.019531 2305.851562 2610.804688 2313.382812 2610.808594 2313.398438 C 2615.648438 2340.382812 2609.59375 2369.617188 2611.226562 2397.074219 C 2612.613281 2422.484375 2624.304688 2408.5625 2625.390625 2422.769531 C 2626.890625 2442.425781 2621.601562 2456.183594 2626.167969 2476.363281 L 2637.027344 2483.003906 C 2642.917969 2503.753906 2633.9375 2519.285156 2638.890625 2541.949219 L 2649.445312 2548.472656 C 2654.453125 2584.652344 2650.6875 2640.214844 2652.050781 2677.894531 C 2653.546875 2719.238281 2642.585938 2759.683594 2612.160156 2788.773438 C 2592.375 2807.683594 2591.261719 2806.054688 2565.011719 2805.289062 C 2552.566406 2793.320312 2565.570312 2792.820312 2555.847656 2779.988281 C 2532.917969 2787.601562 2504.578125 2846.847656 2474.59375 2834.640625 C 2457.675781 2810.960938 2478.84375 2765.640625 2461.476562 2754.523438 C 2451.921875 2759.6875 2419.871094 2827.445312 2413.1875 2842 C 2403.226562 2847.613281 2388.683594 2845.507812 2376.449219 2845.175781 L 2376.371094 2694.847656 C 2379.632812 2691.882812 2382.863281 2688.890625 2386.070312 2685.867188 C 2448.714844 2626.683594 2443.136719 2552.738281 2442.269531 2473.652344 C 2441.785156 2430.046875 2441.460938 2385.925781 2442.53125 2342.332031 C 2412.515625 2317.75 2421.53125 2306.214844 2390.089844 2277.066406 C 2389.839844 2300.386719 2391.789062 2320.34375 2389.082031 2344.03125 C 2385.425781 2347.164062 2381.703125 2349.527344 2377.441406 2351.761719 C 2374.160156 2393.25 2376.3125 2457.367188 2376.476562 2500.507812 C 2319.722656 2561.046875 2312.046875 2472.042969 2285.558594 2468.664062 C 2267.621094 2477.394531 2215.652344 2516.269531 2200.429688 2531.6875 L 2161.597656 2531.796875 C 2127.445312 2500.960938 2121.851562 2486.679688 2109.230469 2442.304688 C 2092.882812 2457.554688 2033.667969 2512.160156 2023.945312 2527.152344 C 2025.378906 2535.246094 2026.410156 2536.316406 2022.972656 2543.773438 C 2005.789062 2549.269531 1989.570312 2554.554688 1972.636719 2560.769531 C 1972.21875 2582.175781 1969.898438 2623.269531 1973.714844 2642.496094 C 1989.46875 2721.757812 1985.40625 2797.695312 1985.292969 2878.429688 C 2021.234375 2915.902344 2073.398438 2885.019531 2122.320312 2909.929688 C 2133.808594 2924.890625 2129.300781 3009.785156 2129.25 3034.058594 C 2103.320312 3058.878906 2078.574219 3086.488281 2052.097656 3111.023438 C 2013.070312 3147.183594 2012.796875 3143.101562 1964.855469 3143.984375 C 1958.644531 3147.871094 1957.859375 3149.949219 1954.84375 3156.257812 C 1907.660156 3166.984375 1876.921875 3173.371094 1828.609375 3171.324219 C 1828.75 3116.371094 1829.300781 3059.6875 1828.417969 3004.695312 C 1828.011719 2979.359375 1818.296875 2997.519531 1814.996094 2978.949219 C 1813.480469 2973.152344 1818.019531 2929.226562 1815.242188 2927.238281 C 1784.988281 2905.597656 1797.921875 2828.273438 1783.871094 2797.539062 C 1767.925781 2762.660156 1778.398438 2732.464844 1776.210938 2693.855469 C 1772.257812 2690.011719 1768.164062 2686.972656 1763.496094 2684.042969 C 1758.957031 2654.910156 1766.972656 2621.351562 1761.945312 2588.089844 C 1747.253906 2576.8125 1750.316406 2579.285156 1748.8125 2561.550781 L 1744.777344 2558.828125 C 1725.351562 2575.957031 1710.664062 2576.191406 1686.371094 2583.96875 C 1670.242188 2589.132812 1663.921875 2580.804688 1650.101562 2572.472656 C 1639.945312 2586.785156 1645.050781 2661.246094 1645.160156 2683.835938 L 1645.726562 2906.285156 C 1645.261719 2980.3125 1628.992188 3078.40625 1574.238281 3132.339844 C 1509.917969 3132.265625 1427.429688 3135.878906 1363.949219 3128.867188 C 1345.984375 3124.375 1315.390625 3099.234375 1300.230469 3095.113281 C 1233.269531 3076.902344 1240.027344 3090.46875 1240.304688 3024.015625 C 1240.550781 2964.835938 1243.0625 2952.160156 1285.789062 2910.160156 L 1338.46875 2910.269531 L 1384.140625 2910.523438 C 1384.476562 2837.191406 1387.140625 2779.441406 1372.230469 2707.507812 C 1367.964844 2686.949219 1370.847656 2626.761719 1371.011719 2603.027344 C 1334.625 2568.390625 1330.132812 2562.410156 1306.773438 2516.390625 C 1302.183594 2507.351562 1298.21875 2501.417969 1288.941406 2498.84375 C 1264.988281 2506.980469 1232.183594 2560.496094 1208.566406 2584.046875 C 1189.257812 2584.371094 1169.601562 2584.730469 1150.320312 2584.546875 C 1147.316406 2584.515625 1138.484375 2582.8125 1138.570312 2581.097656 C 1138.628906 2577.402344 1138.007812 2564.371094 1135.964844 2562.070312 C 1064.746094 2481.796875 1084.503906 2485.003906 998.261719 2571.707031 C 964.890625 2568.46875 955.589844 2591.222656 930.230469 2581.09375 C 919.59375 2552.742188 934.097656 2273.601562 925.824219 2221.632812 L 919.671875 2218.347656 C 907.367188 2219.007812 909.855469 2217.058594 901.492188 2223.269531 C 899.648438 2235.558594 900.308594 2241.066406 900.960938 2253.246094 C 897.976562 2256.238281 895.902344 2258.207031 892.65625 2261.019531 L 889.722656 2263.539062 C 880.945312 2332.246094 829.414062 2431.941406 835.957031 2499.285156 C 904.789062 2563.128906 888.714844 2626.476562 888.289062 2714.105469 L 801.730469 2714.226562 C 798.253906 2709.929688 794.570312 2705.804688 790.703125 2701.855469 C 749.460938 2659.140625 737.058594 2715.234375 715.796875 2737.925781 L 713.265625 2740.597656 C 676.117188 2741.242188 622.585938 2747.074219 610.433594 2702.511719 L 605.675781 2701.492188 C 589.867188 2722.851562 531.121094 2714.425781 502.730469 2714.203125 L 470.148438 2681.972656 C 471.285156 2653.96875 470.339844 2619.082031 470.351562 2590.550781 C 495.695312 2566.988281 495.84375 2546.226562 528.351562 2526.488281 C 556.46875 2509.417969 578.660156 2525.527344 599.105469 2515.53125 C 597.308594 2507.386719 587.347656 2460.757812 587.539062 2456.386719 C 589.304688 2416.59375 583.601562 2335.726562 589.386719 2300.523438 L 599.632812 2294.007812 C 603.84375 2275.542969 597.816406 2247.683594 601.378906 2222.769531 C 619.613281 2209.828125 613.929688 2183.316406 614.59375 2160.316406 C 653.371094 2116.207031 664.859375 1991.800781 753.835938 1953.070312 C 767.675781 1947.046875 784.066406 1926.308594 785.777344 1909.625 C 815.917969 1901.160156 834.546875 1897.472656 859.246094 1877.421875 L 862.195312 1875 C 861.667969 1806.863281 860.511719 1751.660156 873.898438 1684.34375 C 879.367188 1656.835938 870.746094 1612.40625 876.375 1583.046875 C 882.304688 1578.175781 889.40625 1578.183594 888.652344 1568.277344 C 884.230469 1510.3125 888.6875 1487.957031 914.136719 1436.894531 C 918.914062 1427.308594 905.023438 1376.714844 917.859375 1357.394531 C 925.78125 1357.503906 931.835938 1358.628906 938.339844 1354.535156 C 939.003906 1346.378906 966.101562 1252.460938 969.949219 1242.480469 C 987.660156 1238.761719 1019.683594 1239.980469 1038.8125 1240.035156 C 1043.335938 1244.800781 1059.167969 1259.480469 1064.191406 1261.09375 C 1095.375 1271.121094 1141.105469 1356.980469 1176.207031 1318.839844 C 1191.746094 1301.949219 1212.378906 1276 1225.980469 1259.632812 C 1226.476562 1251.996094 1225.878906 1247.113281 1230.449219 1241.09375 C 1242.84375 1238.265625 1291.730469 1236.835938 1300.414062 1245.183594 C 1317.136719 1261.242188 1344.542969 1337.996094 1361.285156 1345.308594 C 1381.890625 1333.808594 1474.171875 1232.046875 1488.234375 1207.433594 C 1489.328125 1203.558594 1487.253906 1191.089844 1491.015625 1189.105469 C 1544.171875 1161.109375 1640.859375 1280.074219 1665.273438 1307.363281 C 1700.699219 1264.941406 1721.25 1265.839844 1749.828125 1233.613281 C 1749.917969 1225.253906 1749.609375 1224.300781 1751.875 1215.976562 C 1763.738281 1211.363281 1795.519531 1213.359375 1809.921875 1213.554688 L 1855.472656 1260.828125 C 1852.253906 1287.257812 1856.21875 1287.90625 1873.738281 1306.8125 C 1896.3125 1279.773438 1894.917969 1288.886719 1919.210938 1271.585938 C 1921.816406 1269.730469 1944.007812 1235.261719 1955.035156 1223.652344 L 1957.738281 1220.839844 C 1957.996094 1213.429688 1957.425781 1208.617188 1960.996094 1202.136719 C 1964.339844 1201.53125 1993.222656 1199.730469 1994.453125 1201.929688 C 2005.492188 1221.605469 2016.023438 1243.53125 2027.914062 1262.570312 C 2034.238281 1272.0625 2064.539062 1282.640625 2069.121094 1291.078125 C 2097.730469 1343.78125 2118.09375 1393.929688 2161.917969 1437.332031 C 2171.902344 1424.488281 2187.871094 1411.347656 2199.402344 1398.128906 C 2214.65625 1380.644531 2202.515625 1376.097656 2213.828125 1354.632812 C 2240.5625 1303.902344 2304.605469 1232.671875 2298.976562 1174.1875 Z M 2298.976562 1174.1875 "/>
<path style=" stroke:none;fill-rule:nonzero;fill:rgb(0%,0%,0%);fill-opacity:1;" d="M 1311.519531 2036.4375 C 1329.683594 2034.617188 1354.871094 2035.492188 1373.523438 2035.5625 C 1546.574219 2036.175781 1719.667969 2035.113281 1892.714844 2035.644531 C 1899.390625 2035.667969 1935.523438 2036.871094 1939.65625 2038.886719 C 1964.378906 2050.953125 1969.71875 2049.710938 1998.644531 2048.160156 L 1998.863281 2144.933594 C 1959.636719 2183.441406 1939.488281 2248.699219 1908.304688 2276.300781 C 1873.859375 2293.945312 1862.675781 2308.292969 1835.683594 2335.738281 C 1786.914062 2334.339844 1748.78125 2351.550781 1706.898438 2349.976562 C 1652.835938 2347.953125 1617.84375 2334.902344 1559.976562 2336.226562 C 1525.734375 2299.011719 1515.683594 2321.261719 1482.777344 2283.675781 L 1416.625 2284.878906 C 1390.789062 2260.683594 1407.921875 2247.5625 1375.476562 2245.007812 C 1363.757812 2232.6875 1378.003906 2234.554688 1367.550781 2218.632812 C 1363.265625 2218.621094 1349.421875 2218.144531 1348.433594 2216.316406 C 1331.761719 2185.542969 1318.691406 2156.488281 1292.371094 2133.722656 C 1293.078125 2094.5625 1280.140625 2064.21875 1311.519531 2036.4375 Z M 1311.519531 2036.4375 "/>
<path style=" stroke:none;fill-rule:nonzero;fill:rgb(100%,100%,100%);fill-opacity:1;" d="M 1671.421875 2152.992188 C 1735.039062 2151.300781 1744.101562 2168.957031 1815.28125 2166.554688 L 1815.332031 2279.0625 C 1807.039062 2286.765625 1801.71875 2293.757812 1791.003906 2295.46875 C 1749.367188 2299.738281 1733.460938 2326.289062 1671.300781 2323.335938 Z M 1671.421875 2152.992188 "/>
<path style=" stroke:none;fill-rule:nonzero;fill:rgb(100%,100%,100%);fill-opacity:1;" d="M 1501.46875 2152.984375 L 1632.8125 2153.042969 C 1632.617188 2162.996094 1631.671875 2177.5 1636.433594 2185.988281 C 1650.527344 2211.09375 1645.664062 2278.988281 1645.285156 2312.085938 C 1610.410156 2284.210938 1552.75 2291.363281 1501.511719 2237.992188 Z M 1501.46875 2152.984375 "/>
<path style=" stroke:none;fill-rule:nonzero;fill:rgb(100%,100%,100%);fill-opacity:1;" d="M 1338.164062 2075.027344 L 1475.90625 2075.164062 C 1476.464844 2091.730469 1479.390625 2112.835938 1471.261719 2125.992188 L 1462.035156 2127.257812 L 1336.804688 2126.957031 C 1328.152344 2117.996094 1321.570312 2113.339844 1319.433594 2101.382812 C 1321.617188 2089.148438 1329.039062 2084.113281 1338.164062 2075.027344 Z M 1338.164062 2075.027344 "/>
<path style=" stroke:none;fill-rule:nonzero;fill:rgb(100%,100%,100%);fill-opacity:1;" d="M 1501.457031 2075.132812 C 1549.710938 2074.796875 1597.96875 2074.863281 1646.222656 2075.335938 L 1645.386719 2127.164062 L 1501.527344 2127.320312 Z M 1501.457031 2075.132812 "/>
<path style=" stroke:none;fill-rule:nonzero;fill:rgb(100%,100%,100%);fill-opacity:1;" d="M 1859.808594 2074.863281 C 1881.144531 2074.40625 1917.8125 2067.792969 1922.734375 2086.1875 C 1922.253906 2084.378906 1955.402344 2094.527344 1956.839844 2095.054688 C 1961.226562 2113.914062 1944.523438 2103.621094 1947.15625 2139.539062 L 1858.617188 2139.621094 C 1831.78125 2112.875 1835.265625 2100.527344 1859.808594 2074.863281 Z M 1859.808594 2074.863281 "/>
<path style=" stroke:none;fill-rule:nonzero;fill:rgb(100%,100%,100%);fill-opacity:1;" d="M 1702.910156 2074.972656 L 1802.199219 2075.351562 C 1802.527344 2093.414062 1808.242188 2134.109375 1790.132812 2141.433594 C 1779.640625 2138.707031 1779.191406 2137.660156 1770.925781 2130.070312 L 1769.589844 2128.351562 C 1746.070312 2124.109375 1686.957031 2135.0625 1673.710938 2120.085938 C 1688.613281 2098.09375 1681.574219 2098.507812 1702.910156 2074.972656 Z M 1702.910156 2074.972656 "/>
<path style=" stroke:none;fill-rule:nonzero;fill:rgb(100%,100%,100%);fill-opacity:1;" d="M 1395.09375 2153.953125 C 1415.738281 2152.054688 1453.808594 2153 1475.941406 2152.984375 L 1475.453125 2220.566406 C 1449.828125 2206.609375 1408.160156 2180.863281 1395.09375 2153.953125 Z M 1395.09375 2153.953125 "/>
<path style=" stroke:none;fill-rule:nonzero;fill:rgb(100%,100%,100%);fill-opacity:1;" d="M 1854.101562 2166.503906 C 1873.628906 2165.765625 1891.214844 2161.019531 1904.605469 2176.296875 C 1906 2190.378906 1893.273438 2208.894531 1885.230469 2220.722656 L 1855.015625 2250.066406 C 1854.289062 2222.53125 1854.347656 2194.117188 1854.101562 2166.503906 Z M 1854.101562 2166.503906 "/>
<path style=" stroke:none;fill-rule:nonzero;fill:rgb(100%,100%,100%);fill-opacity:1;" d="M 1325.757812 1566.703125 C 1335.363281 1566.210938 1371.84375 1564.175781 1379.175781 1565.742188 C 1423.425781 1575.222656 1436.285156 1581.292969 1482.242188 1578.796875 C 1489.207031 1585.476562 1497.550781 1594.105469 1504.496094 1600.480469 C 1521.320312 1615.921875 1511.242188 1621.367188 1514.726562 1641.164062 L 1524.691406 1646.980469 C 1547.65625 1711.511719 1513.496094 1824.753906 1466.058594 1869.34375 C 1451.816406 1882.730469 1407.082031 1893.449219 1386.839844 1892.824219 L 1379.730469 1893.0625 C 1327.554688 1894.585938 1262.066406 1874.332031 1222.746094 1838.824219 C 1212.035156 1829.148438 1212.503906 1816.667969 1191.382812 1797.167969 L 1188.152344 1794.222656 C 1188.101562 1751.089844 1185.261719 1682.839844 1202.703125 1644.882812 C 1216.050781 1615.835938 1297.179688 1588.25 1325.757812 1566.703125 Z M 1325.757812 1566.703125 "/>
<path style=" stroke:none;fill-rule:nonzero;fill:rgb(0%,0%,0%);fill-opacity:1;" d="M 1319.363281 1696.996094 C 1343.691406 1696.511719 1387.570312 1691.214844 1398.492188 1722.542969 C 1402.476562 1733.96875 1397.796875 1764.804688 1392.605469 1776.546875 C 1372.605469 1793.214844 1346.179688 1788.464844 1319.269531 1787.957031 Z M 1319.363281 1696.996094 "/>
<path style=" stroke:none;fill-rule:nonzero;fill:rgb(100%,100%,100%);fill-opacity:1;" d="M 1862.617188 1592.972656 C 1905.636719 1590.519531 1962.050781 1592.164062 2006.042969 1592.199219 C 2046.675781 1639.511719 2032.972656 1606.035156 2062.710938 1621.675781 L 2061.613281 1639.042969 C 2066.015625 1642.402344 2069.847656 1645.449219 2074.089844 1649.007812 C 2089.808594 1704.601562 2089.535156 1764.226562 2090.046875 1821.222656 C 2079.660156 1832.15625 2021.667969 1877.519531 2010.621094 1879.429688 C 1911.855469 1878.484375 1832.660156 1904.578125 1784.65625 1802.9375 C 1784.160156 1801.890625 1766.195312 1802.3125 1765.527344 1798.976562 C 1758.269531 1762.550781 1761.417969 1718.449219 1766.472656 1681.449219 C 1774.710938 1625.078125 1824.445312 1619.773438 1862.617188 1592.96875 Z M 1862.617188 1592.972656 "/>
<path style=" stroke:none;fill-rule:nonzero;fill:rgb(0%,0%,0%);fill-opacity:1;" d="M 1886.902344 1723.144531 C 1915.9375 1721.628906 1949.738281 1716.714844 1960.984375 1754.0625 C 1964.367188 1765.300781 1960.511719 1787.5 1955.035156 1798.046875 C 1953.175781 1801.621094 1946.425781 1800.792969 1942.261719 1801.105469 L 1866.914062 1801.03125 C 1866.117188 1769.636719 1859.417969 1743.382812 1886.902344 1723.144531 Z M 1886.902344 1723.144531 "/>
<path style=" stroke:none;fill-rule:nonzero;fill:rgb(0%,0%,0%);fill-opacity:1;" d="M 1972.332031 1473.960938 C 2001.929688 1474.523438 2121.851562 1468.550781 2138.628906 1479.007812 C 2152.058594 1500.65625 2171.714844 1540.679688 2167.910156 1566.304688 C 2153.457031 1566.6875 2140.394531 1567.996094 2126.457031 1564.5 C 2112.511719 1553.613281 2120.457031 1537.359375 2100.160156 1517.050781 L 2097.15625 1514.082031 C 2072.042969 1514.183594 1995.390625 1516.25 1975.179688 1512.042969 C 1969.808594 1500.375 1971.835938 1487.289062 1972.332031 1473.960938 Z M 1972.332031 1473.960938 "/>
<path style=" stroke:none;fill-rule:nonzero;fill:rgb(0%,0%,0%);fill-opacity:1;" d="M 1311.546875 1423.054688 C 1344.871094 1422.242188 1419.140625 1418.410156 1447.71875 1425.40625 C 1451.355469 1435.574219 1451.144531 1430.53125 1448.203125 1441.070312 C 1432.425781 1454.863281 1377.054688 1449.175781 1352.660156 1448.925781 L 1340.148438 1449.671875 C 1325.695312 1462.136719 1292.898438 1484.570312 1274.652344 1489.96875 C 1246.070312 1486.183594 1252.765625 1458.9375 1253.398438 1435.265625 C 1278.40625 1436.199219 1294.929688 1442.433594 1311.546875 1423.054688 Z M 1311.546875 1423.054688 "/>
<path style=" stroke:none;fill-rule:nonzero;fill:rgb(63.529414%,38.82353%,23.137255%);fill-opacity:1;" d="M 4074.695312 3027.570312 L 4153.207031 3027.699219 L 4153.140625 3158.289062 C 4197.742188 3158.324219 4246.519531 3157.347656 4290.78125 3158.691406 C 4368.402344 3233.78125 4362.796875 3273.222656 4362.046875 3373.703125 C 4331.796875 3402.367188 4338.429688 3413.128906 4321.132812 3427.210938 C 4347.382812 3445.800781 4352.40625 3446.550781 4375.890625 3471.394531 C 4413.453125 3511.136719 4390.382812 3510.179688 4412.015625 3552.449219 C 4423.363281 3574.59375 4425.3125 3599.949219 4428.902344 3624.347656 C 4433.277344 3627.285156 4437.171875 3630.292969 4440.898438 3633.980469 C 4440.726562 3645.429688 4437.652344 3670.820312 4442.640625 3678.609375 L 4452.007812 3682.914062 C 4460.175781 3712.0625 4445.238281 3780.644531 4457.679688 3808.769531 C 4470.121094 3836.960938 4468.140625 3827.527344 4465.578125 3861.359375 C 4488.714844 3861.324219 4521.152344 3860.128906 4543.199219 3864.195312 C 4602.429688 3878.683594 4599.492188 3912.785156 4636.339844 3948.050781 C 4637.636719 4033.820312 4652.640625 4127.175781 4534.210938 4125.398438 C 4481.230469 4124.613281 4461.917969 4115.011719 4424.289062 4077.457031 C 4419.058594 4086.890625 4414.476562 4097.753906 4408.734375 4106.675781 C 4394.414062 4128.816406 4360.746094 4145.664062 4362.285156 4173.238281 C 4355.140625 4177.75 4341.878906 4176.453125 4341.847656 4176.519531 C 4313.714844 4215.238281 4310.605469 4266.871094 4260.5 4283.886719 C 4259.371094 4292.429688 4258.722656 4298.273438 4258.414062 4306.882812 C 4240.367188 4306.679688 4205.675781 4304.664062 4189.917969 4310.371094 C 4189.710938 4311.257812 4114.996094 4362.789062 4105.664062 4370.988281 C 4079.34375 4368.496094 4045.816406 4395.933594 4018.949219 4403.964844 C 4000.664062 4409.464844 3990.207031 4408.917969 3979.4375 4423.578125 C 3963.988281 4427.304688 3929.058594 4423 3908.207031 4424.226562 C 3905.714844 4427.304688 3903.867188 4429.628906 3901.578125 4432.90625 L 3899.902344 4435.402344 C 3851.570312 4441.382812 3797.292969 4432.222656 3751.492188 4437.179688 L 3747.117188 4446.269531 C 3736.320312 4453 3690.585938 4449.890625 3674.898438 4449.550781 C 3659.414062 4465.816406 3658.457031 4466.53125 3656.304688 4489.121094 C 3650.699219 4548.339844 3674.28125 4666.296875 3625.304688 4711.265625 C 3593.515625 4711.746094 3533.257812 4715.367188 3504.273438 4697.496094 C 3498.566406 4697.289062 3501.4375 4680.71875 3500.101562 4679.488281 C 3446.371094 4628.574219 3468.554688 4613.84375 3461.070312 4557.597656 C 3431.878906 4545.433594 3461.308594 4514.199219 3436.527344 4501.660156 C 3422.960938 4504.496094 3417.96875 4511.5 3407.867188 4521.308594 C 3408.359375 4532.789062 3409.25 4544.167969 3405.902344 4555.308594 C 3389.214844 4610.835938 3384.316406 4677.265625 3338.621094 4719.605469 C 3275.140625 4778.414062 3210.246094 4698.214844 3179.171875 4698.792969 C 3178.300781 4698.792969 3177.4375 4698.898438 3176.566406 4698.964844 C 3172.046875 4691.824219 3174.941406 4673.472656 3174.363281 4661.34375 L 3164.933594 4657.515625 C 3146.738281 4623.140625 3175.253906 4581.414062 3121.074219 4534.910156 L 3082 4573.933594 C 3085.34375 4625.191406 3041.269531 4718.988281 3042.492188 4757.398438 L 3010.070312 4789.929688 C 2991.265625 4790.132812 2929.152344 4792.867188 2915.28125 4787.914062 C 2915.046875 4787.265625 2910.160156 4769.597656 2911.894531 4771.578125 C 2869.359375 4722.613281 2830.160156 4700.605469 2832.855469 4625.394531 C 2812.121094 4646.171875 2791.375 4671.96875 2794.609375 4703.886719 C 2797.667969 4734.058594 2764.824219 4799.394531 2750.484375 4825.46875 C 2728.859375 4831.378906 2669.257812 4828.679688 2644.117188 4828.371094 C 2640.476562 4825.058594 2636.960938 4821.640625 2633.566406 4818.121094 C 2570.390625 4753.160156 2572.34375 4650.816406 2573.230469 4567.851562 C 2553.789062 4567.441406 2514.515625 4570.855469 2498.414062 4565.390625 C 2495 4558.007812 2495.621094 4557.976562 2488.820312 4553.804688 C 2438.667969 4560.8125 2304.164062 4477.605469 2300.386719 4420.539062 C 2296.046875 4355.066406 2296.429688 4286.65625 2315.261719 4222.992188 C 2321.722656 4201.15625 2347.097656 4159.945312 2348.878906 4141.152344 C 2333.144531 4124.441406 2290.632812 4109.238281 2275.757812 4094.613281 C 2262.171875 4081.25 2254.183594 4028.046875 2245.984375 4008.601562 C 2242.457031 4000.230469 2233.984375 3989.636719 2233.898438 3984.957031 C 2233.25 3950.101562 2232.144531 3913.914062 2234.289062 3879.230469 C 2243.378906 3873.316406 2260.238281 3875.4375 2272.199219 3875.574219 C 2272.433594 3903.628906 2269.003906 3937.082031 2272.792969 3964.179688 C 2277.78125 3967.085938 2280.246094 3968.65625 2284.878906 3972.105469 C 2290.007812 4001.769531 2299.820312 4015.914062 2297.25 4037.785156 C 2312.234375 4053.332031 2348.730469 4097.753906 2369.167969 4094.882812 C 2382.03125 4078.550781 2377.203125 4025.140625 2376.765625 4002.417969 C 2416.222656 3961.035156 2408.515625 3944.324219 2466.054688 3911.007812 C 2480.566406 3902.636719 2545.800781 3787.921875 2569.152344 3770.839844 C 2583.949219 3760.003906 2613.609375 3720.539062 2630.199219 3706.800781 C 2653.894531 3666.546875 2659.054688 3637.707031 2706.074219 3614.605469 C 2724.457031 3605.585938 2727.742188 3598.992188 2732.726562 3579.71875 C 2754.992188 3570.046875 2839.777344 3518.277344 2849.066406 3516.328125 C 2925.28125 3500.40625 2997.460938 3412.363281 3070.257812 3407.191406 C 3152.699219 3401.328125 3234.148438 3411.21875 3313.371094 3405.808594 C 3314.550781 3403.953125 3316.765625 3400.40625 3318.023438 3398.75 C 3328.574219 3384.84375 3531.445312 3397.402344 3562.925781 3391.847656 L 3569.042969 3381.074219 C 3616.109375 3375.773438 3673.839844 3384 3718.957031 3379.292969 C 3721.996094 3373.710938 3722.238281 3373.164062 3726.40625 3368.386719 C 3793.160156 3364.683594 3820.296875 3353.257812 3890.707031 3354.867188 C 3890.503906 3330.59375 3890.160156 3309.851562 3892.316406 3285.527344 C 3900.347656 3205.855469 3987.914062 3183.597656 4054.875 3184.175781 L 4074.492188 3165.945312 Z M 4074.695312 3027.570312 "/>
<path style=" stroke:none;fill-rule:nonzero;fill:rgb(0%,0%,0%);fill-opacity:1;" d="M 4074.695312 3027.570312 L 4153.207031 3027.699219 L 4153.140625 3158.289062 C 4197.742188 3158.324219 4246.519531 3157.347656 4290.78125 3158.691406 C 4368.402344 3233.78125 4362.796875 3273.222656 4362.046875 3373.703125 C 4331.796875 3402.367188 4338.429688 3413.128906 4321.132812 3427.210938 C 4317.441406 3430.902344 4308.625 3433.054688 4304.625 3432.816406 C 4287.671875 3431.722656 4246.585938 3456.085938 4234.351562 3456.769531 C 4159.429688 3460.496094 4081.875 3459.980469 4006.917969 3457.042969 C 3980.328125 3455.984375 3943.925781 3424.308594 3914.53125 3420.105469 L 3911.761719 3419.695312 L 3907.492188 3419.113281 C 3886.640625 3387.664062 3894.332031 3326.609375 3892.316406 3285.527344 C 3900.347656 3205.855469 3987.914062 3183.597656 4054.875 3184.175781 L 4074.492188 3165.945312 Z M 4074.695312 3027.570312 "/>
<path style=" stroke:none;fill-rule:nonzero;fill:rgb(0%,0%,0%);fill-opacity:1;" d="M 4447.90625 3861.460938 C 4481.675781 3865.183594 4509.496094 3864.636719 4543.199219 3864.195312 C 4602.429688 3878.683594 4599.492188 3912.785156 4636.335938 3948.050781 C 4637.636719 4033.820312 4652.640625 4127.175781 4534.207031 4125.398438 C 4481.230469 4124.613281 4461.917969 4115.011719 4424.285156 4077.457031 C 4418.820312 4069.632812 4395.644531 4047.046875 4387.679688 4038.980469 C 4386.277344 3941.761719 4376.878906 3930.144531 4447.90625 3861.460938 Z M 4447.90625 3861.460938 "/>
<path style=" stroke:none;fill-rule:nonzero;fill:rgb(0%,0%,0%);fill-opacity:1;" d="M 3800.199219 4084.804688 L 3732.082031 4085.078125 C 3718.101562 4076.328125 3717.757812 4060.851562 3725.585938 4047.453125 C 3744.316406 4044.617188 3870.199219 4042.023438 3878.539062 4050.804688 C 3879.054688 4064.265625 3880.113281 4068.777344 3875.191406 4081.457031 C 3865.449219 4087.605469 3864.628906 4085.214844 3851.265625 4084.019531 L 3846.378906 4088.359375 C 3844.667969 4169.855469 3936.75 4185.507812 3976.773438 4228.085938 C 4004.117188 4227.605469 4045.542969 4225.761719 4071.246094 4229.109375 C 4079.140625 4243.085938 4081.191406 4242.8125 4098.792969 4242.4375 C 4137.894531 4241.652344 4177.816406 4275.136719 4217.535156 4279.886719 C 4232.199219 4281.632812 4243.476562 4276.777344 4255.167969 4285.015625 L 4258.414062 4306.882812 C 4240.367188 4306.679688 4205.675781 4304.664062 4189.917969 4310.367188 C 4178.742188 4303.875 4176.417969 4292.804688 4156.832031 4294.375 C 4116.5 4297.625 4090.523438 4281.117188 4051.421875 4279.648438 L 4045.988281 4269.023438 C 4022.164062 4263.621094 3968.160156 4271.175781 3949.496094 4264.785156 C 3895.902344 4246.367188 3851.847656 4209.460938 3812.640625 4169.414062 C 3812.710938 4167.667969 3812.746094 4165.925781 3812.777344 4164.183594 C 3813.257812 4125.433594 3797.261719 4120 3800.199219 4084.804688 Z M 3800.199219 4084.804688 "/>
<path style=" stroke:none;fill-rule:nonzero;fill:rgb(0%,0%,0%);fill-opacity:1;" d="M 4022.128906 3628.617188 C 4036.109375 3628.070312 4047.320312 3626.257812 4060 3631.554688 C 4064.03125 3649.871094 4062.1875 3807.675781 4062.1875 3836.855469 C 4047.011719 3837.917969 4043.046875 3838.222656 4027.5625 3836.003906 C 4018.265625 3826.570312 4022.058594 3655.648438 4022.128906 3628.617188 Z M 4022.128906 3628.617188 "/>
<path style=" stroke:none;fill-rule:nonzero;fill:rgb(0%,0%,0%);fill-opacity:1;" d="M 4204.785156 3666.683594 C 4219.003906 3666.238281 4228.4375 3665.078125 4242.28125 3668.800781 C 4253.117188 3694.976562 4240.332031 3785.632812 4232.265625 3814.507812 C 4230.761719 3819.839844 4231.410156 3855.003906 4231.582031 3862.621094 C 4219.242188 3863.339844 4204 3862.828125 4191.421875 3862.757812 C 4191.320312 3850.082031 4190.496094 3804.632812 4192.273438 3794.722656 C 4202.152344 3739.742188 4205.742188 3722.554688 4204.785156 3666.683594 Z M 4204.785156 3666.683594 "/>
<path style=" stroke:none;fill-rule:nonzero;fill:rgb(0%,0%,0%);fill-opacity:1;" d="M 3917.675781 3575.035156 L 4048.992188 3575.035156 C 4049.710938 3588.125 4051.660156 3600.050781 4047.355469 3612.113281 L 4040.347656 3615.152344 C 4018.300781 3615.734375 3978.859375 3612.25 3960.128906 3616.761719 L 3955.273438 3627.011719 C 3937.5 3633.675781 3934.425781 3636.578125 3920.820312 3623.96875 C 3914.667969 3609.753906 3917.027344 3591.0625 3917.675781 3575.035156 Z M 3917.675781 3575.035156 "/>
<path style=" stroke:none;fill-rule:nonzero;fill:rgb(0%,0%,0%);fill-opacity:1;" d="M 4228.644531 3562.324219 C 4254.859375 3560.582031 4298.949219 3569.980469 4318.195312 3590.140625 C 4325.953125 3598.273438 4323.695312 3614.332031 4322.363281 3624.789062 L 4316.722656 3628.925781 C 4301.582031 3629.640625 4289.039062 3631.113281 4274.992188 3624.039062 C 4255.199219 3614.128906 4218.9375 3597.007812 4215.929688 3571.894531 C 4221.292969 3562.871094 4217.570312 3566.425781 4228.644531 3562.324219 Z M 4228.644531 3562.324219 "/>
<path style=" stroke:none;fill-rule:nonzero;fill:rgb(0%,0%,0%);fill-opacity:1;" d="M 4270.101562 3993.703125 C 4282.988281 3993.089844 4295.875 3990.628906 4306.160156 3996.949219 C 4312.621094 4007.167969 4310.296875 4020.050781 4309.820312 4032.933594 C 4297.035156 4033.445312 4284.96875 4035.5625 4274.304688 4029.6875 C 4267.332031 4019.777344 4269.726562 4006.722656 4270.101562 3993.703125 Z M 4270.101562 3993.703125 "/>
<path style=" stroke:none;fill-rule:nonzero;fill:rgb(0%,0%,0%);fill-opacity:1;" d="M 4166.707031 4070.929688 C 4179.117188 4070.417969 4189.847656 4068.605469 4200.75 4073.765625 C 4208.101562 4083.847656 4205.367188 4097.890625 4204.785156 4111.457031 C 4191.589844 4111.9375 4180.621094 4114.019531 4169.785156 4107.527344 C 4163.394531 4096.628906 4165.921875 4084.257812 4166.707031 4070.929688 Z M 4166.707031 4070.929688 "/>
<path style=" stroke:none;fill-rule:nonzero;fill:rgb(0%,0%,0%);fill-opacity:1;" d="M 4153.277344 3965.683594 C 4164.144531 3965.992188 4165.921875 3965.511719 4175.699219 3969.648438 C 4182.980469 3983.382812 4179.902344 3990.558594 4179.457031 4007.988281 C 4168.964844 4008.261719 4165.207031 4009.355469 4156.386719 4004.535156 C 4149.515625 3993.976562 4152.492188 3979.285156 4153.277344 3965.683594 Z M 4153.277344 3965.683594 "/>
<path style=" stroke:none;fill-rule:nonzero;fill:rgb(1.176471%,69.01961%,99.607843%);fill-opacity:1;" d="M 5608.957031 769.925781 C 5673.417969 770.492188 5803.300781 766.449219 5863.664062 772.269531 C 5892.441406 775.042969 6032.476562 865.800781 6065.21875 893.941406 C 6162.460938 977.554688 6282.328125 1089.15625 6363.164062 1191.640625 C 6374.339844 1205.808594 6385.585938 1281.878906 6387.84375 1302.058594 L 6396.761719 1306.28125 C 6405.71875 1320.523438 6394.746094 1376.167969 6399.90625 1388.484375 C 6416.382812 1427.792969 6432.378906 1444.109375 6424.652344 1490.054688 C 6420.894531 1512.421875 6448.75 1543.5 6450.871094 1562.492188 C 6453.945312 1590.351562 6446.253906 1626.070312 6451.417969 1654.789062 L 6460.40625 1659.378906 C 6472.199219 1680.511719 6475.582031 1756.871094 6479.683594 1784.25 L 6489.527344 1790.085938 C 6495.542969 1803.1875 6488.261719 1816.523438 6491.304688 1836.421875 C 6521.621094 1855.527344 6494.585938 1935.121094 6504.054688 1963.164062 C 6510.648438 1982.75 6518.339844 1959.011719 6517.691406 2001.828125 C 6517.316406 2027.023438 6513.316406 2076.03125 6518.167969 2098.234375 C 6536.96875 2108.148438 6527.671875 2140.832031 6530.371094 2163.566406 C 6532.558594 2199.269531 6545.101562 2243.480469 6542.503906 2278.859375 C 6539.464844 2320.78125 6554.332031 2299.703125 6555.972656 2324.242188 C 6558.605469 2363.777344 6550.8125 2412.9375 6559.015625 2451.621094 C 6563.046875 2470.609375 6585.742188 2493.15625 6580.511719 2516.542969 C 6534.269531 2520.066406 6463.140625 2512.433594 6422.980469 2518.929688 C 6321.054688 2535.410156 6233.144531 2531.910156 6130.128906 2531.691406 C 6108.253906 2531.203125 6087.164062 2530.328125 6065.289062 2532.191406 C 6061.699219 2534.585938 6060.09375 2536.472656 6058.144531 2540.261719 C 6051.070312 2554.105469 5931.714844 2536.386719 5919.785156 2546.109375 C 5916.503906 2548.765625 5916.539062 2553.695312 5912.230469 2556.058594 C 5901.15625 2562.148438 5722.261719 2560.972656 5696.898438 2556.804688 L 5690.578125 2546.007812 C 5672.972656 2542.214844 5598.597656 2544.894531 5576.074219 2545.070312 L 5575.492188 2584.117188 L 5237.011719 2584.277344 C 5237.285156 2502.371094 5240.566406 2440.269531 5225.664062 2359.539062 C 5220.433594 2331.023438 5221.699219 2211.570312 5225.425781 2182.503906 L 5234.210938 2177.144531 C 5241.386719 2165.324219 5232.875 2057.859375 5238.6875 2026.496094 C 5240.773438 2025.328125 5247.574219 2021.539062 5247.742188 2020.101562 C 5252.496094 1980.902344 5250.070312 1837.71875 5249.625 1805.851562 C 5246 1802.304688 5242.140625 1799.578125 5237.867188 1796.878906 C 5234.617188 1741.6875 5236.945312 1662.699219 5236.945312 1606.054688 L 5237.25 1283.066406 C 5247.332031 1271.828125 5248.972656 1280.460938 5250.308594 1263.359375 C 5253.109375 1227.210938 5248.289062 1190.046875 5249.042969 1153.902344 C 5249.351562 1139.445312 5248.5625 1138.132812 5260.628906 1131.988281 C 5265.210938 1112.414062 5270.234375 1066.96875 5279.15625 1050.730469 C 5291.390625 1028.484375 5288.042969 1041.054688 5288.792969 1012.921875 C 5340.269531 966.957031 5311.386719 942.835938 5379.371094 910.054688 C 5381.59375 844.21875 5542.75 791.925781 5596.445312 780.613281 C 5602.5625 779.328125 5604.410156 774.957031 5608.957031 769.921875 Z M 5608.957031 769.925781 "/>
<path style=" stroke:none;fill-rule:nonzero;fill:rgb(0%,0%,0%);fill-opacity:1;" d="M 5929.492188 1747.652344 L 5968.011719 1747.6875 C 5968.285156 1756.144531 5969.3125 1784.941406 5967.535156 1791.972656 C 5958.921875 1826.132812 5952.1875 1819.992188 5955.535156 1857.84375 C 5896.167969 1919.253906 5922.996094 1964.484375 5810.683594 1977.042969 C 5801.179688 1978.105469 5758.492188 2004.632812 5741.332031 2007.015625 C 5702.027344 2012.46875 5664.394531 2009.886719 5624.984375 2010.113281 C 5600.855469 2009.820312 5566.707031 2012.738281 5546.578125 2002.339844 C 5532.871094 1995.28125 5535.878906 1996.128906 5518.582031 1997.382812 C 5482.558594 1961.445312 5491.375 1984.714844 5454.429688 1960.621094 C 5422.777344 1939.960938 5427.460938 1894.113281 5380.15625 1892.609375 C 5379.882812 1874.859375 5375.644531 1820.164062 5390.035156 1811.917969 C 5417.308594 1826.113281 5454.460938 1893.617188 5479.722656 1915.90625 C 5492.710938 1927.335938 5541.109375 1966.046875 5557.070312 1968.101562 C 5606.597656 1974.457031 5673.65625 1968.273438 5725.4375 1970.925781 C 5743.726562 1971.859375 5760.027344 1956.691406 5774.246094 1949.847656 C 5815.367188 1929.761719 5857.40625 1912.503906 5887.175781 1876.515625 C 5916.640625 1840.875 5914.214844 1838.902344 5916.980469 1798.300781 C 5918.179688 1780.488281 5931.714844 1786.765625 5929.492188 1747.648438 Z M 5929.492188 1747.652344 "/>
<path style=" stroke:none;fill-rule:nonzero;fill:rgb(0%,0%,0%);fill-opacity:1;" d="M 5485.464844 1264.609375 L 5524.601562 1265.039062 C 5523.984375 1330.601562 5524.121094 1396.175781 5525.011719 1461.738281 L 5485.089844 1462.046875 Z M 5485.464844 1264.609375 "/>
<path style=" stroke:none;fill-rule:nonzero;fill:rgb(0%,0%,0%);fill-opacity:1;" d="M 5786.039062 1264.585938 L 5824.664062 1265.007812 C 5824.390625 1330.613281 5824.492188 1396.222656 5825.003906 1461.828125 L 5785.59375 1462.058594 Z M 5786.039062 1264.585938 "/>
<path style=" stroke:none;fill-rule:nonzero;fill:rgb(0%,0%,0%);fill-opacity:1;" d="M 5426.675781 1161.171875 L 5498.554688 1161.0625 C 5499.203125 1173.449219 5500.8125 1181.742188 5496.265625 1193.171875 C 5471.074219 1211.828125 5472.203125 1190.957031 5438.46875 1228.046875 L 5429.308594 1237.105469 C 5414.984375 1241.84375 5401.039062 1245.128906 5386.71875 1239.945312 C 5363.066406 1214.304688 5408.527344 1178.382812 5426.675781 1161.171875 Z M 5426.675781 1161.171875 "/>
<path style=" stroke:none;fill-rule:nonzero;fill:rgb(0%,0%,0%);fill-opacity:1;" d="M 5811.570312 1109.445312 L 5898.796875 1109.40625 C 5903.6875 1115.492188 5910.796875 1122.242188 5916.46875 1127.917969 L 5916.675781 1188.652344 C 5887.382812 1187.941406 5876.375 1168.414062 5856.824219 1148.078125 C 5842.640625 1148.730469 5826.578125 1151.53125 5815.195312 1144.832031 C 5808.769531 1134.058594 5810.992188 1122.582031 5811.570312 1109.445312 Z M 5811.570312 1109.445312 "/>
</g>
</svg>
