<svg id="svg" version="1.1" viewBox="0 0 300 274.2857142857142" width="300" height="274.2857142857142" xmlns="http://www.w3.org/2000/svg"><svg xmlns="http://www.w3.org/2000/svg"><defs><clipPath id="clip-1"><rect x="0" y="0" transform="scale(0.17857,0.17857)" width="1680" height="1536" fill="none"/></clipPath></defs><g clip-path="url(#clip-1)" fill="none" fill-rule="nonzero" stroke="none" stroke-width="1" stroke-linecap="butt" stroke-linejoin="miter" stroke-miterlimit="10" stroke-dasharray="" stroke-dashoffset="0" font-family="none" font-weight="none" font-size="none" text-anchor="none" style="mix-blend-mode: normal"><path d="M0,0h300v274.28571h-300z" fill="#ffffff"/><path d="M18.56161,204.42321c6.52839,-1.59286 16.85696,-1.10714 22.61143,2.68214c3.33804,2.19821 4.65643,5.53036 10.26875,6.42679c0.23839,0.04643 1.77411,0.43571 1.83643,0.41607c4.28161,-1.34286 8.71446,-3.5625 13.28196,-3.28036c1.03839,0.06607 4.37839,-0.10714 5.08857,0.29464c5.20589,2.94464 11.33536,6.5625 17.52214,6.25714c1.20429,-0.06071 2.48429,-0.16786 3.65179,-0.51786c1.71446,-0.59464 4.78946,-1.47857 6.2175,-2.51607c3.61304,-2.625 5.625,-2.61607 9.74643,-3.49643c6.65357,-1.42143 12.88804,-1.57143 19.68357,-1.40536c3.86768,0.09464 7.55929,0.85179 11.185,2.22143c3.40268,1.27857 6.91,3.22143 10.64821,3.39107c3.25554,0.14643 4.99214,-1.95714 7.16625,-4.07321c6.43375,-0.78393 13.57393,0.84464 17.55304,5.87143c5.39161,6.81071 10.35946,7.88929 18.61304,8.42321c0.66071,0.04286 2.7375,0.5375 3.28571,0.34643l0.04643,-0.66429c0.47857,-0.45893 5.60893,-1.1 6.7875,-1.39107c1.32679,-0.32857 2.94464,-0.51607 4.38929,-0.98571c3.11964,-1.01429 6.04464,-2.19464 9.36786,-2.29464c2.93929,-0.0875 5.66607,1.30893 8.45179,1.79464c1.97679,0.3375 4.79464,0.14107 6.69821,0.32857c6.90179,0.68036 11.80179,1.76964 17.25714,-3.51071c0.48571,-0.47143 5.19464,-2.47857 6.24643,-2.65357c3.94107,-0.6625 8.67679,-0.3875 12.7875,-0.35893c0.59464,0.5625 1.18214,1.13036 1.7625,1.70714c1.85357,1.86607 2.04643,3.1625 2.47679,5.69107c1.36429,6.65179 1.31607,13.48571 1.92857,20.17679c0.66071,7.22143 0.61071,13.70893 0.60357,20.95893c-3.66786,0.02679 -7.88214,0.13929 -11.51071,-0.06607c-3.79643,-0.21607 -8.10893,-1.07143 -11.91964,-1.25179c-4.16607,-0.19821 -8.54286,-0.02857 -12.73036,-0.11786c-2.19643,-0.04643 -4.21607,-0.32143 -6.33571,-0.41607c-1.46071,0.03571 -2.92679,0.42321 -4.38929,0.4375c-8.10714,0.08214 -16.09643,-0.3375 -24.16964,0.64464c-2.55714,0.31071 -6.47321,0.09107 -9.14107,0.03571l-1.09286,-0.01786c-8.14107,0.2 -16.44143,0.05714 -24.59143,0.01071c-2.27804,0.00179 -5.56946,-1.74643 -7.68679,-1.56964c-3.84393,0.32143 -8.05286,1.19821 -11.7575,2.08036c-7.8125,1.8625 -15.08839,2.07679 -23.01321,1.00357c-0.90286,-0.12321 -2.18071,0.00357 -3.10786,-0.05179c-5.78643,0.2375 -11.17143,-0.12857 -16.9025,-0.66786c-4.72125,-0.44286 -10.27857,0.24286 -15.08821,-0.03214c-2.365,-0.01607 -4.98411,0.06964 -7.32732,-0.16786c-0.82571,-0.0125 -1.36536,-0.08393 -2.16321,-0.29107c-4.24286,-0.52321 -9.03518,-0.30714 -13.36107,-0.89286c-2.23411,-0.30179 -4.90304,0.04821 -7.24607,-0.36607c-2.18125,-0.3875 -4.35196,-0.77143 -6.52554,-1.15536c-3.80571,-0.68214 -7.62518,-1.28214 -11.45625,-1.8c-4.11,-0.53036 -7.93107,-0.30714 -12.32679,-0.96786c-6.47911,-0.97143 -13.21946,-2.23393 -19.74225,-2.21607c-0.03923,-4.49821 1.01039,-6.0375 2.32545,-10.27679c0.96005,-3.09464 2.40055,-7.35357 2.92441,-10.55893c1.02829,-5.2875 0.06648,-11.03036 0.46882,-16.29107c0.40036,-5.23571 0.71893,-9.60179 0.70321,-14.87679z" fill="#03b0fe"/><path d="M87.33125,219.12321c1.51393,0.08571 3.10339,0.23036 4.65536,0.13393c3.56411,-0.24107 6.52982,-2.49821 9.63107,-4.03929c0.69446,-0.34464 1.83232,-0.95536 2.56839,-1.13036c8.83036,-2.1 18.61018,-3.6625 27.65893,-2.20893c6.59214,1.05893 14.5025,5.65536 21.29125,4.24643c0.74482,-0.15714 1.47875,-0.3625 2.19696,-0.61607c0.77161,-0.26429 1.55964,-0.58929 2.31286,-0.90179c0.32268,-0.4875 0.79232,-1.24464 1.12625,-1.69643c4.06482,-0.33214 8.67518,0.84821 12.15946,2.93929c0.71036,0.42679 2.54214,2.84107 3.14643,3.5125c3.78857,4.20893 7.78786,7.09643 13.60036,7.40357c0.87857,0.04643 7.02679,0.49643 7.34286,0.79464c0.00179,2.0125 0.05,4.17143 -0.10893,6.17143c-0.19643,2.45357 -0.55179,4.80536 -0.61607,7.28036c-0.18393,6.99464 0.25179,14.20714 -0.04107,21.17857c0.08393,0.45714 0.17679,0.85536 0.18036,1.31964c-8.14107,0.2 -16.44143,0.05714 -24.59143,0.01071c-2.27804,0.00179 -5.56946,-1.74643 -7.68679,-1.56964c-3.84393,0.32143 -8.05286,1.19821 -11.7575,2.08036c-7.8125,1.8625 -15.08839,2.07679 -23.01321,1.00357c-0.90286,-0.12321 -2.18071,0.00357 -3.10786,-0.05179c-5.78643,0.2375 -11.17143,-0.12857 -16.9025,-0.66786c-4.72125,-0.44286 -10.27857,0.24286 -15.08821,-0.03214c-2.365,-0.01607 -4.98411,0.06964 -7.32732,-0.16786c0.00464,-0.50536 -0.05268,-0.69286 -0.15768,-1.17679c-0.13196,-0.06071 -0.43375,-0.14286 -0.43696,-0.31607c-0.10714,-5.65179 -0.20839,-11.50179 0.06589,-17.17143c0.04571,-2.03393 1.205,-5.44821 1.16286,-7.34107c-0.08857,-3.98929 0.45679,-6.11786 1.51679,-9.8c0.55911,-1.94286 -0.44982,-6.75179 0.21946,-9.1875z" fill="#ffffff"/><path d="M84.80321,262.93929c1.18821,-0.09107 2.54911,-0.06786 3.75482,-0.06786c13.02857,0.00536 26.06054,-0.04107 39.08875,0.00714c4.05357,0.14286 8.08946,1.075 12.15589,0.4875c3.09482,-0.44643 6.76464,-0.17321 9.76446,-0.84643c4.29929,-0.9625 8.67393,-2.9875 13.15018,-3.12143c2.7275,-0.08214 5.31625,2.36071 7.99946,2.65714c2.47464,0.19643 5.46911,0.11071 7.98857,0.10714c5.18393,-0.04286 10.36607,-0.03214 15.55,0.02857c0.08393,0.45714 0.17679,0.85536 0.18036,1.31964c-8.14107,0.2 -16.44143,0.05714 -24.59143,0.01071c-2.27804,0.00179 -5.56946,-1.74643 -7.68679,-1.56964c-3.84393,0.32143 -8.05286,1.19821 -11.7575,2.08036c-7.8125,1.8625 -15.08839,2.07679 -23.01321,1.00357c-0.90286,-0.12321 -2.18071,0.00357 -3.10786,-0.05179c-5.78643,0.2375 -11.17143,-0.12857 -16.9025,-0.66786c-4.72125,-0.44286 -10.27857,0.24286 -15.08821,-0.03214c-2.365,-0.01607 -4.98411,0.06964 -7.32732,-0.16786c0.00464,-0.50536 -0.05268,-0.69286 -0.15768,-1.17679z" fill="#000000"/><path d="M136.13143,225.73571c0.58125,-0.05893 0.44714,-0.13571 0.85589,0.11071c0.35732,1.00357 0.21464,2.81429 0.19036,3.9625c-1.5,0.84643 -2.92429,1.64107 -4.25179,2.75179c-1.50214,1.25714 -2.71375,2.66071 -4.35857,3.72679c-0.13375,4.60357 0.15518,4.99464 2.40161,9.125c1.15982,0.32321 6.84089,1.72321 7.28911,1.43393c3.28571,-2.11786 3.85536,-1.88036 8.13589,-1.98036c0.06518,1.57321 0.04964,3.1375 0.04696,4.7125c-1.30571,1.32857 -2.82643,2.7125 -4.19107,4.00179c-0.6325,0.61071 -1.36161,1.43929 -1.97161,2.09643c-1.95643,0.11607 -5.87607,0.44286 -7.44804,-0.72857c-5.87018,-4.37679 -10.98143,-8.59286 -10.02232,-16.72143c0.14232,-1.20714 0.0125,-2.83393 0.18232,-4.22143c2.95768,-4.23929 8.2,-7.06071 13.14125,-8.26964z" fill="#000000"/><path d="M144.39446,228.57321h4.17482l0.02232,6.41964l7.14054,0.01607c0.09268,1.09107 0.09214,1.35536 -0.04857,2.43929l-3.54589,3.69107l0.00446,4.57679c-0.82911,0.03036 -2.30107,0.25536 -2.825,-0.38036c-0.01018,-0.625 -0.02339,-0.94821 -0.12018,-1.56429c-1.21,-0.92857 -6.35357,1.64107 -7.37357,-0.12143c0.12429,-0.95357 1.11554,-2.03393 1.83518,-2.64464c-1.32518,-0.59286 -4.77071,-1.05179 -4.34393,-2.56429c0.78375,-0.86786 1.72268,-1.13929 2.80839,-1.48571c-0.18393,-5.43571 2.11411,-4.86964 2.27143,-8.38214z" fill="#000000"/><path d="M20.71339,206.57143c0.11196,-0.04464 0.22446,-0.08929 0.33732,-0.13393c4.71661,-1.83036 14.36893,-0.10357 18.49321,2.73393c2.56339,1.76429 4.62161,5.04821 8.14482,5.73571c3.59107,0.7 7.21375,0.90179 10.77268,-0.11607c4.02304,-1.15357 6.56125,-2.65357 11.07054,-1.79286c0.81929,0.15536 2.43536,0.99286 3.30607,1.3875c3.685,1.67321 7.29536,3.29643 11.00446,4.91964c1.10804,-0.39464 2.47857,-1.03571 3.48875,-0.18214c-0.66929,2.43571 0.33964,7.24464 -0.21946,9.1875c-1.06,3.68214 -1.60536,5.81071 -1.51679,9.8c0.04214,1.89286 -1.11714,5.30714 -1.16286,7.34107c-0.27429,5.66964 -0.17304,11.51964 -0.06589,17.17143c0.00321,0.17321 0.305,0.25536 0.43696,0.31607c0.105,0.48393 0.16232,0.67143 0.15768,1.17679c-0.82571,-0.0125 -1.36536,-0.08393 -2.16321,-0.29107c0.04911,-0.34643 0.09482,-0.69464 0.13679,-1.04107l-0.29321,-0.30536c-1.78429,-0.38571 -4.75589,-0.33929 -6.65893,-0.45357c-9.87982,-0.59286 -19.41429,-3.12857 -29.21107,-4.36964c-4.59054,-0.58214 -9.14339,-0.43393 -13.71821,-1.1375c-6.13518,-0.85893 -12.64946,-2.21786 -18.85093,-2.22679c0.70273,-1.09286 1.06039,-2.65714 1.49273,-3.9125c2.34945,-6.81429 3.38784,-14.60714 4.20105,-21.75536c0.32714,-3.07857 -0.18089,-6.64286 0.14661,-9.66964c0.46429,-4.28929 0.645,-8.07321 0.67089,-12.38214z" fill="#00cd00"/><path d="M18.56161,204.42321c6.52839,-1.59286 16.85696,-1.10714 22.61143,2.68214c3.33804,2.19821 4.65643,5.53036 10.26875,6.42679c0.23839,0.04643 1.77411,0.43571 1.83643,0.41607c4.28161,-1.34286 8.71446,-3.5625 13.28196,-3.28036c1.03839,0.06607 4.37839,-0.10714 5.08857,0.29464c5.20589,2.94464 11.33536,6.5625 17.52214,6.25714c1.20429,-0.06071 2.48429,-0.16786 3.65179,-0.51786c1.71446,-0.59464 4.78946,-1.47857 6.2175,-2.51607c3.61304,-2.625 5.625,-2.61607 9.74643,-3.49643c6.65357,-1.42143 12.88804,-1.57143 19.68357,-1.40536c3.86768,0.09464 7.55929,0.85179 11.185,2.22143c3.40268,1.27857 6.91,3.22143 10.64821,3.39107c3.25554,0.14643 4.99214,-1.95714 7.16625,-4.07321c6.43375,-0.78393 13.57393,0.84464 17.55304,5.87143c5.39161,6.81071 10.35946,7.88929 18.61304,8.42321c0.66071,0.04286 2.7375,0.5375 3.28571,0.34643l0.04643,-0.66429c0.47857,-0.45893 5.60893,-1.1 6.7875,-1.39107c1.32679,-0.32857 2.94464,-0.51607 4.38929,-0.98571c3.11964,-1.01429 6.04464,-2.19464 9.36786,-2.29464c2.93929,-0.0875 5.66607,1.30893 8.45179,1.79464c1.97679,0.3375 4.79464,0.14107 6.69821,0.32857c6.90179,0.68036 11.80179,1.76964 17.25714,-3.51071c0.48571,-0.47143 5.19464,-2.47857 6.24643,-2.65357c3.94107,-0.6625 8.67679,-0.3875 12.7875,-0.35893c0.59464,0.5625 1.18214,1.13036 1.7625,1.70714c1.85357,1.86607 2.04643,3.1625 2.47679,5.69107c1.36429,6.65179 1.31607,13.48571 1.92857,20.17679c0.66071,7.22143 0.61071,13.70893 0.60357,20.95893c-3.66786,0.02679 -7.88214,0.13929 -11.51071,-0.06607c-3.79643,-0.21607 -8.10893,-1.07143 -11.91964,-1.25179c-4.16607,-0.19821 -8.54286,-0.02857 -12.73036,-0.11786c-2.19643,-0.04643 -4.21607,-0.32143 -6.33571,-0.41607c-1.46071,0.03571 -2.92679,0.42321 -4.38929,0.4375c-8.10714,0.08214 -16.09643,-0.3375 -24.16964,0.64464c-2.55714,0.31071 -6.47321,0.09107 -9.14107,0.03571c-0.01429,-0.56607 -0.04286,-0.64286 0.15357,-1.15714c0.6,-0.33571 6.59107,-0.16786 7.88036,-0.27857c8.09286,-0.69464 16.17143,-1.53929 24.30536,-1.41786c1.81429,-0.00179 3.89107,-0.69107 5.67857,-0.54107c6.78214,0.57143 13.42143,1.40179 20.24464,1.45357c1.71607,0.01429 4.58571,0.4125 6.33036,0.66786c4.80893,0.70357 9.38214,0.59286 14.21071,0.67857c-0.07143,-3.16429 0.07857,-6.50714 -0.17143,-9.65c-0.25179,-2.58036 -0.92679,-5.09286 -1.175,-7.67321c-0.17679,-1.84464 -0.04107,-3.83393 -0.22143,-5.6625c-0.63036,-6.44643 -0.68393,-13.44286 -2.92143,-19.55714c-0.2625,-0.71786 -1.82679,-2.02679 -2.41429,-2.49643c-2.22321,-0.10893 -7.375,-0.20357 -9.42857,0.17321c-5.20714,0.95714 -8.7125,6.10714 -13.92321,6.76071c-4.31786,0.54107 -8.5125,-0.12679 -12.8,-0.45179c-2.22857,-0.16786 -4.47679,0.04107 -6.79643,-0.30893c-1.73214,-0.2625 -3.625,-1.13571 -5.33036,-1.43929c-4.05536,-0.72321 -8.9,1.56786 -12.70179,2.875c-0.56429,0.19464 -0.6625,0.85536 -0.91071,1.45893c-1.15714,0.39464 -9.09464,0.85 -10.51607,0.59821c-0.31607,-0.29821 -6.46429,-0.74821 -7.34286,-0.79464c-5.8125,-0.30714 -9.81179,-3.19464 -13.60036,-7.40357c-0.60429,-0.67143 -2.43607,-3.08571 -3.14643,-3.5125c-3.48429,-2.09107 -8.09464,-3.27143 -12.15946,-2.93929c-0.33393,0.45179 -0.80357,1.20893 -1.12625,1.69643c-0.75321,0.3125 -1.54125,0.6375 -2.31286,0.90179c-0.71821,0.25357 -1.45214,0.45893 -2.19696,0.61607c-6.78875,1.40893 -14.69911,-3.1875 -21.29125,-4.24643c-9.04875,-1.45357 -18.82857,0.10893 -27.65893,2.20893c-0.73607,0.175 -1.87393,0.78571 -2.56839,1.13036c-3.10125,1.54107 -6.06696,3.79821 -9.63107,4.03929c-1.55196,0.09643 -3.14143,-0.04821 -4.65536,-0.13393c-1.01018,-0.85357 -2.38071,-0.2125 -3.48875,0.18214c-3.70911,-1.62321 -7.31946,-3.24643 -11.00446,-4.91964c-0.87071,-0.39464 -2.48679,-1.23214 -3.30607,-1.3875c-4.50929,-0.86071 -7.0475,0.63929 -11.07054,1.79286c-3.55893,1.01786 -7.18161,0.81607 -10.77268,0.11607c-3.52321,-0.6875 -5.58143,-3.97143 -8.14482,-5.73571c-4.12429,-2.8375 -13.77661,-4.56429 -18.49321,-2.73393c-0.11286,0.04464 -0.22536,0.08929 -0.33732,0.13393c-0.02589,4.30893 -0.20661,8.09286 -0.67089,12.38214c-0.3275,3.02679 0.18054,6.59107 -0.14661,9.66964c-0.81321,7.14821 -1.85161,14.94107 -4.20105,21.75536c-0.43234,1.25536 -0.79,2.81964 -1.49273,3.9125c6.20146,0.00893 12.71575,1.36786 18.85093,2.22679c4.57482,0.70357 9.12768,0.55536 13.71821,1.1375c9.79679,1.24107 19.33125,3.77679 29.21107,4.36964c1.90304,0.11429 4.87464,0.06786 6.65893,0.45357l0.29321,0.30536c-0.04196,0.34643 -0.08768,0.69464 -0.13679,1.04107c-4.24286,-0.52321 -9.03518,-0.30714 -13.36107,-0.89286c-2.23411,-0.30179 -4.90304,0.04821 -7.24607,-0.36607c-2.18125,-0.3875 -4.35196,-0.77143 -6.52554,-1.15536c-3.80571,-0.68214 -7.62518,-1.28214 -11.45625,-1.8c-4.11,-0.53036 -7.93107,-0.30714 -12.32679,-0.96786c-6.47911,-0.97143 -13.21946,-2.23393 -19.74225,-2.21607c-0.03923,-4.49821 1.01039,-6.0375 2.32545,-10.27679c0.96005,-3.09464 2.40055,-7.35357 2.92441,-10.55893c1.02829,-5.2875 0.06648,-11.03036 0.46882,-16.29107c0.40036,-5.23571 0.71893,-9.60179 0.70321,-14.87679z" fill="#000000"/><path d="M93.15964,77.46589c1.70821,-7.39857 8.15143,-8.35661 14.51911,-5.38304c0.99554,0.46482 1.84054,1.24482 2.845,1.77768l0.15714,0.08161c0.11482,4.62018 0.38607,6.3925 -2.39964,10.43821c-1.54571,2.24518 -3.12268,3.31161 -5.81375,3.81179c0.67446,0.76357 1.29714,1.54821 1.74786,2.46714c2.53786,5.17554 1.75946,19.51214 -0.14732,25.01589c-1.17804,3.40018 -4.34714,9.40696 -6.68696,12.04036c-1.37,1.54214 -3.51304,3.265 -5.37875,4.17339c2.01429,1.78411 9.54732,0.40196 12.49804,0.79821c2.41982,0.10482 5.51429,-1.55179 7.71518,-2.04018c4.57054,-1.01446 10.22161,-3.73607 14.76429,-3.46518c4.27107,5.55643 0.16214,8.00429 -3.64911,11.18232c-7.90161,6.58839 -15.39232,7.37089 -25.14554,7.35l-10.99304,-0.00036c-0.08482,1.90036 -0.71036,3.61339 -0.75143,5.36786l0.24107,0.12536c2.80643,-1.31589 10.84554,-1.97607 14.04268,-2.57357c4.45,-0.69036 8.50107,-1.69554 13.0525,-1.49143c4.81536,0.21607 6.31571,-1.0475 10.47161,1.86161c0.08607,1.11357 0.07018,1.87679 0.035,2.99857c-3.16429,2.17464 -10.40357,2.96946 -14.23893,4.35946c-3.38196,1.22554 -7.05589,2.48589 -10.54482,3.35679c-1.62339,0.40518 -4.085,0.17125 -5.79232,0.47179c-3.74554,0.62571 -6.86411,1.23857 -10.70125,1.25804c-0.34696,3.38214 -5.28357,10.29875 -7.66679,12.91911c-1.215,1.33607 -3.68268,2.81679 -5.34607,4.65946c-0.11929,4.13393 0.27357,8.5 -0.18464,12.6c-0.21804,1.29643 -1.29018,2.44643 -2.21214,3.27143c-5.41036,4.84107 -5.45161,-8.8375 -5.48589,-11.375l-2.6575,0.07321c-2.815,3.88929 -2.64857,9.37143 -7.29589,11.8625c-1.34839,1.05357 -6.18107,1.2375 -7.56143,0.8c-2.31,-0.73214 -0.11607,-10.53929 0.06821,-12.50536c0.03768,-0.40179 1.72411,-3.85536 1.92268,-4.31607c-2.04804,-2.78357 -2.36607,-3.17911 -2.33179,-6.59625c-9.12571,-0.05304 -13.82893,-0.17179 -20.90714,6.84089c-1.07482,1.06429 -2.77982,2.91607 -3.78839,3.84821c-0.78446,0.07321 -1.58411,0.08214 -2.37287,0.10357c-0.02552,-1.08929 -0.03889,-2.18036 -0.04014,-3.27143c-0.00664,-4.11214 -0.06177,-10.11946 2.99873,-13.07107c7.23429,-6.97696 15.47018,-10.15911 25.38661,-10.14429c0.70839,-1.00768 3.75125,-7.72268 4.19446,-9.1325c2.09786,-6.67375 4.56982,-12.41768 8.32946,-18.42786c-1.57893,-2.58732 -3.92679,-4.86161 -5.62232,-7.6375c-1.41911,-2.32321 -1.60786,-3.34232 -2.60536,-5.58268c-3.66107,-8.22339 -3.41607,-15.43161 -3.38625,-24.21786c-1.74661,0.00232 -3.76554,0.06 -5.47339,-0.14196c-0.40161,-0.28286 -0.79232,-0.58089 -1.17143,-0.89321c-2.06661,-1.70482 -4.05643,-3.21054 -4.13929,-5.93411c-0.15732,-5.17571 -0.12643,-6.78911 3.19839,-10.755c4.56821,-1.31071 8.96268,-1.83321 12.65714,1.56571c8.71875,-4.32196 14.88589,-3.91946 24.20929,-3.82786c1.76411,0.01732 5.42482,-0.16625 6.93946,0.27607c0.00946,0.01732 0.33482,0.76446 0.26161,0.6c0.29286,0.65768 2.72357,0.41804 3.68786,0.69321c2.4775,0.70714 4.35018,2.33786 6.54821,3.73429z" fill="#fe7200"/><path d="M92.00232,131.88893c2.01429,1.78411 9.54732,0.40196 12.49804,0.79821c-1.56214,0.35857 -14.3725,0.285 -16.34607,0.00161c1.23232,-0.45393 2.48232,-0.47893 3.84804,-0.79982z" fill="#fff9ee"/><path d="M73.54875,86.50679c2.81304,0.04196 6.55571,1.15946 9.14018,2.26732c6.9,2.95804 8.42214,10.40768 10.90268,16.69518c1.93804,4.91286 -0.25554,10.53911 -1.26643,15.37768c-0.21036,1.0075 -0.12429,3.44429 -0.46786,4.30893c-0.54982,1.38429 -1.44268,3.18982 -2.08857,4.58089c-1.07464,0.30161 -2.60589,0.95679 -3.70696,1.34125c-3.3475,1.16875 -5.60571,1.09321 -9.05054,1.05214c-7.66554,-0.60643 -11.5075,-2.34036 -18.06304,-5.95196c-3.38893,-8.63982 -2.6575,-13.97036 -1.32054,-22.93429c0.31214,-1.275 0.05464,-3.63946 0.43214,-4.79464c1.36536,-4.17857 0.55446,-7.30821 4.93821,-9.45161c4.04196,-1.97625 6.22411,-2.04196 10.55071,-2.49089z" fill="#fead89"/><path d="M62.14071,112.87357c0.23839,-0.01589 0.47714,-0.02875 0.71607,-0.03875c0.40446,-0.01357 1.21286,0.00321 1.35929,0.34411c1.55607,3.81196 0.16857,4.64214 3.24018,7.98357c2.62321,2.85375 7.81,2.67286 11.34536,2.25161c0.22732,-0.02696 3.58607,-3.32893 4.03554,-3.82661c0.01964,-1.41643 -0.28357,-4.26143 0.42982,-5.23268c0.57518,-0.19196 0.30321,-0.20375 0.84393,-0.00179c0.29054,0.56196 0.20196,1.35482 0.19857,2.02393c0.06607,4.37446 -0.64464,6.31357 -3.95571,9.34786c-2.85214,0.01321 -5.78893,0.09679 -8.63107,0.02964c-6.03286,-0.1425 -9.73875,-7.51482 -9.58196,-12.88089z" fill="#000000"/><path d="M83.08411,102.62839l0.38589,0.37375c0.73821,2.12571 -3.08375,4.87946 -3.39286,7.14768c-0.04786,0.35179 -0.15518,0.80036 -0.22982,1.16036c-0.42964,0.25036 -1.7925,0.15018 -2.35821,0.14107l-0.32339,-0.20286c-0.90071,-3.60857 3.39982,-6.89071 5.91839,-8.62z" fill="#000000"/><path d="M69.30018,105.01714c2.58696,-0.24089 4.07304,2.17554 5.69429,3.98304c0.06089,1.00893 0.01589,2.0925 -0.00571,3.10929c-0.10125,0.01107 -1.12268,0.11964 -1.16518,0.0975c-1.67214,-0.86875 -2.95554,-3.57982 -4.11357,-5.12839c-0.48411,-0.64732 -0.51768,-1.2725 -0.40982,-2.06143z" fill="#000000"/><path d="M82.41161,96.45661c0.23911,-0.02179 0.47857,-0.03929 0.71839,-0.0525c3.16929,-0.15089 3.58964,3.08482 1.60125,5.02179c-0.31321,0.03071 -0.62714,0.05232 -0.94161,0.065c-2.78661,0.09446 -3.34714,-3.33661 -1.37804,-5.03429z" fill="#000000"/><path d="M65.26911,97.17089c0.32982,-0.03143 0.66036,-0.05321 0.99143,-0.06518c2.79643,-0.07536 3.31714,3.23768 1.33768,5.00607c-1.12875,0.10107 -1.99339,0.29357 -2.84143,-0.66411c-1.14339,-1.29107 -0.74929,-3.18768 0.51232,-4.27679z" fill="#000000"/><path d="M42.82964,83.57482c1.58089,0.05893 4.37107,-0.66679 4.95964,0.90696c-0.02036,0.80357 -0.43679,1.50125 -0.79071,2.22839c-0.06071,0.18732 -0.15232,0.23161 -0.31161,0.39821c-1.25286,0.2425 -2.56,-0.35732 -3.77482,-0.78286c-0.08589,-0.89893 -0.07339,-1.845 -0.0825,-2.75071z" fill="#fe69ac"/><path d="M99.93625,78.59036c0.92964,-0.10232 1.73393,-0.03036 2.55696,0.44839c1.06661,1.48625 -1.40732,2.59 -2.43589,3.13411c-1.47143,0.05696 -1.99071,-0.82089 -2.99732,-1.80964c0.91321,-0.40321 2.02268,-1.20196 2.87625,-1.77286z" fill="#fe69ac"/><path d="M237.70536,67.88518c0.30357,-0.01268 0.60536,-0.02304 0.90714,-0.03089c4.65,-0.11804 7.90536,1.29607 11.29464,4.52786c0.43036,4.47821 0.2875,9.62643 -2.92143,13.08964c-0.96607,1.04161 -1.55357,0.97982 -2.86964,0.98357c3.35893,4.57732 4.4,13.26893 4.43393,18.96357c0.01071,1.84125 0.13571,7.60839 -0.12679,9.29071c-0.73214,4.69536 -3.72143,12.05161 -5.79643,16.44786c-0.16786,0.35518 -1.61607,1.80875 -1.96964,2.16821c0.00179,3.55232 -0.02143,7.16768 0.07321,10.72c0.05714,2.18768 0.45357,4.53786 0.55714,6.75821c0.31607,6.80804 0.25893,14.8075 3.36786,20.99143c0.275,0.54518 1.08214,1.78679 1.5375,2.15179c1.60893,1.28911 5.01071,2.84268 6.88036,3.59018c1.33393,0.53321 4.90714,0.60893 6.17143,-0.00536c2.60179,-1.26464 5.73571,-4.28679 7.3,-6.69179c1.57143,-2.41661 2.36786,-5.7325 4.9625,-7.04571c1.02321,-0.51804 2.69107,-1.21554 3.87857,-0.85857c0.52321,0.15696 0.93393,0.98393 1.15179,1.43786c1.23929,2.57696 0.32143,9.08071 -0.67679,11.61143c-2.03929,5.17196 -10.84464,10.06661 -15.70714,12.42911c-0.92857,0.45179 -3.71429,1.09821 -4.8875,1.46786c-1.73571,0.54643 -3.01607,1.07143 -4.67679,1.78929c0.23214,4.77857 0.50893,12.03929 -1.25714,16.57857c-0.35893,1.19821 -4.43571,1.33214 -4.97143,0.78571c-0.67321,-1.05714 -0.97321,-2.57679 -1.58393,-3.65714c-5.575,-9.8625 -2.61429,-12.15893 -15.74464,-9.58214c0.14643,3.80714 0.58036,5.89107 -1.29286,9.2125c-1.39464,1.975 -4.44286,4.25536 -6.99464,4.23393c-1.8375,-0.01607 -3.15714,-1.09821 -4.37321,-2.33929c-0.26607,-4.45179 -0.05714,-11.16964 -0.08571,-15.79107c-2.81071,-2.70714 -6.67143,-9.77679 -7.91786,-13.51571c-0.65714,-1.96911 -1.18036,-5.52214 -1.86786,-7.735c-0.50179,-2.10357 -2.09286,-4.65536 -2.46964,-6.72429c-0.88393,-4.86589 -1.78036,-9.40429 -3.0625,-14.18839c-3.57857,2.59357 -7.72857,4.97214 -12.41607,3.59339c-3.43036,-1.00964 -4.47679,-7.58893 -3.27143,-10.46214c1.7875,-4.25643 7.38393,-5.36643 11.19464,-7.015c-2.41786,-0.11857 -11.25536,0.33482 -12.52857,-0.57589c-2.9125,-4.06339 8,-7.49107 10.65357,-7.90964c2.05714,-0.32429 4.05357,-0.77 6.14107,-0.91446c-0.32679,-0.34857 -0.62857,-0.72 -0.90179,-1.11143c-1.875,-2.62393 -4.9375,-8.86786 -5.65,-11.94875c-1.24286,-5.38482 -0.85893,-11.96643 0.05714,-17.35071c-3.03393,-0.59232 -5.16071,-1.87143 -7.19464,-4.15196c-0.32857,-4.6275 0.19464,-5.70607 2.71429,-9.64196c3.71071,-5.79732 7.75714,-1.59786 11.78036,1.42018c9.06071,-7.57089 19.57857,-6.89839 30.44107,-5.74268c0.85,0.09036 1.975,0.0525 2.85179,0.06536c-0.03214,-3.97339 1.51607,-7.06464 4.86607,-9.31821z" fill="#9f5526"/><path d="M218.35357,89.36018c2.22679,-0.29554 4.84286,0.01625 6.95179,0.79482c2.03036,0.74946 2.3625,1.28286 4.59286,1.33411c0.53393,0.95893 1.37679,2.08964 2.00714,3.06089c1.60179,2.46446 0.66607,5.30946 1.15179,8.1175c0.3375,1.94696 0.91429,3.96911 1.47143,5.7675c0.68036,2.20268 0.725,7.68768 0.06786,9.78732c-1.7125,5.47536 -7.24643,14.37054 -12.3125,17.35179c-1.89643,1.11607 -3.54643,1.08732 -5.54107,0.59036c-0.78393,-0.23161 -2.59107,-0.72768 -3.2375,-1.08214c-2.45714,-1.34857 -7.22321,-4.77036 -9.02857,-6.75071c-1.97143,-2.16571 -2.90357,-3.6925 -5.18214,-5.82625c-0.23571,-12.42161 1.40893,-29.87321 16.43929,-32.77589c0.86071,-0.16625 1.74643,-0.26964 2.61964,-0.36929z" fill="#fead89"/><path d="M220.76607,118.55071c0.78571,-0.02393 1.11607,-0.04464 1.9125,0.08804c0.90536,1.17143 -0.45357,7.10232 -2.05179,8.33393c-2.79464,2.15536 -5.50536,1.65679 -8.75,1.57c-2.68571,-2.24304 -3.3625,-1.56089 -4.80714,-5.37536c-0.35,-1.13214 -0.8625,-2.43107 -0.62321,-3.59179c0.37679,-0.33286 1.65,-0.41446 1.76607,-0.19946c1.7625,3.29821 1.3375,4.58125 4.38214,7.04071c0.24107,0.01518 0.48036,0.02679 0.72143,0.035c5.60536,0.19286 7.27143,-2.51982 7.45,-7.90107z" fill="#000000"/><path d="M224.54464,100.73929c1.65714,-0.13875 3.18036,-0.14982 3.46964,2.18036c0.06429,0.52304 -0.08036,1.56357 -0.35714,2.01679l-0.46964,0.07446l-3.62679,-0.00714c-0.05179,-1.70196 -0.375,-3.06125 0.98393,-4.26446z" fill="#000000"/><path d="M209.54643,100.74054c1.65893,-0.14089 3.17857,-0.14857 3.46786,2.17929c0.06429,0.52464 -0.07857,1.56375 -0.35714,2.01786l-0.46964,0.07339l-3.625,-0.00875c-0.05357,-1.70089 -0.37857,-3.06411 0.98393,-4.26179z" fill="#000000"/><path d="M211.49286,109.16089c2.54286,0.16321 2.11786,3.98732 2.0875,5.83929c-0.6,0.02375 -1.62679,0.13357 -2.06607,-0.20161c-0.23036,-1.28089 -0.0875,-4.26339 -0.02143,-5.63768z" fill="#000000"/><path d="M220.25357,109.27161c0.59286,-0.04143 0.96786,-0.12429 1.51607,0.10054c1.08393,1.28161 -0.47857,3.1425 -1.30179,4.24232c-0.65357,0.03125 -0.975,0.10625 -1.57143,-0.17018c-0.95536,-1.18268 0.55,-3.23643 1.35714,-4.17268z" fill="#000000"/><path d="M241.90893,76.29214c1.84821,0.12268 2.83214,1.6 4.04107,2.95661c-1.025,1.46411 -1.98571,2.97196 -2.88214,4.51946c-0.88929,-0.44821 -1.1875,-1.71286 -1.76607,-2.47875c-0.66786,-0.88464 -2.67857,-2.19018 -1.80179,-3.50107c0.39643,-0.59143 1.68036,-1.35571 2.40893,-1.49625z" fill="#a400bb"/><path d="M194.32321,88.55268l0.375,0.09714c0.43929,0.68839 -0.19107,2.5275 -0.66071,3.20839c-0.59107,0.11446 -0.61786,-0.07089 -1.25536,-0.47393c-0.72143,-0.26607 -1.5875,-0.74036 -1.31429,-1.56625c0.87679,-0.64268 1.7,-0.69286 2.85536,-1.26536z" fill="#a400bb"/><path d="M131.73071,12.90738c0.66857,-0.10966 0.74018,-0.12816 1.40429,-0.0575c0.36446,0.30084 1.60875,3.47143 1.89875,4.18732c1.45196,3.58459 3.75107,7.00798 5.3475,10.42655c1.43518,3.07304 2.58696,6.63304 4.17321,9.72696c0.73107,1.42571 1.87429,2.63804 2.45339,3.94107c1.11839,2.47536 1.97839,5.05964 2.56625,7.71143c1.81196,-0.31482 3.90339,-1.49964 5.34893,-1.57821c6.65964,-0.36161 13.44518,0.12446 20.11482,-0.19339c1.38929,-0.06625 2.89839,-0.49929 4.27286,-0.74821l-0.00714,4.54768c-3.09554,3.69929 -4.63821,5.65875 -8.3775,8.6925c-3.80339,3.08571 -3.83107,5.24911 -9.43964,6.28929c-0.62554,0.11589 -9.01607,4.86875 -9.40893,5.19821l0.00107,0.14607c0.05786,4.0675 1.13179,6.47679 1.85375,10.46661c0.56661,3.13161 0.63321,8.86571 0.10214,12.09607c-0.17982,1.04411 -1.84571,1.52714 -2.49357,0.87411c-1.97804,-1.99393 -9.48929,-8.19929 -10.15214,-10.22196c-1.49482,-3.29482 -2.29607,-5.40893 -4.66714,-8.18143c-2.74571,4.70179 -9.17429,10.62964 -13.55071,14.15679c-1.54714,1.24696 -1.63625,1.36714 -2.85429,3.00036c-0.68071,0.27964 -1.68821,0.21786 -2.46018,0.23143c-0.05018,-4.57036 0.22518,-6.78607 1.30536,-11.19875c0.44304,-1.80911 0.02143,-6.11214 0.14232,-8.15607c0.16107,-2.72464 -2.6775,-8.01446 -4.70857,-9.83375c-4.16286,-0.93071 -5.32732,-0.90821 -9.59679,-0.83893l0.02179,-2.67643c-1.63357,-0.25411 -3.37911,-1.04321 -5.02875,-1.45161c-0.93179,-0.23054 -2.66089,-0.03446 -3.01464,-0.75411c0.65929,-2.53607 15.20286,-10.00732 18.02107,-10.23643c-0.02339,-0.8575 -0.06018,-1.74411 0.01268,-2.59875c0.03429,-0.40375 7.68036,-17.18357 8.54893,-18.55821c0.56286,-0.89071 1.42196,-1.64375 2.15214,-2.39893c1.29143,-1.33518 2.21857,-2.73982 3.01161,-4.42018c0.63036,-1.33518 1.27161,-2.68887 1.6925,-4.10671c0.24786,-0.83429 0.24304,-1.98307 0.62571,-2.73539c0.14911,-0.29316 0.44393,-0.53439 0.68893,-0.74748z" fill="#fde800"/><path d="M150.39625,155.78964c3.64036,-0.33107 6.77482,0.45875 10.32411,0.69411c-0.03089,9.48107 0.00696,18.97393 -0.03,28.45554c-0.04446,2.48036 -0.47214,4.96607 -0.615,7.4375c-0.13071,2.26607 -0.07679,4.63036 -0.06321,6.90357c-8.79054,0.00179 -17.51196,0.31964 -26.23768,-0.62679c-4.14964,-0.45 -8.81875,0.4125 -12.7375,1.69464c-1.79482,0.5875 -3.43482,0.67679 -5.33911,1.43214c-0.86464,1.41429 -1.295,2.07679 -2.59,3.10179c-0.5975,0.34286 -3.32875,1.6625 -3.55518,0.30714c-0.63,-3.76964 -0.5525,-7.8125 -1.18518,-11.65c-0.49143,-5.23393 -2.445,-8.94821 -3.10768,-14.17143c-0.58714,-4.62839 -1.97286,-13.07946 -2.27054,-17.64357c-0.12286,-1.885 6.47393,-0.42411 8.23446,-1.17411c0.30089,-0.43018 0.20893,-1.27429 0.20714,-1.84643c3.79661,-0.08089 5.90554,-2.11036 8.77036,-2.21357c7.145,-0.25732 14.45125,0.07946 21.6175,-0.06714c2.91232,-0.05964 5.68393,-0.43036 8.5775,-0.63339z" fill="#000000"/><path d="M150.99196,157.93196c2.03286,-0.33643 5.44571,0.39536 7.5925,0.71464c0.00321,8.47393 0.03036,16.96839 -0.03161,25.44268c-0.00875,2.07857 -0.47839,4.17321 -0.60393,6.23571c-0.13643,2.24286 -0.09054,4.58571 -0.08839,6.83393c-7.26875,-0.01071 -14.61732,0.28214 -21.84625,-0.52857c-3.22857,-0.36071 -6.92696,-0.24107 -10.14411,0.12679c-2.12786,0.33036 -3.78071,0.59643 -5.85964,1.11786c-0.08482,-10.79643 0.35161,-21.62429 -0.55429,-32.36714c-0.08036,-0.95357 0.53446,-1.85714 0.43482,-2.99411c-0.41054,-0.30571 -0.56982,-0.365 -1.04107,-0.58054c-0.89839,-1.53929 0.47107,-2.49232 1.62107,-3.28304c0.82,-0.07393 1.74714,-0.08393 2.57536,-0.09179c9.42554,-0.08839 18.56625,0.40679 27.94554,-0.62643z" fill="#ffffff"/><path d="M128.36089,186.44286c3.12821,-0.25 4.01429,0.82143 6.63964,1.94107c0.00036,0 3.04589,-1.11429 3.47393,-1.18929c0.85071,-0.14821 1.65375,-0.08393 2.53714,-0.03929c0.99696,0.7875 1.27679,1.13929 2.06339,2.14464c1.18857,-0.81786 3.60393,-2.24286 5.02821,-2.13214c1.17982,0.08929 1.41554,0.53214 2.16321,1.35536c2.20714,0.11429 4.82125,0.05893 7.06018,0.06071c-0.08196,0.61071 -0.10625,1.44107 -0.14393,2.07143c-2.76179,0.01429 -4.48089,0.43929 -7.18446,0.74286c-0.24214,0.02857 -0.51304,-0.13036 -0.71571,-0.25357c-0.43804,-0.50179 -0.905,-0.9125 -1.39304,-1.36429c-3.99036,1.48036 -5.03625,3.31071 -8.38411,-0.75179c-6.22732,3.68214 -3.82214,2.81607 -9.57411,-0.68393c-0.69304,0.60893 -1.19536,1.07679 -1.76946,1.81429c-0.84304,1.08393 -2.32268,3.85714 -3.94464,2.24107c-0.41125,-1.80536 2.83089,-4.95179 4.14375,-5.95714z" fill="#000000"/><path d="M128.24571,172.85518c2.48375,-0.18411 3.88768,0.74661 5.52732,2.48089c0.73375,0.13804 1.95214,-0.89696 3.49232,-1.04196c3.28196,-0.30946 5.475,1.16554 7.90518,3.08089c0.69304,-0.82125 1.135,-1.56536 2.17411,-1.68161c3.06911,1.43036 2.77125,-0.12786 5.60536,0.08964c0.32,0.02446 0.40714,0.29536 0.54607,0.53554c-0.16607,2.24 -3.98232,4.035 -5.87036,2.52071l-0.19286,-0.18929c-0.69339,0.75714 -2.47018,1.82857 -3.27411,1.25893c-2.01214,-1.42821 -3.53375,-2.54429 -5.78696,-3.62143c-5.47929,2.46786 -4.42482,2.19589 -8.90268,-0.98357c-1.09107,1.25554 -2.62714,5.105 -4.48911,3.69607c-0.79304,-1.60357 2.1475,-5.10554 3.26571,-6.14482z" fill="#000000"/><path d="M128.45143,162.18089c3.21661,-0.26643 3.74304,0.43964 4.52,3.52661c2.4825,-1.56821 3.81214,-1.52036 6.64286,-1.39804c1.16196,0.97857 1.94554,1.88857 2.95857,3.01161c1.27268,-0.73036 1.72964,-1.01982 3.12214,-1.34982c1.17143,-0.27768 7.51304,0.51286 7.99321,0.86661l-0.02196,0.38286c-0.59964,0.53196 -1.49804,0.77357 -2.29536,1.08304c-1.13161,0.43911 -2.61446,1.38518 -3.82964,0.88607c-0.39304,-0.16161 -0.44911,-0.65196 -0.58464,-1.03768l-0.03607,-0.18304c-0.87482,-0.22179 -2.7575,0.49946 -3.99625,0.55339c-0.97482,0.04232 -1.58125,0.06554 -2.59714,0.03554l-2.36696,-2.34214c-1.51196,0.50571 -3.08304,1.49018 -4.67929,1.69232c-2.67393,0.33875 -2.635,-2.25625 -2.79839,-4.06625c0.02536,-0.0175 -0.36696,0.24482 -0.32768,0.22554c-1.84214,0.89982 -3.54518,4.73357 -5.81679,3.50357c-0.665,-1.675 2.83321,-4.54214 4.11339,-5.39018z" fill="#000000"/><path d="M105.03571,162.87054l6.35268,-0.02929c0.90286,11.84071 2.74339,23.48732 2.21054,35.43554c-0.06482,1.45357 0.06929,1.95 -0.98982,3.02857c-0.15518,0.21607 -0.87089,0.9375 -1.09357,1.17143c-0.05875,-1.52857 -0.38929,-3.05714 -0.48607,-4.51607c-0.29375,-4.42321 -0.91071,-8.19821 -1.8975,-12.52857c-0.50768,-2.22679 -1.35589,-5.09821 -1.69321,-7.29268c-0.82321,-5.35589 -1.18732,-9.94643 -2.40304,-15.26893z" fill="#ffffff"/><path d="M116.22036,160.24964c0.31804,0.35589 0.45143,3.73321 0.54179,4.46411c1.42821,11.54714 1.11714,22.85411 1.10875,34.47018l-2.68732,0.1875c-0.39446,-2.0875 -0.19232,-5.34821 -0.21357,-7.525c-0.06446,-6.61786 0.25732,-13.125 -0.39589,-19.72786c-0.36714,-3.71196 -0.78643,-7.52589 -1.06946,-11.24214c1.11393,-0.18357 1.63911,-0.29643 2.71571,-0.62679z" fill="#ffffff"/></g></svg></svg>