<?xml version="1.0" encoding="UTF-8"?>
<svg xmlns="http://www.w3.org/2000/svg" xmlns:xlink="http://www.w3.org/1999/xlink" width="7000px" height="10294px" viewBox="0 0 7000 10294" version="1.1">
<defs>
<clipPath id="clip1">
  <path d="M 0 0 L 7000 0 L 7000 10293.691406 L 0 10293.691406 Z M 0 0 "/>
</clipPath>
</defs>
<g id="surface1">
<g clip-path="url(#clip1)" clip-rule="nonzero">
<rect x="0" y="0" width="7000" height="10294" style="fill:rgb(100%,100%,100%);fill-opacity:1;stroke:none;"/>
</g>
<path style=" stroke:none;fill-rule:nonzero;fill:rgb(99.607843%,67.843139%,53.333336%);fill-opacity:1;" d="M 1404.855469 2237.847656 C 1404.433594 2208.757812 1400.953125 2103.234375 1406.203125 2079.597656 C 1418.257812 2072.691406 1421.0625 2072.398438 1434.726562 2068.863281 C 1447.882812 2040.429688 1428.511719 2004.535156 1440.597656 1977.324219 C 1450.4375 1974.082031 1460.25 1970.726562 1470.023438 1967.269531 C 1479.09375 1940.296875 1464.40625 1927.441406 1475.160156 1909.871094 C 1485.761719 1906.921875 1494.117188 1904.324219 1504.515625 1900.691406 C 1513.097656 1880.519531 1501.886719 1857.761719 1507.25 1852.019531 C 1547.699219 1808.742188 1610.082031 1749.5625 1649.53125 1708.046875 C 1664.972656 1705.417969 1693.238281 1709.835938 1700.90625 1700.902344 C 1716.042969 1683.28125 1730.363281 1655.132812 1747.730469 1640.464844 C 1754.429688 1634.8125 1784.164062 1645.425781 1799.359375 1636.015625 C 1815.011719 1600.402344 1804.808594 1615.785156 1838.195312 1596.988281 C 1842.644531 1594.484375 1835.023438 1554.429688 1844.015625 1539.09375 C 1863.546875 1535.109375 1875.863281 1538.265625 1890.636719 1538.984375 C 1904.046875 1539.640625 1935.90625 1478.429688 1948.5625 1473.277344 C 1965.78125 1466.273438 1989.101562 1482 2004.3125 1465.371094 C 2008.738281 1445.675781 2005.085938 1445.523438 2017.277344 1437.113281 C 2034.082031 1437.828125 2046.699219 1438.183594 2063.652344 1437.550781 C 2082.847656 1418.113281 2067.753906 1405.136719 2088.191406 1403.230469 C 2105.015625 1401.667969 2118.542969 1411.1875 2135 1401.691406 C 2137.945312 1392.304688 2141.128906 1382.988281 2144.535156 1373.761719 C 2168.714844 1363.011719 2177.601562 1380.207031 2202.5 1367.78125 L 2209.941406 1342.140625 C 2237.183594 1327.257812 2256.296875 1356.011719 2278.125 1308.605469 C 2304.214844 1299.246094 2345.050781 1306.503906 2373.042969 1306.417969 C 2406.109375 1306.3125 2403.882812 1307.894531 2410.347656 1275.570312 C 2432.871094 1261.285156 2555.035156 1279.105469 2589.980469 1271.414062 C 2618 1265.246094 2598.832031 1248.816406 2615.53125 1237.652344 C 2625.296875 1231.394531 2690.363281 1243.105469 2695.203125 1237.925781 C 2724.894531 1206.128906 2697.757812 1194.910156 2764.847656 1205.03125 C 2817.449219 1212.972656 2797.832031 1194.496094 2814.925781 1171.617188 C 2848.574219 1166.617188 2910.472656 1180.097656 2937.171875 1166.042969 C 2940.476562 1164.304688 2944.078125 1146.042969 2945.355469 1140.203125 C 2965.261719 1127.671875 3041.261719 1146.828125 3068.5625 1136.199219 C 3073.746094 1134.183594 3078.316406 1115.859375 3079.859375 1109.316406 C 3107.011719 1093.039062 3311.089844 1109.796875 3355.972656 1105.46875 C 3390.230469 1102.164062 3361.785156 1071.003906 3396.097656 1070.851562 C 3588.175781 1070.035156 3787.355469 1070.710938 3978.832031 1071.039062 C 4034.582031 1071.132812 4331.621094 1065.726562 4369.898438 1074.128906 C 4375.375 1085.417969 4376.75 1089.257812 4380.65625 1101.277344 C 4419.234375 1121.195312 4462.8125 1078.074219 4477.785156 1125.121094 L 4480.699219 1134.410156 C 4510.691406 1143.851562 4516.671875 1129.355469 4539.957031 1140.457031 C 4556.960938 1201.351562 4566.527344 1155.171875 4607.0625 1174.980469 C 4611.359375 1192.375 4609.027344 1196.140625 4620.90625 1205.753906 L 4666.722656 1204.054688 C 4690.941406 1228.378906 4710.292969 1276.765625 4742.859375 1271.714844 C 4786.851562 1264.894531 4767.421875 1287.488281 4793.664062 1305.976562 L 4798.96875 1305.1875 C 4806.742188 1304.082031 4826.191406 1301.285156 4831.839844 1306.816406 C 4890.933594 1364.683594 4947.898438 1424.824219 5007.421875 1482.40625 C 5014.769531 1489.519531 5004.941406 1549.808594 5014.164062 1566.929688 C 5025.949219 1570.429688 5031.617188 1572.070312 5042.726562 1577.207031 C 5049.511719 1595.5 5043.984375 1611.929688 5044.886719 1624.8125 C 5045.492188 1633.988281 5084.097656 1647.234375 5074.191406 1668.28125 C 5070.324219 1676.445312 5076.855469 1689.609375 5080.828125 1697.800781 C 5092.792969 1704.371094 5095.003906 1705.066406 5108.222656 1708.894531 C 5120.289062 1731.816406 5102.59375 1747.433594 5114.808594 1767.503906 C 5126.519531 1770.667969 5133.757812 1771.644531 5143.609375 1778.882812 C 5155.824219 1830.082031 5114.15625 1858.960938 5173.316406 1878.269531 C 5181.761719 1897.980469 5179.902344 2132.898438 5175.730469 2161.386719 C 5156.078125 2181.683594 5157.585938 2160.941406 5142.757812 2182.417969 C 5144.515625 2199.660156 5145.820312 2211.234375 5145.21875 2228.832031 C 5136.722656 2238.878906 5127.527344 2239.527344 5114.507812 2242.996094 C 5105.507812 2259.835938 5113.046875 2284.875 5111.339844 2289.554688 C 5099.628906 2320.808594 5077.460938 2290.824219 5074.546875 2338.558594 C 5076.957031 2364.03125 5077.761719 2382.054688 5077.964844 2407.648438 C 5111.742188 2407.324219 5222.628906 2400.46875 5244.34375 2417.558594 C 5269.625 2460.492188 5288.628906 2436.980469 5330.097656 2440.496094 C 5355.429688 2467.765625 5452.191406 2570.574219 5479.285156 2583.246094 L 5479.035156 2873.734375 L 5427.460938 2872.984375 C 5404.1875 2896.835938 5349.046875 2950.855469 5331.253906 2974.246094 C 5240.070312 2974.148438 5135.417969 2971.636719 5044.988281 2974.628906 L 5044.886719 3452.808594 C 5044.988281 3520.351562 5048.40625 3634.375 5043.332031 3698.542969 C 5032.273438 3708.785156 5028.402344 3709.488281 5014.199219 3715.523438 C 5002.132812 3734.394531 5020.445312 3865.574219 5009.800781 3896.628906 C 5007.019531 3904.769531 4987.433594 3912.632812 4979.925781 3915.988281 C 4975.519531 3938.511719 4982.296875 3950.03125 4970.464844 3967.140625 C 4901.417969 4009.296875 4990.964844 4052.347656 4910.28125 4084.128906 L 4911.449219 4165.140625 C 4885.269531 4183.851562 4866.011719 4203.6875 4843.101562 4225.992188 L 4845.59375 4363.425781 C 4836.710938 4370.773438 4814.183594 4388.285156 4808.417969 4396.386719 C 4749.507812 4479.1875 4739.050781 4404.183594 4677.792969 4496.667969 L 4680.9375 4505.21875 C 4706.277344 4514.105469 4722.117188 4507.902344 4745.023438 4511.683594 C 4706.050781 4515.488281 4620.300781 4512.5625 4577.90625 4512.316406 C 4578.1875 4519.316406 4578.386719 4526.328125 4578.511719 4533.335938 C 4578.847656 4558.054688 4580.304688 4562.902344 4562.375 4579.644531 C 4518.191406 4620.898438 4476.042969 4665.171875 4433.894531 4708.488281 C 4414.769531 4714.1875 4374.804688 4711.6875 4352.953125 4711.285156 C 4342.109375 4719.152344 4345.550781 4718.894531 4342.527344 4737.390625 C 4327.738281 4755.175781 4311.363281 4743.152344 4289.511719 4744.3125 C 4272.425781 4744.648438 4280.121094 4781.949219 4263.523438 4780.734375 C 4208.855469 4776.726562 4220.53125 4772.988281 4202.09375 4812.742188 C 4189.503906 4821.003906 4135.371094 4807.386719 4125.84375 4810.996094 C 4105.222656 4818.808594 4083.382812 4868.550781 4066.386719 4879.234375 C 4058.601562 4884.136719 4029.152344 4873.238281 4012.785156 4882.871094 C 4011.347656 4889.65625 4007.144531 4910.46875 4001.394531 4912.46875 C 3971.761719 4922.800781 3901.992188 4901.332031 3878.3125 4916.976562 C 3876.285156 4931.234375 3876.398438 4932.636719 3870.144531 4945.351562 C 3838.265625 4953.058594 3788.871094 4939.753906 3754.628906 4946.242188 C 3742.625 4948.519531 3743.558594 4961.007812 3734.527344 4977.988281 C 3701.980469 4985.003906 3124.378906 4981.457031 3113.238281 4975.636719 C 3111.832031 4970.960938 3104.535156 4948.339844 3100.8125 4947.738281 C 3050.648438 4939.710938 2769.683594 4956.285156 2743.113281 4940.210938 C 2742.375 4936.652344 2739.039062 4923.210938 2738.3125 4920.023438 C 2733.941406 4900.953125 2633.066406 4922.242188 2619.785156 4910.34375 C 2564.914062 4861.191406 2516.925781 4801.910156 2464.628906 4750.292969 C 2456.078125 4741.855469 2425.300781 4751.316406 2413.335938 4744.289062 C 2407.898438 4741.089844 2404.554688 4724.066406 2402.414062 4716.910156 C 2381.203125 4702.121094 2359.257812 4718.859375 2345.273438 4705.328125 C 2316.253906 4677.230469 2274.152344 4629.632812 2248.109375 4600.292969 C 2218.726562 4567.199219 2210.75 4584.960938 2176.648438 4577.636719 C 2166.414062 4557.664062 2176.070312 4522.832031 2170.363281 4519.167969 C 2147.617188 4504.558594 2148.425781 4516.976562 2133.140625 4483.5 C 2117.515625 4474 2031.390625 4478.242188 2008.242188 4479.367188 C 2006.496094 4465.96875 2006.058594 4462.8125 2001.773438 4450.09375 C 1985.980469 4440.4375 1974.675781 4444.359375 1953.292969 4444.609375 C 1932.984375 4420.132812 1865.5 4347.578125 1838.476562 4335.632812 C 1839.414062 4299.851562 1843.558594 4249.59375 1833.203125 4216.867188 C 1827.105469 4211.914062 1825.515625 4210.894531 1818.703125 4207.472656 L 1812.839844 4204.570312 C 1801.558594 4183.375 1805.34375 4185.210938 1805.761719 4158.460938 C 1788.84375 4144.140625 1732.777344 4089.246094 1711.796875 4071.140625 C 1698.039062 4059.273438 1711.875 4024.21875 1703.375 4018.40625 C 1690.175781 4009.371094 1654.214844 3979.589844 1641.851562 3968.804688 C 1634.367188 3949.894531 1640.839844 3917.164062 1639.125 3890.117188 C 1630.617188 3876.480469 1625.542969 3878.007812 1608.152344 3871.050781 C 1596.714844 3848.265625 1611.695312 3844.402344 1603.070312 3816.179688 C 1592.226562 3809.785156 1587.109375 3807.703125 1575.378906 3802.953125 C 1567.910156 3785.316406 1568.511719 3780.6875 1570.277344 3762.332031 L 1570.804688 3757.160156 C 1560.484375 3742.144531 1555.746094 3743.503906 1537.496094 3735.144531 C 1536.90625 3679.183594 1557.929688 3662.277344 1503.527344 3634.316406 C 1504.132812 3602.699219 1509.273438 3552.800781 1503.488281 3521.476562 C 1501.835938 3512.507812 1486.957031 3509.214844 1476.757812 3504.960938 C 1465.277344 3486.222656 1475.9375 3393.125 1470.78125 3352.875 C 1462.96875 3342.398438 1450.976562 3339.960938 1437.332031 3334.121094 C 1437.675781 3291.722656 1451.855469 3087.316406 1418.222656 3074.871094 C 1401.027344 3084.496094 1403.589844 3087.601562 1393.660156 3107.5 L 1310.664062 3107.289062 C 1304.992188 3091.507812 1304.519531 3086.933594 1293.582031 3074.894531 C 1258.367188 3070.140625 1144.980469 3074.15625 1104.90625 3074.402344 C 1105.136719 3058.503906 1110.246094 3014.664062 1095.445312 3011.316406 C 1050.128906 3001.066406 1082.410156 2976.96875 1068.171875 2946.5625 C 1054.367188 2941.324219 1050.097656 2940.5625 1038.855469 2931.453125 C 1031.097656 2869.171875 1036.664062 2693.328125 1036.019531 2618.316406 C 1065.203125 2599.9375 1127.980469 2536.410156 1147.953125 2507.332031 C 1204.386719 2507.210938 1217.46875 2526.960938 1246.226562 2472.902344 C 1321.417969 2473.886719 1396.613281 2474.078125 1471.804688 2473.476562 C 1472.21875 2427.714844 1469.3125 2400.1875 1474.066406 2352.660156 C 1507.175781 2321.097656 1521.5625 2281.925781 1498.753906 2238.308594 Z M 1404.855469 2237.847656 "/>
<path style=" stroke:none;fill-rule:nonzero;fill:rgb(50.588238%,49.019608%,49.803922%);fill-opacity:1;" d="M 1404.855469 2237.847656 C 1404.433594 2208.757812 1400.953125 2103.234375 1406.203125 2079.597656 C 1418.257812 2072.691406 1421.0625 2072.398438 1434.726562 2068.863281 C 1447.882812 2040.429688 1428.511719 2004.535156 1440.597656 1977.324219 C 1450.4375 1974.082031 1460.25 1970.726562 1470.023438 1967.269531 C 1479.09375 1940.296875 1464.40625 1927.441406 1475.160156 1909.871094 C 1485.761719 1906.921875 1494.117188 1904.324219 1504.515625 1900.691406 C 1513.097656 1880.519531 1501.886719 1857.761719 1507.25 1852.019531 C 1547.699219 1808.742188 1610.082031 1749.5625 1649.53125 1708.046875 C 1664.972656 1705.417969 1693.238281 1709.835938 1700.90625 1700.902344 C 1716.042969 1683.28125 1730.363281 1655.132812 1747.730469 1640.464844 C 1754.429688 1634.8125 1784.164062 1645.425781 1799.359375 1636.015625 C 1815.011719 1600.402344 1804.808594 1615.785156 1838.195312 1596.988281 C 1842.644531 1594.484375 1835.023438 1554.429688 1844.015625 1539.09375 C 1863.546875 1535.109375 1875.863281 1538.265625 1890.636719 1538.984375 C 1904.046875 1539.640625 1935.90625 1478.429688 1948.5625 1473.277344 C 1965.78125 1466.273438 1989.101562 1482 2004.3125 1465.371094 C 2008.738281 1445.675781 2005.085938 1445.523438 2017.277344 1437.113281 C 2034.082031 1437.828125 2046.699219 1438.183594 2063.652344 1437.550781 C 2082.847656 1418.113281 2067.753906 1405.136719 2088.191406 1403.230469 C 2105.015625 1401.667969 2118.542969 1411.1875 2135 1401.691406 C 2137.945312 1392.304688 2141.128906 1382.988281 2144.535156 1373.761719 C 2168.714844 1363.011719 2177.601562 1380.207031 2202.5 1367.78125 L 2209.941406 1342.140625 C 2237.183594 1327.257812 2256.296875 1356.011719 2278.125 1308.605469 C 2304.214844 1299.246094 2345.050781 1306.503906 2373.042969 1306.417969 C 2406.109375 1306.3125 2403.882812 1307.894531 2410.347656 1275.570312 C 2432.871094 1261.285156 2555.035156 1279.105469 2589.980469 1271.414062 C 2618 1265.246094 2598.832031 1248.816406 2615.53125 1237.652344 C 2625.296875 1231.394531 2690.363281 1243.105469 2695.203125 1237.925781 C 2724.894531 1206.128906 2697.757812 1194.910156 2764.847656 1205.03125 C 2817.449219 1212.972656 2797.832031 1194.496094 2814.925781 1171.617188 C 2848.574219 1166.617188 2910.472656 1180.097656 2937.171875 1166.042969 C 2940.476562 1164.304688 2944.078125 1146.042969 2945.355469 1140.203125 C 2965.261719 1127.671875 3041.261719 1146.828125 3068.5625 1136.199219 C 3073.746094 1134.183594 3078.316406 1115.859375 3079.859375 1109.316406 C 3107.011719 1093.039062 3311.089844 1109.796875 3355.972656 1105.46875 C 3390.230469 1102.164062 3361.785156 1071.003906 3396.097656 1070.851562 C 3588.175781 1070.035156 3787.355469 1070.710938 3978.832031 1071.039062 C 4034.582031 1071.132812 4331.621094 1065.726562 4369.898438 1074.128906 C 4375.375 1085.417969 4376.75 1089.257812 4380.65625 1101.277344 C 4419.234375 1121.195312 4462.8125 1078.074219 4477.785156 1125.121094 L 4480.699219 1134.410156 C 4510.691406 1143.851562 4516.671875 1129.355469 4539.957031 1140.457031 C 4556.960938 1201.351562 4566.527344 1155.171875 4607.0625 1174.980469 C 4611.359375 1192.375 4609.027344 1196.140625 4620.90625 1205.753906 L 4666.722656 1204.054688 C 4690.941406 1228.378906 4710.292969 1276.765625 4742.859375 1271.714844 C 4786.851562 1264.894531 4767.421875 1287.488281 4793.664062 1305.976562 L 4798.96875 1305.1875 C 4806.742188 1304.082031 4826.191406 1301.285156 4831.839844 1306.816406 C 4890.933594 1364.683594 4947.898438 1424.824219 5007.421875 1482.40625 C 5014.769531 1489.519531 5004.941406 1549.808594 5014.164062 1566.929688 C 5025.949219 1570.429688 5031.617188 1572.070312 5042.726562 1577.207031 C 5049.511719 1595.5 5043.984375 1611.929688 5044.886719 1624.8125 C 5045.492188 1633.988281 5084.097656 1647.234375 5074.191406 1668.28125 C 5070.324219 1676.445312 5076.855469 1689.609375 5080.828125 1697.800781 C 5092.792969 1704.371094 5095.003906 1705.066406 5108.222656 1708.894531 C 5120.289062 1731.816406 5102.59375 1747.433594 5114.808594 1767.503906 C 5126.519531 1770.667969 5133.757812 1771.644531 5143.609375 1778.882812 C 5155.824219 1830.082031 5114.15625 1858.960938 5173.316406 1878.269531 C 5181.761719 1897.980469 5179.902344 2132.898438 5175.730469 2161.386719 C 5156.078125 2181.683594 5157.585938 2160.941406 5142.757812 2182.417969 C 5144.515625 2199.660156 5145.820312 2211.234375 5145.21875 2228.832031 C 5136.722656 2238.878906 5127.527344 2239.527344 5114.507812 2242.996094 C 5105.507812 2259.835938 5113.046875 2284.875 5111.339844 2289.554688 C 5099.628906 2320.808594 5077.460938 2290.824219 5074.546875 2338.558594 C 5016.664062 2338.125 4958.757812 2338.28125 4900.855469 2339.023438 C 4826.855469 2276.585938 4764.796875 2200.070312 4690.347656 2138.527344 C 4659.238281 2112.808594 4706.441406 2079.515625 4659.683594 2071.460938 C 4626.3125 2065.714844 4655.699219 2002.601562 4644.285156 1980.5 C 4639.640625 1971.503906 4620.03125 1973.082031 4612.003906 1964.183594 C 4605.308594 1937.316406 4621.851562 1865.078125 4609.691406 1842.203125 C 4596.859375 1838.65625 4590.460938 1838.148438 4580.703125 1829 C 4574.839844 1793.648438 4578.605469 1678.222656 4578.914062 1638.164062 C 4470.699219 1633.378906 4285.007812 1645.40625 4187.050781 1634.25 C 4165.621094 1591.953125 4117.117188 1602.035156 4075.886719 1603.421875 C 4074.917969 1646.984375 4082.15625 1719.84375 4073.128906 1761.851562 C 4071.839844 1767.839844 4053.183594 1771.785156 4044.515625 1774.609375 C 4027.53125 1800.335938 4070.882812 1820.773438 3993.351562 1868.90625 C 3967.601562 1870.03125 3839.234375 1874.035156 3817.742188 1866.742188 C 3806.234375 1862.835938 3782.304688 1807.246094 3747.671875 1799.074219 C 3739.332031 1783.546875 3743.675781 1758.808594 3744.457031 1738.46875 C 3680.570312 1739.71875 3701.550781 1741.933594 3662.984375 1704.664062 C 3659.855469 1701.636719 3652.964844 1705.144531 3647.21875 1706.820312 C 3642.867188 1716.757812 3638.183594 1726.542969 3633.175781 1736.164062 C 3617.261719 1738.867188 3525.730469 1740.097656 3513.648438 1734.390625 L 3507.109375 1709.625 C 3481.492188 1693.789062 3470.890625 1713.148438 3447.125 1700.023438 C 3443.277344 1685.101562 3443.382812 1681.300781 3433.941406 1669.78125 L 3420.835938 1669.929688 C 3400.199219 1693.28125 3378.957031 1716.101562 3357.140625 1738.359375 C 3296.636719 1737.128906 3236.121094 1736.871094 3175.605469 1737.585938 C 3176.640625 1700.652344 3185.324219 1686.421875 3150.828125 1668.433594 C 3134.074219 1644.859375 3141.328125 1505.683594 3141.730469 1470.398438 C 3104.652344 1469.363281 2972.9375 1462.09375 2945.761719 1473.085938 C 2943.757812 1479.492188 2937.058594 1502.160156 2930.664062 1502.839844 C 2872.921875 1508.960938 2818.347656 1497.375 2759.34375 1502.460938 C 2738.910156 1498.484375 2738.832031 1533.871094 2732.445312 1536.328125 C 2705.171875 1546.828125 2631.6875 1523.492188 2610.046875 1541.203125 C 2607.933594 1548.820312 2606.160156 1557.484375 2602.175781 1564.347656 C 2593.292969 1579.636719 2470.398438 1565.066406 2445.492188 1571.15625 C 2439.5625 1582.996094 2437.671875 1588.433594 2433.46875 1601.058594 C 2416.21875 1608.914062 2377.191406 1602.25 2351.886719 1602.472656 C 2337.800781 1610.800781 2341.066406 1612.910156 2335.394531 1632.457031 C 2322.542969 1643.671875 2309.765625 1636.582031 2284.707031 1637.496094 C 2210.21875 1707.960938 2243.394531 1689.3125 2238.058594 1792.136719 C 2229.957031 1805.777344 2224.824219 1803.496094 2206.066406 1809.34375 C 2195.886719 1830.171875 2209.304688 1838.324219 2201.863281 1865.667969 C 2193.421875 1870.230469 2186.292969 1873.734375 2177.6875 1877.828125 C 2167.199219 1892.484375 2170.578125 1904.742188 2171.738281 1923.554688 C 2135.976562 1953.910156 2054.667969 2036.71875 2023.441406 2071.933594 C 2006.78125 2070.515625 1995.777344 2068.164062 1979.84375 2073.125 C 1958.777344 2134.792969 1924.253906 2089.140625 1913.238281 2105.390625 C 1857.160156 2188.113281 1854.058594 2176.71875 1754.605469 2169.039062 C 1715.480469 2166.011719 1711.691406 2164.664062 1699.28125 2201.65625 C 1655.144531 2222 1563.597656 2187.320312 1513.628906 2209.484375 C 1502.316406 2214.503906 1502.765625 2224.496094 1498.753906 2238.308594 Z M 1404.855469 2237.847656 "/>
<path style=" stroke:none;fill-rule:nonzero;fill:rgb(81.960785%,45.882353%,30.588236%);fill-opacity:1;" d="M 3145.921875 2940.53125 C 3199.871094 2941.808594 3324.847656 2934.675781 3368.308594 2947.03125 C 3390.949219 2986.089844 3419.550781 2976.210938 3460.300781 2974.398438 C 3484.066406 3000.902344 3547.542969 3069.503906 3575.503906 3083.878906 C 3574.511719 3166.726562 3574.511719 3249.582031 3575.511719 3332.429688 C 3546.160156 3347.3125 3516.421875 3383.398438 3494.761719 3408.703125 L 3457.535156 3408.851562 C 3440.070312 3419.417969 3443.601562 3421.195312 3434.707031 3442.902344 L 3122.800781 3442.949219 C 3103.277344 3419.628906 3060.195312 3384.101562 3042.214844 3359.855469 C 3040.285156 3357.25 3048.582031 3328.527344 3038.292969 3313.664062 C 3024.394531 3308.222656 3020.515625 3307.585938 3009.441406 3298.074219 C 3004.167969 3274.242188 3006.855469 3096.109375 3006.640625 3055.011719 C 3039.011719 3028.246094 3060.898438 3004.320312 3089.640625 2973.921875 C 3102.714844 2974.699219 3114 2974.6875 3127.109375 2974.625 C 3142.699219 2962.917969 3139.246094 2961.65625 3145.921875 2940.53125 Z M 3145.921875 2940.53125 "/>
<path style=" stroke:none;fill-rule:nonzero;fill:rgb(0%,0%,0%);fill-opacity:1;" d="M 3078.019531 3875.746094 C 3175.308594 3877.199219 4014.222656 3870.574219 4038.128906 3881.0625 L 4046.847656 3906 C 4058.1875 3913.503906 4086.152344 3912.140625 4099.582031 3910.980469 C 4156.140625 3906.09375 4125.917969 3929.066406 4179.066406 3953.726562 C 4195.359375 3988.441406 4157.765625 4023.886719 4123.203125 4017.148438 C 4111.285156 4007.890625 4109.523438 3995.140625 4104.730469 3980.054688 C 4094.320312 3974.199219 3650.492188 3977.019531 3600.296875 3977.074219 C 3542.1875 3977.082031 3060.976562 3972.210938 3044.511719 3982.132812 C 3041.101562 4001.375 3042.023438 4009.574219 3021.609375 4012.1875 C 2976.332031 4017.984375 2929.992188 4002.390625 2885.234375 4011.136719 C 2868.234375 4014.457031 2879.46875 4047.058594 2861.011719 4045.980469 C 2838.246094 4047.550781 2796.679688 4036 2780.058594 4046.078125 C 2757.742188 4123.519531 2668.714844 4112.664062 2607.128906 4111.574219 C 2605.867188 4085.675781 2602.6875 4049.648438 2605.699219 4024.125 C 2600.910156 4015.59375 2633.226562 4010.144531 2634.113281 4005.996094 C 2647.898438 3941.5625 2729.144531 3998.25 2769.390625 3973.089844 C 2784.171875 3905.828125 2878.210938 3968.683594 2936.3125 3940.574219 L 2941.1875 3918.101562 C 2965.011719 3892.523438 3028.039062 3924 3060.714844 3909.039062 C 3074.367188 3902.789062 3074.058594 3890.871094 3078.019531 3875.746094 Z M 3078.019531 3875.746094 "/>
<path style=" stroke:none;fill-rule:nonzero;fill:rgb(0%,0%,0%);fill-opacity:1;" d="M 3810.765625 2239.050781 L 3942.394531 2239.449219 C 3945.175781 2287.476562 3956.011719 2319.449219 3912.859375 2349.660156 C 3906.691406 2412.65625 3909.417969 2505.894531 3909.507812 2571.5 L 3910.289062 2946.707031 C 3910 2962.445312 3912.34375 2959.714844 3905.140625 2971.191406 C 3880.265625 2980.878906 3838.464844 2976.222656 3809.699219 2975.316406 C 3807.398438 2778.574219 3810.308594 2581.335938 3809.070312 2384.554688 C 3808.769531 2336.492188 3808.242188 2286.957031 3810.765625 2239.050781 Z M 3810.765625 2239.050781 "/>
<path style=" stroke:none;fill-rule:nonzero;fill:rgb(0%,0%,0%);fill-opacity:1;" d="M 4017.652344 2038.167969 C 4029.421875 2038.019531 4028.738281 2037.535156 4038.832031 2043.410156 C 4041.976562 2055.914062 4041.949219 2058.195312 4049.953125 2068.84375 C 4111.816406 2090.550781 4123.597656 2034.039062 4182.375 2135.226562 C 4187.371094 2143.832031 4217.660156 2139.367188 4230.164062 2138.773438 C 4247.328125 2148.480469 4241.734375 2144.578125 4251.652344 2165.730469 C 4267.96875 2176.351562 4290.226562 2172.632812 4311.117188 2172.039062 C 4311.929688 2193.230469 4311.152344 2218.664062 4311.035156 2240.214844 C 4267.023438 2239.746094 4198.011719 2246.425781 4154.941406 2237.160156 C 4147.375 2235.53125 4146.40625 2225.921875 4142.714844 2216.050781 C 4112.566406 2201.679688 4112.949219 2188.246094 4105.246094 2181.753906 C 4075.882812 2156.996094 4001.050781 2188.914062 3951.847656 2164.902344 C 3941.246094 2147.5625 3936.445312 2139.851562 3914.492188 2139.152344 C 3880.195312 2138.0625 3844.082031 2139.558594 3809.769531 2140.171875 C 3808.75 2107.28125 3809.539062 2071.386719 3809.589844 2038.242188 C 3878.941406 2039.3125 3948.300781 2039.289062 4017.652344 2038.167969 Z M 4017.652344 2038.167969 "/>
<path style=" stroke:none;fill-rule:nonzero;fill:rgb(0%,0%,0%);fill-opacity:1;" d="M 2375.441406 2004.898438 C 2507.640625 2006.390625 2641.5625 2005.324219 2773.898438 2005.347656 L 2773.976562 2106.144531 L 2674.957031 2105.8125 C 2642.894531 2106.023438 2492.476562 2100.484375 2475.445312 2110.53125 C 2473.46875 2122.449219 2473.480469 2127.167969 2467.3125 2137.820312 C 2438.214844 2143.605469 2341.542969 2140.398438 2306.617188 2140.222656 C 2304.875 2107.996094 2306.050781 2070.601562 2306.292969 2037.96875 C 2325.667969 2039.597656 2340.734375 2041.945312 2359.980469 2038.730469 C 2374.496094 2026.273438 2370.746094 2026.320312 2375.441406 2004.898438 Z M 2375.441406 2004.898438 "/>
<path style=" stroke:none;fill-rule:nonzero;fill:rgb(0%,0%,0%);fill-opacity:1;" d="M 2706.632812 2238.683594 C 2728.832031 2237.507812 2751.730469 2238.925781 2774.015625 2239.753906 L 2773.996094 2975.394531 L 2706.863281 2975.371094 C 2703.367188 2893.5 2706.109375 2791.5 2706.089844 2708.382812 Z M 2706.632812 2238.683594 "/>
<path style=" stroke:none;fill-rule:nonzero;fill:rgb(0%,0%,0%);fill-opacity:1;" d="M 2306.40625 3141.375 L 2706.757812 3141.558594 C 2707.386719 3174.425781 2706.910156 3208.53125 2706.914062 3241.515625 C 2604.875 3248.140625 2414.820312 3242.304688 2306.480469 3242.324219 C 2304.9375 3210.050781 2306.085938 3173.960938 2306.40625 3141.375 Z M 2306.40625 3141.375 "/>
<path style=" stroke:none;fill-rule:nonzero;fill:rgb(0%,0%,0%);fill-opacity:1;" d="M 2306.214844 3375.6875 L 2706.5625 3375.964844 C 2707.773438 3408.207031 2706.835938 3443.8125 2706.660156 3476.332031 C 2584.597656 3480.835938 2431.3125 3476.601562 2306.441406 3476.804688 C 2304.988281 3444.425781 2306.003906 3408.359375 2306.214844 3375.6875 Z M 2306.214844 3375.6875 "/>
<path style=" stroke:none;fill-rule:nonzero;fill:rgb(0%,0%,0%);fill-opacity:1;" d="M 3809.617188 3241.847656 L 4142.90625 3241.972656 C 4143.699219 3274.683594 4142.96875 3309.703125 4142.875 3342.609375 L 3809.609375 3342.695312 C 3808.785156 3310.082031 3809.558594 3274.703125 3809.617188 3241.847656 Z M 3809.617188 3241.847656 "/>
<path style=" stroke:none;fill-rule:nonzero;fill:rgb(0%,0%,0%);fill-opacity:1;" d="M 3842.683594 3075.101562 L 4143.003906 3075.257812 C 4144.109375 3096.207031 4143.332031 3120.53125 4143.132812 3141.835938 L 3842.15625 3141.890625 C 3841.195312 3119.730469 3842.144531 3097.308594 3842.683594 3075.101562 Z M 3842.683594 3075.101562 "/>
<path style=" stroke:none;fill-rule:nonzero;fill:rgb(0%,0%,0%);fill-opacity:1;" d="M 2008.242188 4479.367188 C 2031.390625 4478.242188 2117.515625 4474 2133.140625 4483.5 C 2148.425781 4516.976562 2147.617188 4504.558594 2170.363281 4519.167969 C 2176.070312 4522.832031 2166.414062 4557.664062 2176.648438 4577.636719 C 2210.75 4584.960938 2218.726562 4567.199219 2248.109375 4600.292969 C 2274.152344 4629.632812 2316.253906 4677.230469 2345.273438 4705.328125 C 2359.257812 4718.859375 2381.203125 4702.121094 2402.414062 4716.910156 C 2404.554688 4724.066406 2407.898438 4741.089844 2413.335938 4744.289062 C 2425.300781 4751.3125 2456.078125 4741.855469 2464.628906 4750.292969 C 2516.925781 4801.910156 2564.914062 4861.191406 2619.785156 4910.34375 C 2633.0625 4922.242188 2733.941406 4900.953125 2738.3125 4920.023438 C 2739.039062 4923.210938 2742.371094 4936.652344 2743.113281 4940.210938 C 2769.683594 4956.285156 3050.648438 4939.710938 3100.8125 4947.738281 C 3104.535156 4948.335938 3111.832031 4970.960938 3113.238281 4975.636719 C 3124.378906 4981.457031 3701.980469 4985.003906 3734.527344 4977.988281 C 3743.558594 4961.007812 3742.625 4948.519531 3754.628906 4946.242188 C 3788.867188 4939.753906 3838.265625 4953.058594 3870.144531 4945.351562 C 3876.398438 4932.636719 3876.285156 4931.234375 3878.3125 4916.976562 C 3901.992188 4901.332031 3971.761719 4922.796875 4001.394531 4912.46875 C 4007.144531 4910.46875 4011.347656 4889.65625 4012.785156 4882.867188 C 4029.152344 4873.238281 4058.601562 4884.136719 4066.386719 4879.234375 C 4083.382812 4868.546875 4105.222656 4818.808594 4125.84375 4810.996094 C 4135.371094 4807.386719 4189.503906 4821.003906 4202.09375 4812.742188 C 4220.53125 4772.988281 4208.855469 4776.726562 4263.523438 4780.734375 C 4280.121094 4781.949219 4272.425781 4744.648438 4289.511719 4744.3125 C 4311.363281 4743.152344 4327.738281 4755.175781 4342.527344 4737.390625 C 4345.550781 4718.894531 4342.109375 4719.148438 4352.953125 4711.285156 C 4374.804688 4711.6875 4414.769531 4714.1875 4433.894531 4708.488281 C 4476.042969 4665.171875 4518.191406 4620.898438 4562.375 4579.644531 C 4580.304688 4562.898438 4578.847656 4558.054688 4578.511719 4533.335938 C 4578.386719 4526.328125 4578.1875 4519.316406 4577.90625 4512.316406 C 4620.300781 4512.5625 4706.050781 4515.488281 4745.023438 4511.679688 C 4744.628906 4589.644531 4743.820312 4668.105469 4744.472656 4746.101562 C 4744.71875 4775.398438 4746.148438 4775.933594 4774.714844 4782.828125 C 4789.679688 4809.085938 4769.109375 5057.078125 4779.449219 5104.074219 C 4782.757812 5119.152344 4805.09375 5103.671875 4812.609375 5131.167969 C 4823.46875 5170.875 4784.914062 5235.867188 4832.8125 5249.085938 C 4835.636719 5249.890625 4838.472656 5250.644531 4841.3125 5251.347656 C 4853.390625 5275.625 4841.515625 5403.695312 4843.382812 5442.550781 C 4846.4375 5506.082031 4878.402344 5466.023438 4878.804688 5499.195312 C 4880.019531 5599.273438 4878.660156 5702.964844 4878.683594 5802.941406 L 4879.011719 6080.796875 C 4879.046875 6105.175781 4880.734375 6191.125 4876.664062 6209.875 C 4864.675781 6216.710938 4862.3125 6217.113281 4848.839844 6220.832031 C 4837.863281 6240.082031 4851.390625 6453.703125 4845.335938 6493.109375 C 4838.746094 6536.035156 4817.957031 6502.308594 4809.566406 6533.019531 C 4806.109375 6545.6875 4818.34375 6598.515625 4808.984375 6612.890625 C 4808.648438 6613.441406 4779.9375 6622.84375 4780.167969 6622.441406 C 4769.148438 6642.242188 4786.058594 6663.808594 4769.203125 6680.09375 C 4706.386719 6740.761719 4644.707031 6803.1875 4579.625 6861.34375 C 4577.746094 6863.050781 4576.097656 6904.46875 4576.902344 6903.613281 C 4547.355469 6936.035156 4506.152344 6972.929688 4477.535156 7006.101562 L 4478.246094 7345.933594 C 4478.339844 7406.25 4480.667969 7488.433594 4476.144531 7546.488281 C 4467.207031 7554.933594 4460.308594 7554.933594 4448.179688 7557.292969 C 4439.851562 7572.726562 4441.246094 7658.523438 4445.40625 7678.984375 C 4456.714844 7687.277344 4459.140625 7687.328125 4472.875 7691.398438 C 4484.347656 7714.921875 4478.050781 7935.226562 4477.121094 7977.046875 C 4460.753906 7997.203125 4444.367188 7983.832031 4443.980469 8001.675781 C 4443.359375 8030.375 4443.597656 8062.59375 4443.578125 8091.195312 L 4443.761719 8305.417969 L 4443.917969 9023.835938 L 4578.109375 9024.238281 L 4578.792969 9091.140625 C 4619.1875 9091.292969 4785.496094 9083.351562 4808.160156 9099.183594 L 4814.921875 9120.945312 C 4840.183594 9131.953125 4854.738281 9114.5625 4874.703125 9128.183594 C 4899.664062 9197.851562 4908.296875 9125.117188 4948.902344 9179.707031 C 4983.824219 9226.703125 5023.863281 9211.824219 5012.652344 9290.4375 C 5005.867188 9338.035156 5018.980469 9399.257812 5011.25 9447.660156 C 5003.628906 9457.765625 5004.960938 9453.640625 4996.914062 9458.214844 C 4970.496094 9473.144531 4953.425781 9511.394531 4922.335938 9524.261719 C 4892.714844 9536.476562 4878.695312 9506.066406 4847.910156 9532.304688 C 4843.871094 9551.355469 4847.332031 9552.109375 4835.710938 9560 C 4800.871094 9560.605469 4746.804688 9554.121094 4717.597656 9560.804688 C 4709.972656 9571.210938 4709.605469 9575.480469 4706.261719 9587.695312 C 4692.414062 9594.027344 4281.375 9594.78125 4251.640625 9590.058594 C 4244.117188 9578.546875 4243.917969 9576.4375 4239.96875 9563.015625 C 4186.195312 9536.425781 4120.945312 9597.394531 4106.644531 9529.089844 C 4072.503906 9506.871094 4052.039062 9555.324219 4019.378906 9477.46875 C 3993.867188 9452.988281 3944.285156 9458.617188 3910.007812 9459.121094 C 3910.492188 9437.757812 3915.148438 9375.332031 3904.222656 9361.609375 C 3895.964844 9358.945312 3879 9355.578125 3878.488281 9350.199219 C 3873.863281 9301.945312 3871.78125 9179.707031 3877.839844 9136.679688 C 3896.203125 9113.757812 3899.03125 9135.675781 3911.320312 9110.695312 L 3908.113281 9097.574219 C 3868.199219 9076.714844 3878.910156 9095.0625 3875.828125 9056.761719 C 3869.441406 8977.34375 3887.308594 8348.898438 3871.375 8325.925781 C 3851.3125 8319.292969 3851.410156 8323.164062 3842.636719 8309.441406 C 3840.226562 8280.640625 3842.3125 8251.386719 3843.609375 8222.484375 C 3801.703125 8222.03125 3647.28125 8218.3125 3614.4375 8224.644531 C 3607.875 8234.347656 3607.730469 8239.625 3605.511719 8250.984375 C 3592.488281 8259.527344 3527.789062 8255.457031 3508.511719 8255.304688 L 3508.949219 8536.480469 C 3509.234375 8588.503906 3512.132812 8664.804688 3506.027344 8714.765625 C 3496.851562 8723.8125 3490.871094 8723.914062 3478.339844 8726.929688 C 3456.5 8767.089844 3507.996094 8812.378906 3445.785156 8827.15625 C 3434.238281 8843.289062 3450.808594 8915.066406 3439.09375 8918.183594 C 3323.707031 8949.097656 3533 9074.253906 3538.589844 9103.253906 C 3546.167969 9142.609375 3546.753906 9242.082031 3537.609375 9283.5 C 3510.617188 9329.542969 3469.121094 9290.085938 3474.765625 9391.113281 C 3446.367188 9390.664062 3431.984375 9385.234375 3410.367188 9401.921875 C 3363.6875 9437.960938 3355.023438 9504.910156 3287.328125 9493.148438 C 3288.949219 9493.402344 3197.902344 9583.121094 3187.535156 9592.320312 C 3164.132812 9590.914062 3138.390625 9586.035156 3118.867188 9595.9375 C 3112.679688 9607.800781 3111.269531 9610.667969 3102.882812 9620.96875 C 3074.113281 9628.8125 3060.945312 9617.503906 3044.410156 9628.863281 C 3041.980469 9641.125 3041.597656 9646.855469 3035.472656 9658.066406 C 2983.386719 9671.835938 2915.769531 9629.515625 2903.644531 9687.71875 C 2892.597656 9695.5625 2576.308594 9693.953125 2549.832031 9690.234375 C 2528.925781 9669.777344 2549.691406 9658.617188 2515.507812 9656.957031 C 2496.203125 9656.054688 2449.757812 9667.113281 2438.78125 9650.171875 C 2406 9599.707031 2407.269531 9587.746094 2338.785156 9591.917969 C 2338.6875 9558.84375 2333.644531 9381.363281 2344 9363.921875 C 2354.453125 9359.347656 2360.511719 9356.484375 2370.394531 9350.804688 C 2373.570312 9332.808594 2372.972656 9326.125 2372.433594 9308.078125 C 2422.664062 9259.324219 2474.421875 9202.878906 2526.578125 9157.742188 C 2546.382812 9157.789062 2553.964844 9161.058594 2569.402344 9152.460938 C 2574.992188 9128.839844 2569.988281 9133.5625 2585.515625 9123.257812 C 2623.503906 9125.570312 2635.089844 9135.777344 2644.839844 9096.621094 C 2670.789062 9080.382812 2724.457031 9089.632812 2742.496094 9039.417969 C 2735.65625 9022.078125 2707.027344 9019.96875 2706.804688 9013.433594 C 2702.960938 8902.050781 2709.390625 8790.113281 2706.667969 8678.628906 C 2706.132812 8656.863281 2697.5 8658.21875 2677.363281 8652.1875 C 2663.914062 8628.011719 2680.414062 8450.984375 2673.632812 8410.871094 C 2667.441406 8374.179688 2639.753906 8400.167969 2638.617188 8373.980469 C 2636.472656 8319.140625 2644.414062 8264.757812 2640.15625 8210.070312 C 2642.035156 8182.625 2609.851562 8194.6875 2606.773438 8177.546875 C 2601.988281 8150.859375 2605.085938 8106.527344 2608.421875 8080.085938 C 2620.4375 7984.839844 2567.21875 8059.832031 2571.691406 7976.191406 L 2571.902344 7972.574219 C 2573.839844 7940.554688 2588.035156 7896.726562 2553.21875 7886.875 C 2550.023438 7886.019531 2546.8125 7885.113281 2543.589844 7884.308594 C 2506.125 7826.15625 2569.601562 7776.996094 2569.722656 7774.183594 C 2572.199219 7716.277344 2581.820312 7579.761719 2570.585938 7527.640625 C 2561.046875 7522.511719 2540.539062 7517.738281 2540.472656 7508.589844 C 2536.761719 6992.28125 2540.863281 6475.320312 2538.695312 5958.859375 C 2538.667969 5952.425781 2515.949219 5945.589844 2510.894531 5943.929688 C 2490.644531 5902.664062 2522.171875 5750.214844 2500.828125 5719.304688 L 2477.328125 5711.363281 C 2459.257812 5673.714844 2488.84375 5478.839844 2465.058594 5451.097656 C 2445.265625 5445.417969 2447.824219 5449.589844 2439.054688 5436.367188 C 2438.78125 5402.039062 2445.585938 5270.699219 2428.207031 5252 C 2401.300781 5257.230469 2329.476562 5342.929688 2305.4375 5368.058594 C 2305.828125 5437.726562 2306.902344 5509.652344 2306.582031 5579.46875 C 2306.46875 5603.292969 2295.234375 5612.542969 2275.402344 5622.644531 C 2262.621094 5672.304688 2285.136719 5773.585938 2265.101562 5811.6875 C 2242.167969 5823.199219 2237.992188 5820.484375 2233.851562 5848.679688 C 2194.527344 5855.015625 1814.105469 5851.699219 1779.632812 5844.511719 C 1754.445312 5807.765625 1748.238281 5814.199219 1704.03125 5815.308594 L 1703.710938 5224.40625 C 1703.695312 5180.125 1700.929688 4987.171875 1706.863281 4952.84375 C 1717.316406 4946.296875 1719.269531 4946.203125 1731.527344 4942.945312 L 1735.082031 4942.027344 C 1756.585938 4907.648438 1705.496094 4897.863281 1768.351562 4874.183594 C 1778.121094 4848.621094 1763.007812 4812.316406 1772.625 4786.269531 C 1774.46875 4781.28125 1792.964844 4777.707031 1800.117188 4775.652344 C 1812.6875 4754.5625 1799.234375 4747.078125 1807.839844 4717.785156 C 1817.679688 4710.917969 1818.71875 4710.507812 1830.226562 4706.417969 L 1833.082031 4705.429688 C 1843.269531 4687.511719 1838.488281 4653.179688 1837.851562 4630.179688 C 1881.191406 4587.53125 1912.484375 4553.40625 1959.175781 4512.179688 L 1957.570312 4512.074219 C 1977.152344 4512.042969 1988.246094 4515.546875 2002.425781 4506.445312 Z M 2008.242188 4479.367188 "/>
<path style=" stroke:none;fill-rule:nonzero;fill:rgb(99.607843%,67.843139%,53.333336%);fill-opacity:1;" d="M 3648.226562 6583.835938 C 3704.210938 6584.691406 3856.875 6579.3125 3902.714844 6589.066406 L 3908.917969 6602.835938 C 3935.058594 6625.957031 3975.421875 6619.023438 4010.703125 6617.714844 L 4010.335938 6718.746094 C 4097.628906 6714.671875 4050.03125 6736.488281 4111.351562 6759.457031 C 4110.46875 6824.046875 4094.21875 6896.980469 4174.964844 6925.480469 C 4182.199219 6942.519531 4177.570312 6961.71875 4176.1875 6980.117188 C 4173.34375 7017.914062 4176.523438 7012.9375 4207.824219 7024.449219 C 4225.890625 7063.453125 4177.4375 7061.242188 4240.539062 7092.65625 C 4274.519531 7182.578125 4180.667969 7215.800781 4136.214844 7279.585938 C 4129.074219 7289.839844 4119.925781 7286.523438 4107.980469 7286.671875 C 4087.921875 7286.773438 4028.332031 7290.84375 4014.558594 7282 C 4011.035156 7268.578125 4010.898438 7265.363281 4003.414062 7254.054688 C 3970.777344 7247.519531 3899.203125 7256.363281 3862.097656 7254.304688 C 3737.210938 7247.265625 3740 7224.75 3743.085938 7118.691406 L 3675.15625 7118.089844 C 3675.480469 7075.113281 3676.203125 7032.238281 3676.945312 6989.261719 C 3677.777344 6940.960938 3656.871094 6970.214844 3634.972656 6919.75 C 3620.507812 6913.667969 3580.84375 6921.105469 3553.933594 6917.585938 C 3531.777344 6903.414062 3518.523438 6881.546875 3511.203125 6850.988281 C 3505.867188 6828.671875 3499.871094 6744.027344 3514.84375 6721.910156 C 3515.269531 6721.308594 3542.863281 6716.984375 3543.90625 6708.589844 C 3545.410156 6696.527344 3538.976562 6669.285156 3542.9375 6662.246094 C 3556.710938 6638.472656 3592.992188 6622.289062 3619.070312 6617.261719 C 3643.464844 6612.535156 3640.789062 6605.199219 3648.222656 6583.835938 Z M 3648.226562 6583.835938 "/>
<path style=" stroke:none;fill-rule:nonzero;fill:rgb(62.352943%,33.333334%,14.509805%);fill-opacity:1;" d="M 3012.804688 9023.6875 L 3206.949219 9025.144531 L 3206.820312 9092.144531 C 3240.304688 9092.546875 3305.40625 9087.21875 3333.121094 9097.523438 C 3358.050781 9121.199219 3424.304688 9181.566406 3405.625 9219.414062 L 3377.707031 9227.054688 C 3367.046875 9246.003906 3378.738281 9257.210938 3369.996094 9286.566406 C 3322.246094 9296.015625 3264.03125 9307.425781 3274.34375 9372.265625 C 3245.234375 9400.109375 3224.195312 9424.992188 3198.054688 9455.453125 C 3181.167969 9462.691406 3142.71875 9455.300781 3117.613281 9455.550781 C 3103.769531 9465.152344 3109.933594 9467.917969 3101.578125 9489.933594 C 3078.773438 9499.28125 3045.042969 9485.609375 3012.546875 9491.140625 C 3006.308594 9502.347656 3006.257812 9504.558594 3003.429688 9517.476562 L 3002.621094 9521.296875 C 2980.621094 9534.265625 2966.800781 9515.566406 2943.4375 9527.53125 L 2935.226562 9555.023438 C 2913.792969 9564.070312 2837.21875 9558.191406 2809.660156 9557.136719 C 2805.246094 9575.582031 2807.359375 9582.265625 2794.808594 9591.265625 C 2746.253906 9591.867188 2666.992188 9594.378906 2617.210938 9589.152344 C 2606.257812 9587.996094 2609.0625 9556.882812 2592.058594 9556.53125 C 2574.292969 9556.128906 2561.007812 9564.171875 2544.648438 9554.972656 L 2537.714844 9529.992188 C 2511.816406 9513.957031 2492.777344 9536.023438 2472.601562 9514.5625 C 2461.089844 9502.296875 2450.3125 9489.179688 2439.132812 9476.5625 L 2441.609375 9466.8125 C 2456.957031 9458.214844 2463.019531 9456.15625 2473.890625 9442.382812 C 2473.414062 9438.210938 2471.132812 9415.441406 2472.917969 9413.179688 C 2515.136719 9359.902344 2572.890625 9309.4375 2621.484375 9260.679688 C 2623.535156 9258.671875 2654.53125 9265.457031 2670.972656 9255.300781 L 2676.554688 9231.125 C 2693.261719 9213.835938 2716.652344 9232.28125 2731.007812 9224.84375 C 2743.613281 9218.308594 2772.496094 9164.273438 2785.195312 9158.894531 C 2797.03125 9153.871094 2816.03125 9165.632812 2837.855469 9155.175781 L 2845.390625 9127.230469 C 2875.035156 9111.046875 2889.011719 9152.210938 2923.003906 9094.15625 C 2944.261719 9057.867188 2953.578125 9053.242188 2993.375 9058.671875 C 3009.988281 9046.65625 3005.976562 9046.253906 3012.804688 9023.6875 Z M 3012.804688 9023.6875 "/>
<path style=" stroke:none;fill-rule:nonzero;fill:rgb(100%,100%,100%);fill-opacity:1;" d="M 3848.75 5046.171875 C 3870.582031 5045.367188 3886.480469 5042.601562 3906.183594 5051.347656 C 3908.53125 5057.128906 3912.300781 5061.753906 3905.375 5068.738281 C 3843.417969 5131.117188 3780.097656 5193.59375 3715.863281 5253.761719 C 3703.351562 5265.472656 3715.300781 5296.03125 3709.15625 5304.175781 C 3700.863281 5316.789062 3640.648438 5349.058594 3641.960938 5364.1875 C 3649.394531 5449.9375 3643.011719 5437.773438 3578.398438 5488.089844 C 3567.75 5496.382812 3582.875 5533.425781 3572.199219 5541.871094 C 3552.441406 5557.503906 3526.386719 5572.984375 3509.0625 5591.832031 C 3506.230469 5595 3510.144531 5634.15625 3506.96875 5638.476562 C 3493.605469 5656.472656 3452.34375 5675.320312 3441.582031 5694.121094 C 3441.949219 5700.101562 3443.492188 5735.738281 3440.675781 5738.855469 C 3419.226562 5762.226562 3378.496094 5778.160156 3369.835938 5810.328125 C 3348.71875 5823.597656 3345.703125 5807.96875 3315.628906 5818.070312 C 3311.664062 5827.570312 3307.558594 5837.019531 3303.300781 5846.417969 C 3276.828125 5853.003906 3280.886719 5841.996094 3266.289062 5830.484375 C 3228.800781 5800.980469 3251.496094 5780.070312 3239.136719 5753.027344 C 3175.632812 5733.578125 3222.992188 5706.234375 3206.074219 5656.976562 C 3204.050781 5651.042969 3186.265625 5646.921875 3178.867188 5644.410156 C 3170.152344 5629.128906 3174.4375 5616.664062 3175.417969 5596.257812 C 3161.8125 5561.324219 3090.761719 5560.820312 3108.277344 5499.75 C 3113.441406 5481.757812 3087.089844 5482.410156 3078.625 5477.332031 C 3066.046875 5469.792969 3078.808594 5434.609375 3069.191406 5424.101562 C 3016.347656 5368.5625 2951.0625 5310.105469 2900.042969 5254.210938 C 2889.441406 5248.128906 2886.90625 5247.277344 2878.390625 5237.925781 C 2865.726562 5152.578125 2764.519531 5117.144531 2777.527344 5082.710938 C 2803.445312 5077.285156 2877.214844 5080.351562 2907.492188 5080.902344 L 2905.585938 5170.421875 C 2926.359375 5180.324219 2942.589844 5196.761719 2958.832031 5213.046875 C 2978.472656 5232.75 2973.644531 5241.144531 2973.078125 5266.980469 C 2999.25 5287.589844 3034.625 5319.554688 3051.414062 5348.15625 C 3062.777344 5348.40625 3125.871094 5350.417969 3131.757812 5344.6875 C 3153.257812 5323.929688 3172.015625 5281.808594 3203.832031 5275.726562 C 3215.0625 5257.730469 3200.117188 5247.328125 3209.445312 5220.738281 C 3231.277344 5214.707031 3232.546875 5209.527344 3246.683594 5195.402344 C 3284.574219 5157.65625 3276.546875 5132.121094 3274.074219 5080.902344 C 3318.199219 5080.148438 3364.152344 5080.851562 3408.4375 5080.851562 C 3408.945312 5124.734375 3401.550781 5195.804688 3411.085938 5238.429688 C 3412.507812 5244.761719 3430.179688 5248.835938 3439.03125 5252 C 3449.980469 5273.3125 3435.925781 5278.492188 3443.878906 5306.988281 C 3483.699219 5328.25 3470.347656 5335.339844 3490.921875 5349.011719 C 3515.957031 5365.699219 3581.136719 5331.667969 3598.125 5312.117188 C 3605.304688 5303.824219 3641.171875 5274.621094 3641.640625 5263.964844 C 3643.40625 5223.855469 3624.570312 5227.019531 3671.800781 5208.625 C 3679.851562 5184.195312 3675.519531 5111.0625 3674.976562 5080.953125 C 3724.960938 5079.597656 3781.816406 5088.59375 3829.035156 5077.585938 C 3841.46875 5074.722656 3844.488281 5057.882812 3848.75 5046.171875 Z M 3848.75 5046.171875 "/>
<path style=" stroke:none;fill-rule:nonzero;fill:rgb(62.352943%,33.333334%,14.509805%);fill-opacity:1;" d="M 4154.785156 9092.042969 C 4239.199219 9091.945312 4310.890625 9070.078125 4374.78125 9134.617188 C 4377.75 9145.222656 4377.855469 9147.132812 4383.328125 9156.984375 C 4414.558594 9167.039062 4436.664062 9150.402344 4471.769531 9159.597656 C 4477.203125 9171.160156 4478.289062 9175.683594 4481.625 9188.097656 C 4517.308594 9206.195312 4705.105469 9178.902344 4740.546875 9196.894531 L 4747.554688 9221.925781 C 4765.476562 9233.035156 4796.277344 9222.578125 4801.660156 9228.609375 C 4834.519531 9265.605469 4869.859375 9299.433594 4905.355469 9333.8125 C 4925.855469 9387.144531 4885.640625 9392.46875 4855.597656 9432.128906 C 4826.703125 9470.277344 4751.953125 9459.070312 4705.195312 9458.417969 C 4693.3125 9458.015625 4622.945312 9452.082031 4613.859375 9462.386719 C 4609.84375 9466.960938 4615.925781 9477.113281 4600.945312 9490.835938 C 4555.714844 9491.136719 4343.894531 9496.917969 4317.039062 9485.757812 C 4316.15625 9483.09375 4315.242188 9480.433594 4314.292969 9477.816406 C 4312.835938 9473.746094 4306.375 9459.121094 4303.265625 9458.515625 C 4261.601562 9450.523438 4150.722656 9470.027344 4116.230469 9454.09375 C 4104.734375 9415.742188 4042.554688 9383.472656 4016.78125 9351.707031 C 4004.539062 9336.628906 4019.660156 9318.027344 4005.417969 9293.652344 C 3988.625 9285.660156 3983.664062 9285.105469 3974.328125 9270.128906 C 3971.445312 9252.4375 3972.65625 9249.722656 3978.195312 9232.480469 C 4013.699219 9216.847656 4049.226562 9161.257812 4057.007812 9160 C 4107.542969 9151.65625 4128.574219 9140.398438 4154.785156 9092.042969 Z M 4154.785156 9092.042969 "/>
<path style=" stroke:none;fill-rule:nonzero;fill:rgb(100%,100%,100%);fill-opacity:1;" d="M 3035.125 5081.203125 C 3064.402344 5080.550781 3156.289062 5069.292969 3171.3125 5089.449219 C 3167.550781 5113.421875 3146.546875 5126.644531 3127.296875 5143.480469 C 3113.269531 5157.605469 3103.40625 5181.683594 3080.839844 5178.765625 C 3071.34375 5087.1875 3052.546875 5138.65625 3035.125 5081.203125 Z M 3035.125 5081.203125 "/>
<path style=" stroke:none;fill-rule:nonzero;fill:rgb(100%,100%,100%);fill-opacity:1;" d="M 3508.707031 5081.253906 C 3530.125 5080.300781 3591.972656 5076.78125 3609.441406 5084.523438 L 3610.695312 5092.515625 C 3600.847656 5109.25 3596.964844 5111.613281 3581.109375 5121.515625 L 3576.6875 5124.28125 L 3577.128906 5135.890625 C 3575.476562 5161.675781 3579.4375 5161.273438 3566.511719 5179.722656 L 3555.457031 5180.375 C 3551.152344 5178.0625 3542.933594 5172.984375 3540.328125 5169.417969 C 3506.179688 5122.671875 3508.074219 5131.820312 3508.707031 5081.253906 Z M 3508.707031 5081.253906 "/>
<path style=" stroke:none;fill-rule:nonzero;fill:rgb(99.607843%,67.843139%,53.333336%);fill-opacity:1;" d="M 1704.035156 5815.304688 C 1748.238281 5814.199219 1754.445312 5807.765625 1779.632812 5844.507812 C 1814.105469 5851.695312 2194.53125 5855.015625 2233.851562 5848.679688 C 2246.164062 5892.410156 2226.367188 5994.496094 2240.492188 6041.339844 C 2242.273438 6047.222656 2259.355469 6051.242188 2267.605469 6054.207031 C 2276.300781 6071.449219 2268.585938 6083.613281 2272.246094 6109.953125 C 2281.414062 6118.09375 2286.007812 6118.898438 2297.378906 6122.96875 L 2301.464844 6124.425781 C 2310.15625 6143.929688 2304.546875 6283.5625 2303.964844 6315.628906 C 2275.148438 6316.234375 2198.007812 6310.152344 2178.300781 6319.300781 C 2171.894531 6332.617188 2170.949219 6336.289062 2160.925781 6346.691406 C 2117.003906 6353.378906 1968.648438 6348.90625 1914.660156 6348.503906 C 1904.730469 6364.9375 1874.453125 6395.902344 1858.457031 6417.613281 L 1605.648438 6416.609375 C 1605.894531 6396.402344 1606.855469 6384.441406 1602.792969 6364.386719 C 1594.6875 6355.386719 1593.320312 6355.085938 1582.863281 6349.910156 L 1579.980469 6348.503906 C 1566.363281 6324.175781 1575.972656 6331.011719 1574.445312 6301.503906 C 1573.558594 6284.515625 1558.855469 6286.125 1540.53125 6272.351562 C 1532.773438 6220.53125 1537.042969 6057.222656 1540.101562 5995.652344 C 1540.445312 5988.816406 1560.445312 5981.828125 1569.117188 5977.859375 C 1577.285156 5959.714844 1570.453125 5955.390625 1570.347656 5932.972656 C 1568.386719 5913.46875 1599.320312 5916.789062 1602.292969 5905.328125 C 1618.652344 5842.097656 1619.265625 5811.585938 1704.035156 5815.304688 Z M 1704.035156 5815.304688 "/>
</g>
</svg>
